G75*
%MOIN*%
%OFA0B0*%
%FSLAX25Y25*%
%IPPOS*%
%LPD*%
%AMOC8*
5,1,8,0,0,1.08239X$1,22.5*
%
%ADD10C,0.00000*%
D10*
X0048595Y0047933D02*
X0048595Y0371933D01*
X0377595Y0371933D01*
X0377595Y0047933D01*
X0048595Y0047933D01*
X0070695Y0063933D02*
X0070697Y0064086D01*
X0070703Y0064239D01*
X0070713Y0064392D01*
X0070727Y0064545D01*
X0070745Y0064697D01*
X0070766Y0064848D01*
X0070792Y0064999D01*
X0070822Y0065150D01*
X0070855Y0065299D01*
X0070893Y0065448D01*
X0070934Y0065595D01*
X0070979Y0065742D01*
X0071028Y0065887D01*
X0071080Y0066031D01*
X0071137Y0066173D01*
X0071197Y0066314D01*
X0071260Y0066453D01*
X0071328Y0066591D01*
X0071398Y0066727D01*
X0071473Y0066861D01*
X0071550Y0066993D01*
X0071632Y0067123D01*
X0071716Y0067251D01*
X0071804Y0067376D01*
X0071895Y0067499D01*
X0071989Y0067620D01*
X0072086Y0067738D01*
X0072187Y0067854D01*
X0072290Y0067967D01*
X0072396Y0068078D01*
X0072505Y0068185D01*
X0072617Y0068290D01*
X0072731Y0068392D01*
X0072848Y0068491D01*
X0072968Y0068586D01*
X0073090Y0068679D01*
X0073214Y0068768D01*
X0073341Y0068855D01*
X0073470Y0068937D01*
X0073601Y0069017D01*
X0073734Y0069093D01*
X0073869Y0069165D01*
X0074006Y0069234D01*
X0074144Y0069300D01*
X0074284Y0069362D01*
X0074426Y0069420D01*
X0074569Y0069474D01*
X0074714Y0069525D01*
X0074859Y0069572D01*
X0075006Y0069615D01*
X0075154Y0069654D01*
X0075303Y0069690D01*
X0075453Y0069721D01*
X0075604Y0069749D01*
X0075755Y0069773D01*
X0075907Y0069793D01*
X0076060Y0069809D01*
X0076212Y0069821D01*
X0076365Y0069829D01*
X0076518Y0069833D01*
X0076672Y0069833D01*
X0076825Y0069829D01*
X0076978Y0069821D01*
X0077130Y0069809D01*
X0077283Y0069793D01*
X0077435Y0069773D01*
X0077586Y0069749D01*
X0077737Y0069721D01*
X0077887Y0069690D01*
X0078036Y0069654D01*
X0078184Y0069615D01*
X0078331Y0069572D01*
X0078476Y0069525D01*
X0078621Y0069474D01*
X0078764Y0069420D01*
X0078906Y0069362D01*
X0079046Y0069300D01*
X0079184Y0069234D01*
X0079321Y0069165D01*
X0079456Y0069093D01*
X0079589Y0069017D01*
X0079720Y0068937D01*
X0079849Y0068855D01*
X0079976Y0068768D01*
X0080100Y0068679D01*
X0080222Y0068586D01*
X0080342Y0068491D01*
X0080459Y0068392D01*
X0080573Y0068290D01*
X0080685Y0068185D01*
X0080794Y0068078D01*
X0080900Y0067967D01*
X0081003Y0067854D01*
X0081104Y0067738D01*
X0081201Y0067620D01*
X0081295Y0067499D01*
X0081386Y0067376D01*
X0081474Y0067251D01*
X0081558Y0067123D01*
X0081640Y0066993D01*
X0081717Y0066861D01*
X0081792Y0066727D01*
X0081862Y0066591D01*
X0081930Y0066453D01*
X0081993Y0066314D01*
X0082053Y0066173D01*
X0082110Y0066031D01*
X0082162Y0065887D01*
X0082211Y0065742D01*
X0082256Y0065595D01*
X0082297Y0065448D01*
X0082335Y0065299D01*
X0082368Y0065150D01*
X0082398Y0064999D01*
X0082424Y0064848D01*
X0082445Y0064697D01*
X0082463Y0064545D01*
X0082477Y0064392D01*
X0082487Y0064239D01*
X0082493Y0064086D01*
X0082495Y0063933D01*
X0082493Y0063780D01*
X0082487Y0063627D01*
X0082477Y0063474D01*
X0082463Y0063321D01*
X0082445Y0063169D01*
X0082424Y0063018D01*
X0082398Y0062867D01*
X0082368Y0062716D01*
X0082335Y0062567D01*
X0082297Y0062418D01*
X0082256Y0062271D01*
X0082211Y0062124D01*
X0082162Y0061979D01*
X0082110Y0061835D01*
X0082053Y0061693D01*
X0081993Y0061552D01*
X0081930Y0061413D01*
X0081862Y0061275D01*
X0081792Y0061139D01*
X0081717Y0061005D01*
X0081640Y0060873D01*
X0081558Y0060743D01*
X0081474Y0060615D01*
X0081386Y0060490D01*
X0081295Y0060367D01*
X0081201Y0060246D01*
X0081104Y0060128D01*
X0081003Y0060012D01*
X0080900Y0059899D01*
X0080794Y0059788D01*
X0080685Y0059681D01*
X0080573Y0059576D01*
X0080459Y0059474D01*
X0080342Y0059375D01*
X0080222Y0059280D01*
X0080100Y0059187D01*
X0079976Y0059098D01*
X0079849Y0059011D01*
X0079720Y0058929D01*
X0079589Y0058849D01*
X0079456Y0058773D01*
X0079321Y0058701D01*
X0079184Y0058632D01*
X0079046Y0058566D01*
X0078906Y0058504D01*
X0078764Y0058446D01*
X0078621Y0058392D01*
X0078476Y0058341D01*
X0078331Y0058294D01*
X0078184Y0058251D01*
X0078036Y0058212D01*
X0077887Y0058176D01*
X0077737Y0058145D01*
X0077586Y0058117D01*
X0077435Y0058093D01*
X0077283Y0058073D01*
X0077130Y0058057D01*
X0076978Y0058045D01*
X0076825Y0058037D01*
X0076672Y0058033D01*
X0076518Y0058033D01*
X0076365Y0058037D01*
X0076212Y0058045D01*
X0076060Y0058057D01*
X0075907Y0058073D01*
X0075755Y0058093D01*
X0075604Y0058117D01*
X0075453Y0058145D01*
X0075303Y0058176D01*
X0075154Y0058212D01*
X0075006Y0058251D01*
X0074859Y0058294D01*
X0074714Y0058341D01*
X0074569Y0058392D01*
X0074426Y0058446D01*
X0074284Y0058504D01*
X0074144Y0058566D01*
X0074006Y0058632D01*
X0073869Y0058701D01*
X0073734Y0058773D01*
X0073601Y0058849D01*
X0073470Y0058929D01*
X0073341Y0059011D01*
X0073214Y0059098D01*
X0073090Y0059187D01*
X0072968Y0059280D01*
X0072848Y0059375D01*
X0072731Y0059474D01*
X0072617Y0059576D01*
X0072505Y0059681D01*
X0072396Y0059788D01*
X0072290Y0059899D01*
X0072187Y0060012D01*
X0072086Y0060128D01*
X0071989Y0060246D01*
X0071895Y0060367D01*
X0071804Y0060490D01*
X0071716Y0060615D01*
X0071632Y0060743D01*
X0071550Y0060873D01*
X0071473Y0061005D01*
X0071398Y0061139D01*
X0071328Y0061275D01*
X0071260Y0061413D01*
X0071197Y0061552D01*
X0071137Y0061693D01*
X0071080Y0061835D01*
X0071028Y0061979D01*
X0070979Y0062124D01*
X0070934Y0062271D01*
X0070893Y0062418D01*
X0070855Y0062567D01*
X0070822Y0062716D01*
X0070792Y0062867D01*
X0070766Y0063018D01*
X0070745Y0063169D01*
X0070727Y0063321D01*
X0070713Y0063474D01*
X0070703Y0063627D01*
X0070697Y0063780D01*
X0070695Y0063933D01*
X0235695Y0063933D02*
X0235697Y0064086D01*
X0235703Y0064239D01*
X0235713Y0064392D01*
X0235727Y0064545D01*
X0235745Y0064697D01*
X0235766Y0064848D01*
X0235792Y0064999D01*
X0235822Y0065150D01*
X0235855Y0065299D01*
X0235893Y0065448D01*
X0235934Y0065595D01*
X0235979Y0065742D01*
X0236028Y0065887D01*
X0236080Y0066031D01*
X0236137Y0066173D01*
X0236197Y0066314D01*
X0236260Y0066453D01*
X0236328Y0066591D01*
X0236398Y0066727D01*
X0236473Y0066861D01*
X0236550Y0066993D01*
X0236632Y0067123D01*
X0236716Y0067251D01*
X0236804Y0067376D01*
X0236895Y0067499D01*
X0236989Y0067620D01*
X0237086Y0067738D01*
X0237187Y0067854D01*
X0237290Y0067967D01*
X0237396Y0068078D01*
X0237505Y0068185D01*
X0237617Y0068290D01*
X0237731Y0068392D01*
X0237848Y0068491D01*
X0237968Y0068586D01*
X0238090Y0068679D01*
X0238214Y0068768D01*
X0238341Y0068855D01*
X0238470Y0068937D01*
X0238601Y0069017D01*
X0238734Y0069093D01*
X0238869Y0069165D01*
X0239006Y0069234D01*
X0239144Y0069300D01*
X0239284Y0069362D01*
X0239426Y0069420D01*
X0239569Y0069474D01*
X0239714Y0069525D01*
X0239859Y0069572D01*
X0240006Y0069615D01*
X0240154Y0069654D01*
X0240303Y0069690D01*
X0240453Y0069721D01*
X0240604Y0069749D01*
X0240755Y0069773D01*
X0240907Y0069793D01*
X0241060Y0069809D01*
X0241212Y0069821D01*
X0241365Y0069829D01*
X0241518Y0069833D01*
X0241672Y0069833D01*
X0241825Y0069829D01*
X0241978Y0069821D01*
X0242130Y0069809D01*
X0242283Y0069793D01*
X0242435Y0069773D01*
X0242586Y0069749D01*
X0242737Y0069721D01*
X0242887Y0069690D01*
X0243036Y0069654D01*
X0243184Y0069615D01*
X0243331Y0069572D01*
X0243476Y0069525D01*
X0243621Y0069474D01*
X0243764Y0069420D01*
X0243906Y0069362D01*
X0244046Y0069300D01*
X0244184Y0069234D01*
X0244321Y0069165D01*
X0244456Y0069093D01*
X0244589Y0069017D01*
X0244720Y0068937D01*
X0244849Y0068855D01*
X0244976Y0068768D01*
X0245100Y0068679D01*
X0245222Y0068586D01*
X0245342Y0068491D01*
X0245459Y0068392D01*
X0245573Y0068290D01*
X0245685Y0068185D01*
X0245794Y0068078D01*
X0245900Y0067967D01*
X0246003Y0067854D01*
X0246104Y0067738D01*
X0246201Y0067620D01*
X0246295Y0067499D01*
X0246386Y0067376D01*
X0246474Y0067251D01*
X0246558Y0067123D01*
X0246640Y0066993D01*
X0246717Y0066861D01*
X0246792Y0066727D01*
X0246862Y0066591D01*
X0246930Y0066453D01*
X0246993Y0066314D01*
X0247053Y0066173D01*
X0247110Y0066031D01*
X0247162Y0065887D01*
X0247211Y0065742D01*
X0247256Y0065595D01*
X0247297Y0065448D01*
X0247335Y0065299D01*
X0247368Y0065150D01*
X0247398Y0064999D01*
X0247424Y0064848D01*
X0247445Y0064697D01*
X0247463Y0064545D01*
X0247477Y0064392D01*
X0247487Y0064239D01*
X0247493Y0064086D01*
X0247495Y0063933D01*
X0247493Y0063780D01*
X0247487Y0063627D01*
X0247477Y0063474D01*
X0247463Y0063321D01*
X0247445Y0063169D01*
X0247424Y0063018D01*
X0247398Y0062867D01*
X0247368Y0062716D01*
X0247335Y0062567D01*
X0247297Y0062418D01*
X0247256Y0062271D01*
X0247211Y0062124D01*
X0247162Y0061979D01*
X0247110Y0061835D01*
X0247053Y0061693D01*
X0246993Y0061552D01*
X0246930Y0061413D01*
X0246862Y0061275D01*
X0246792Y0061139D01*
X0246717Y0061005D01*
X0246640Y0060873D01*
X0246558Y0060743D01*
X0246474Y0060615D01*
X0246386Y0060490D01*
X0246295Y0060367D01*
X0246201Y0060246D01*
X0246104Y0060128D01*
X0246003Y0060012D01*
X0245900Y0059899D01*
X0245794Y0059788D01*
X0245685Y0059681D01*
X0245573Y0059576D01*
X0245459Y0059474D01*
X0245342Y0059375D01*
X0245222Y0059280D01*
X0245100Y0059187D01*
X0244976Y0059098D01*
X0244849Y0059011D01*
X0244720Y0058929D01*
X0244589Y0058849D01*
X0244456Y0058773D01*
X0244321Y0058701D01*
X0244184Y0058632D01*
X0244046Y0058566D01*
X0243906Y0058504D01*
X0243764Y0058446D01*
X0243621Y0058392D01*
X0243476Y0058341D01*
X0243331Y0058294D01*
X0243184Y0058251D01*
X0243036Y0058212D01*
X0242887Y0058176D01*
X0242737Y0058145D01*
X0242586Y0058117D01*
X0242435Y0058093D01*
X0242283Y0058073D01*
X0242130Y0058057D01*
X0241978Y0058045D01*
X0241825Y0058037D01*
X0241672Y0058033D01*
X0241518Y0058033D01*
X0241365Y0058037D01*
X0241212Y0058045D01*
X0241060Y0058057D01*
X0240907Y0058073D01*
X0240755Y0058093D01*
X0240604Y0058117D01*
X0240453Y0058145D01*
X0240303Y0058176D01*
X0240154Y0058212D01*
X0240006Y0058251D01*
X0239859Y0058294D01*
X0239714Y0058341D01*
X0239569Y0058392D01*
X0239426Y0058446D01*
X0239284Y0058504D01*
X0239144Y0058566D01*
X0239006Y0058632D01*
X0238869Y0058701D01*
X0238734Y0058773D01*
X0238601Y0058849D01*
X0238470Y0058929D01*
X0238341Y0059011D01*
X0238214Y0059098D01*
X0238090Y0059187D01*
X0237968Y0059280D01*
X0237848Y0059375D01*
X0237731Y0059474D01*
X0237617Y0059576D01*
X0237505Y0059681D01*
X0237396Y0059788D01*
X0237290Y0059899D01*
X0237187Y0060012D01*
X0237086Y0060128D01*
X0236989Y0060246D01*
X0236895Y0060367D01*
X0236804Y0060490D01*
X0236716Y0060615D01*
X0236632Y0060743D01*
X0236550Y0060873D01*
X0236473Y0061005D01*
X0236398Y0061139D01*
X0236328Y0061275D01*
X0236260Y0061413D01*
X0236197Y0061552D01*
X0236137Y0061693D01*
X0236080Y0061835D01*
X0236028Y0061979D01*
X0235979Y0062124D01*
X0235934Y0062271D01*
X0235893Y0062418D01*
X0235855Y0062567D01*
X0235822Y0062716D01*
X0235792Y0062867D01*
X0235766Y0063018D01*
X0235745Y0063169D01*
X0235727Y0063321D01*
X0235713Y0063474D01*
X0235703Y0063627D01*
X0235697Y0063780D01*
X0235695Y0063933D01*
X0235695Y0355933D02*
X0235697Y0356086D01*
X0235703Y0356239D01*
X0235713Y0356392D01*
X0235727Y0356545D01*
X0235745Y0356697D01*
X0235766Y0356848D01*
X0235792Y0356999D01*
X0235822Y0357150D01*
X0235855Y0357299D01*
X0235893Y0357448D01*
X0235934Y0357595D01*
X0235979Y0357742D01*
X0236028Y0357887D01*
X0236080Y0358031D01*
X0236137Y0358173D01*
X0236197Y0358314D01*
X0236260Y0358453D01*
X0236328Y0358591D01*
X0236398Y0358727D01*
X0236473Y0358861D01*
X0236550Y0358993D01*
X0236632Y0359123D01*
X0236716Y0359251D01*
X0236804Y0359376D01*
X0236895Y0359499D01*
X0236989Y0359620D01*
X0237086Y0359738D01*
X0237187Y0359854D01*
X0237290Y0359967D01*
X0237396Y0360078D01*
X0237505Y0360185D01*
X0237617Y0360290D01*
X0237731Y0360392D01*
X0237848Y0360491D01*
X0237968Y0360586D01*
X0238090Y0360679D01*
X0238214Y0360768D01*
X0238341Y0360855D01*
X0238470Y0360937D01*
X0238601Y0361017D01*
X0238734Y0361093D01*
X0238869Y0361165D01*
X0239006Y0361234D01*
X0239144Y0361300D01*
X0239284Y0361362D01*
X0239426Y0361420D01*
X0239569Y0361474D01*
X0239714Y0361525D01*
X0239859Y0361572D01*
X0240006Y0361615D01*
X0240154Y0361654D01*
X0240303Y0361690D01*
X0240453Y0361721D01*
X0240604Y0361749D01*
X0240755Y0361773D01*
X0240907Y0361793D01*
X0241060Y0361809D01*
X0241212Y0361821D01*
X0241365Y0361829D01*
X0241518Y0361833D01*
X0241672Y0361833D01*
X0241825Y0361829D01*
X0241978Y0361821D01*
X0242130Y0361809D01*
X0242283Y0361793D01*
X0242435Y0361773D01*
X0242586Y0361749D01*
X0242737Y0361721D01*
X0242887Y0361690D01*
X0243036Y0361654D01*
X0243184Y0361615D01*
X0243331Y0361572D01*
X0243476Y0361525D01*
X0243621Y0361474D01*
X0243764Y0361420D01*
X0243906Y0361362D01*
X0244046Y0361300D01*
X0244184Y0361234D01*
X0244321Y0361165D01*
X0244456Y0361093D01*
X0244589Y0361017D01*
X0244720Y0360937D01*
X0244849Y0360855D01*
X0244976Y0360768D01*
X0245100Y0360679D01*
X0245222Y0360586D01*
X0245342Y0360491D01*
X0245459Y0360392D01*
X0245573Y0360290D01*
X0245685Y0360185D01*
X0245794Y0360078D01*
X0245900Y0359967D01*
X0246003Y0359854D01*
X0246104Y0359738D01*
X0246201Y0359620D01*
X0246295Y0359499D01*
X0246386Y0359376D01*
X0246474Y0359251D01*
X0246558Y0359123D01*
X0246640Y0358993D01*
X0246717Y0358861D01*
X0246792Y0358727D01*
X0246862Y0358591D01*
X0246930Y0358453D01*
X0246993Y0358314D01*
X0247053Y0358173D01*
X0247110Y0358031D01*
X0247162Y0357887D01*
X0247211Y0357742D01*
X0247256Y0357595D01*
X0247297Y0357448D01*
X0247335Y0357299D01*
X0247368Y0357150D01*
X0247398Y0356999D01*
X0247424Y0356848D01*
X0247445Y0356697D01*
X0247463Y0356545D01*
X0247477Y0356392D01*
X0247487Y0356239D01*
X0247493Y0356086D01*
X0247495Y0355933D01*
X0247493Y0355780D01*
X0247487Y0355627D01*
X0247477Y0355474D01*
X0247463Y0355321D01*
X0247445Y0355169D01*
X0247424Y0355018D01*
X0247398Y0354867D01*
X0247368Y0354716D01*
X0247335Y0354567D01*
X0247297Y0354418D01*
X0247256Y0354271D01*
X0247211Y0354124D01*
X0247162Y0353979D01*
X0247110Y0353835D01*
X0247053Y0353693D01*
X0246993Y0353552D01*
X0246930Y0353413D01*
X0246862Y0353275D01*
X0246792Y0353139D01*
X0246717Y0353005D01*
X0246640Y0352873D01*
X0246558Y0352743D01*
X0246474Y0352615D01*
X0246386Y0352490D01*
X0246295Y0352367D01*
X0246201Y0352246D01*
X0246104Y0352128D01*
X0246003Y0352012D01*
X0245900Y0351899D01*
X0245794Y0351788D01*
X0245685Y0351681D01*
X0245573Y0351576D01*
X0245459Y0351474D01*
X0245342Y0351375D01*
X0245222Y0351280D01*
X0245100Y0351187D01*
X0244976Y0351098D01*
X0244849Y0351011D01*
X0244720Y0350929D01*
X0244589Y0350849D01*
X0244456Y0350773D01*
X0244321Y0350701D01*
X0244184Y0350632D01*
X0244046Y0350566D01*
X0243906Y0350504D01*
X0243764Y0350446D01*
X0243621Y0350392D01*
X0243476Y0350341D01*
X0243331Y0350294D01*
X0243184Y0350251D01*
X0243036Y0350212D01*
X0242887Y0350176D01*
X0242737Y0350145D01*
X0242586Y0350117D01*
X0242435Y0350093D01*
X0242283Y0350073D01*
X0242130Y0350057D01*
X0241978Y0350045D01*
X0241825Y0350037D01*
X0241672Y0350033D01*
X0241518Y0350033D01*
X0241365Y0350037D01*
X0241212Y0350045D01*
X0241060Y0350057D01*
X0240907Y0350073D01*
X0240755Y0350093D01*
X0240604Y0350117D01*
X0240453Y0350145D01*
X0240303Y0350176D01*
X0240154Y0350212D01*
X0240006Y0350251D01*
X0239859Y0350294D01*
X0239714Y0350341D01*
X0239569Y0350392D01*
X0239426Y0350446D01*
X0239284Y0350504D01*
X0239144Y0350566D01*
X0239006Y0350632D01*
X0238869Y0350701D01*
X0238734Y0350773D01*
X0238601Y0350849D01*
X0238470Y0350929D01*
X0238341Y0351011D01*
X0238214Y0351098D01*
X0238090Y0351187D01*
X0237968Y0351280D01*
X0237848Y0351375D01*
X0237731Y0351474D01*
X0237617Y0351576D01*
X0237505Y0351681D01*
X0237396Y0351788D01*
X0237290Y0351899D01*
X0237187Y0352012D01*
X0237086Y0352128D01*
X0236989Y0352246D01*
X0236895Y0352367D01*
X0236804Y0352490D01*
X0236716Y0352615D01*
X0236632Y0352743D01*
X0236550Y0352873D01*
X0236473Y0353005D01*
X0236398Y0353139D01*
X0236328Y0353275D01*
X0236260Y0353413D01*
X0236197Y0353552D01*
X0236137Y0353693D01*
X0236080Y0353835D01*
X0236028Y0353979D01*
X0235979Y0354124D01*
X0235934Y0354271D01*
X0235893Y0354418D01*
X0235855Y0354567D01*
X0235822Y0354716D01*
X0235792Y0354867D01*
X0235766Y0355018D01*
X0235745Y0355169D01*
X0235727Y0355321D01*
X0235713Y0355474D01*
X0235703Y0355627D01*
X0235697Y0355780D01*
X0235695Y0355933D01*
X0070695Y0355933D02*
X0070697Y0356086D01*
X0070703Y0356239D01*
X0070713Y0356392D01*
X0070727Y0356545D01*
X0070745Y0356697D01*
X0070766Y0356848D01*
X0070792Y0356999D01*
X0070822Y0357150D01*
X0070855Y0357299D01*
X0070893Y0357448D01*
X0070934Y0357595D01*
X0070979Y0357742D01*
X0071028Y0357887D01*
X0071080Y0358031D01*
X0071137Y0358173D01*
X0071197Y0358314D01*
X0071260Y0358453D01*
X0071328Y0358591D01*
X0071398Y0358727D01*
X0071473Y0358861D01*
X0071550Y0358993D01*
X0071632Y0359123D01*
X0071716Y0359251D01*
X0071804Y0359376D01*
X0071895Y0359499D01*
X0071989Y0359620D01*
X0072086Y0359738D01*
X0072187Y0359854D01*
X0072290Y0359967D01*
X0072396Y0360078D01*
X0072505Y0360185D01*
X0072617Y0360290D01*
X0072731Y0360392D01*
X0072848Y0360491D01*
X0072968Y0360586D01*
X0073090Y0360679D01*
X0073214Y0360768D01*
X0073341Y0360855D01*
X0073470Y0360937D01*
X0073601Y0361017D01*
X0073734Y0361093D01*
X0073869Y0361165D01*
X0074006Y0361234D01*
X0074144Y0361300D01*
X0074284Y0361362D01*
X0074426Y0361420D01*
X0074569Y0361474D01*
X0074714Y0361525D01*
X0074859Y0361572D01*
X0075006Y0361615D01*
X0075154Y0361654D01*
X0075303Y0361690D01*
X0075453Y0361721D01*
X0075604Y0361749D01*
X0075755Y0361773D01*
X0075907Y0361793D01*
X0076060Y0361809D01*
X0076212Y0361821D01*
X0076365Y0361829D01*
X0076518Y0361833D01*
X0076672Y0361833D01*
X0076825Y0361829D01*
X0076978Y0361821D01*
X0077130Y0361809D01*
X0077283Y0361793D01*
X0077435Y0361773D01*
X0077586Y0361749D01*
X0077737Y0361721D01*
X0077887Y0361690D01*
X0078036Y0361654D01*
X0078184Y0361615D01*
X0078331Y0361572D01*
X0078476Y0361525D01*
X0078621Y0361474D01*
X0078764Y0361420D01*
X0078906Y0361362D01*
X0079046Y0361300D01*
X0079184Y0361234D01*
X0079321Y0361165D01*
X0079456Y0361093D01*
X0079589Y0361017D01*
X0079720Y0360937D01*
X0079849Y0360855D01*
X0079976Y0360768D01*
X0080100Y0360679D01*
X0080222Y0360586D01*
X0080342Y0360491D01*
X0080459Y0360392D01*
X0080573Y0360290D01*
X0080685Y0360185D01*
X0080794Y0360078D01*
X0080900Y0359967D01*
X0081003Y0359854D01*
X0081104Y0359738D01*
X0081201Y0359620D01*
X0081295Y0359499D01*
X0081386Y0359376D01*
X0081474Y0359251D01*
X0081558Y0359123D01*
X0081640Y0358993D01*
X0081717Y0358861D01*
X0081792Y0358727D01*
X0081862Y0358591D01*
X0081930Y0358453D01*
X0081993Y0358314D01*
X0082053Y0358173D01*
X0082110Y0358031D01*
X0082162Y0357887D01*
X0082211Y0357742D01*
X0082256Y0357595D01*
X0082297Y0357448D01*
X0082335Y0357299D01*
X0082368Y0357150D01*
X0082398Y0356999D01*
X0082424Y0356848D01*
X0082445Y0356697D01*
X0082463Y0356545D01*
X0082477Y0356392D01*
X0082487Y0356239D01*
X0082493Y0356086D01*
X0082495Y0355933D01*
X0082493Y0355780D01*
X0082487Y0355627D01*
X0082477Y0355474D01*
X0082463Y0355321D01*
X0082445Y0355169D01*
X0082424Y0355018D01*
X0082398Y0354867D01*
X0082368Y0354716D01*
X0082335Y0354567D01*
X0082297Y0354418D01*
X0082256Y0354271D01*
X0082211Y0354124D01*
X0082162Y0353979D01*
X0082110Y0353835D01*
X0082053Y0353693D01*
X0081993Y0353552D01*
X0081930Y0353413D01*
X0081862Y0353275D01*
X0081792Y0353139D01*
X0081717Y0353005D01*
X0081640Y0352873D01*
X0081558Y0352743D01*
X0081474Y0352615D01*
X0081386Y0352490D01*
X0081295Y0352367D01*
X0081201Y0352246D01*
X0081104Y0352128D01*
X0081003Y0352012D01*
X0080900Y0351899D01*
X0080794Y0351788D01*
X0080685Y0351681D01*
X0080573Y0351576D01*
X0080459Y0351474D01*
X0080342Y0351375D01*
X0080222Y0351280D01*
X0080100Y0351187D01*
X0079976Y0351098D01*
X0079849Y0351011D01*
X0079720Y0350929D01*
X0079589Y0350849D01*
X0079456Y0350773D01*
X0079321Y0350701D01*
X0079184Y0350632D01*
X0079046Y0350566D01*
X0078906Y0350504D01*
X0078764Y0350446D01*
X0078621Y0350392D01*
X0078476Y0350341D01*
X0078331Y0350294D01*
X0078184Y0350251D01*
X0078036Y0350212D01*
X0077887Y0350176D01*
X0077737Y0350145D01*
X0077586Y0350117D01*
X0077435Y0350093D01*
X0077283Y0350073D01*
X0077130Y0350057D01*
X0076978Y0350045D01*
X0076825Y0350037D01*
X0076672Y0350033D01*
X0076518Y0350033D01*
X0076365Y0350037D01*
X0076212Y0350045D01*
X0076060Y0350057D01*
X0075907Y0350073D01*
X0075755Y0350093D01*
X0075604Y0350117D01*
X0075453Y0350145D01*
X0075303Y0350176D01*
X0075154Y0350212D01*
X0075006Y0350251D01*
X0074859Y0350294D01*
X0074714Y0350341D01*
X0074569Y0350392D01*
X0074426Y0350446D01*
X0074284Y0350504D01*
X0074144Y0350566D01*
X0074006Y0350632D01*
X0073869Y0350701D01*
X0073734Y0350773D01*
X0073601Y0350849D01*
X0073470Y0350929D01*
X0073341Y0351011D01*
X0073214Y0351098D01*
X0073090Y0351187D01*
X0072968Y0351280D01*
X0072848Y0351375D01*
X0072731Y0351474D01*
X0072617Y0351576D01*
X0072505Y0351681D01*
X0072396Y0351788D01*
X0072290Y0351899D01*
X0072187Y0352012D01*
X0072086Y0352128D01*
X0071989Y0352246D01*
X0071895Y0352367D01*
X0071804Y0352490D01*
X0071716Y0352615D01*
X0071632Y0352743D01*
X0071550Y0352873D01*
X0071473Y0353005D01*
X0071398Y0353139D01*
X0071328Y0353275D01*
X0071260Y0353413D01*
X0071197Y0353552D01*
X0071137Y0353693D01*
X0071080Y0353835D01*
X0071028Y0353979D01*
X0070979Y0354124D01*
X0070934Y0354271D01*
X0070893Y0354418D01*
X0070855Y0354567D01*
X0070822Y0354716D01*
X0070792Y0354867D01*
X0070766Y0355018D01*
X0070745Y0355169D01*
X0070727Y0355321D01*
X0070713Y0355474D01*
X0070703Y0355627D01*
X0070697Y0355780D01*
X0070695Y0355933D01*
M02*
