G75*
%MOIN*%
%OFA0B0*%
%FSLAX25Y25*%
%IPPOS*%
%LPD*%
%AMOC8*
5,1,8,0,0,1.08239X$1,22.5*
%
%ADD10C,0.07400*%
%ADD11R,0.08000X0.08000*%
%ADD12C,0.08000*%
%ADD13C,0.01600*%
%ADD14C,0.03000*%
%ADD15C,0.02400*%
%ADD16C,0.02778*%
%ADD17C,0.01200*%
D10*
X0299595Y0114933D03*
X0299595Y0124933D03*
X0299595Y0134933D03*
X0299595Y0144933D03*
X0299595Y0154933D03*
X0299595Y0164933D03*
X0299595Y0174933D03*
X0299595Y0184933D03*
X0299595Y0194933D03*
X0299595Y0204933D03*
X0299595Y0214933D03*
X0299595Y0224933D03*
X0299595Y0234933D03*
X0299595Y0244933D03*
X0299595Y0254933D03*
X0299595Y0264933D03*
X0299595Y0274933D03*
X0299595Y0284933D03*
X0297095Y0337933D03*
X0297095Y0347933D03*
X0297095Y0357933D03*
D11*
X0336595Y0354933D03*
D12*
X0356280Y0354933D03*
D13*
X0050895Y0369633D02*
X0050895Y0050233D01*
X0375295Y0050233D01*
X0375295Y0369633D01*
X0050895Y0369633D01*
X0050895Y0369234D02*
X0375295Y0369234D01*
X0375295Y0367635D02*
X0050895Y0367635D01*
X0050895Y0366037D02*
X0375295Y0366037D01*
X0375295Y0364438D02*
X0050895Y0364438D01*
X0050895Y0362840D02*
X0071905Y0362840D01*
X0071950Y0362885D02*
X0069644Y0360578D01*
X0068395Y0357564D01*
X0068395Y0354302D01*
X0069644Y0351288D01*
X0071950Y0348981D01*
X0074964Y0347733D01*
X0078226Y0347733D01*
X0081240Y0348981D01*
X0083547Y0351288D01*
X0084795Y0354302D01*
X0084795Y0357564D01*
X0083547Y0360578D01*
X0081240Y0362885D01*
X0078226Y0364133D01*
X0074964Y0364133D01*
X0071950Y0362885D01*
X0070307Y0361241D02*
X0050895Y0361241D01*
X0050895Y0359643D02*
X0069256Y0359643D01*
X0068594Y0358044D02*
X0050895Y0358044D01*
X0050895Y0356446D02*
X0068395Y0356446D01*
X0068395Y0354847D02*
X0050895Y0354847D01*
X0050895Y0353249D02*
X0068831Y0353249D01*
X0069494Y0351650D02*
X0050895Y0351650D01*
X0050895Y0350052D02*
X0070880Y0350052D01*
X0073226Y0348453D02*
X0050895Y0348453D01*
X0050895Y0346855D02*
X0292022Y0346855D01*
X0291995Y0346919D02*
X0292772Y0345044D01*
X0294206Y0343609D01*
X0295839Y0342933D01*
X0294206Y0342257D01*
X0292772Y0340822D01*
X0291995Y0338948D01*
X0291995Y0336919D01*
X0292772Y0335044D01*
X0294206Y0333609D01*
X0296081Y0332833D01*
X0298110Y0332833D01*
X0299984Y0333609D01*
X0301419Y0335044D01*
X0302195Y0336919D01*
X0302195Y0338948D01*
X0301419Y0340822D01*
X0299984Y0342257D01*
X0298351Y0342933D01*
X0299984Y0343609D01*
X0301419Y0345044D01*
X0301538Y0345333D01*
X0310518Y0345333D01*
X0322995Y0332856D01*
X0322995Y0204944D01*
X0322806Y0204488D01*
X0322806Y0203378D01*
X0323231Y0202353D01*
X0323544Y0202040D01*
X0323231Y0201727D01*
X0322806Y0200702D01*
X0322806Y0199592D01*
X0322995Y0199136D01*
X0322995Y0198416D01*
X0323391Y0197460D01*
X0325042Y0195809D01*
X0325231Y0195353D01*
X0326015Y0194569D01*
X0327040Y0194144D01*
X0328150Y0194144D01*
X0329175Y0194569D01*
X0329960Y0195353D01*
X0330384Y0196378D01*
X0330384Y0197488D01*
X0329960Y0198513D01*
X0329175Y0199297D01*
X0328719Y0199486D01*
X0328384Y0199821D01*
X0328384Y0200702D01*
X0327960Y0201727D01*
X0327646Y0202040D01*
X0327960Y0202353D01*
X0328384Y0203378D01*
X0328384Y0204488D01*
X0328195Y0204944D01*
X0328195Y0334450D01*
X0327799Y0335406D01*
X0327068Y0336137D01*
X0313799Y0349406D01*
X0313068Y0350137D01*
X0312112Y0350533D01*
X0301538Y0350533D01*
X0301419Y0350822D01*
X0299984Y0352257D01*
X0298351Y0352933D01*
X0299984Y0353609D01*
X0301419Y0355044D01*
X0302195Y0356919D01*
X0302195Y0358948D01*
X0301419Y0360822D01*
X0299984Y0362257D01*
X0298110Y0363033D01*
X0296081Y0363033D01*
X0294206Y0362257D01*
X0292772Y0360822D01*
X0291995Y0358948D01*
X0291995Y0356919D01*
X0292772Y0355044D01*
X0294206Y0353609D01*
X0295839Y0352933D01*
X0294206Y0352257D01*
X0292772Y0350822D01*
X0291995Y0348948D01*
X0291995Y0346919D01*
X0291995Y0348453D02*
X0244965Y0348453D01*
X0246240Y0348981D02*
X0248547Y0351288D01*
X0249795Y0354302D01*
X0249795Y0357564D01*
X0248547Y0360578D01*
X0246240Y0362885D01*
X0243226Y0364133D01*
X0239964Y0364133D01*
X0236950Y0362885D01*
X0234644Y0360578D01*
X0233395Y0357564D01*
X0233395Y0354302D01*
X0234644Y0351288D01*
X0236950Y0348981D01*
X0239964Y0347733D01*
X0243226Y0347733D01*
X0246240Y0348981D01*
X0247310Y0350052D02*
X0292453Y0350052D01*
X0293600Y0351650D02*
X0248697Y0351650D01*
X0249359Y0353249D02*
X0295077Y0353249D01*
X0292968Y0354847D02*
X0249795Y0354847D01*
X0249795Y0356446D02*
X0292191Y0356446D01*
X0291995Y0358044D02*
X0249596Y0358044D01*
X0248934Y0359643D02*
X0292283Y0359643D01*
X0293191Y0361241D02*
X0247883Y0361241D01*
X0246285Y0362840D02*
X0295614Y0362840D01*
X0298576Y0362840D02*
X0375295Y0362840D01*
X0375295Y0361241D02*
X0300999Y0361241D01*
X0301907Y0359643D02*
X0331325Y0359643D01*
X0331195Y0359513D02*
X0331195Y0350353D01*
X0332015Y0349533D01*
X0341175Y0349533D01*
X0341995Y0350353D01*
X0341995Y0359513D01*
X0341175Y0360333D01*
X0332015Y0360333D01*
X0331195Y0359513D01*
X0331195Y0358044D02*
X0302195Y0358044D01*
X0301999Y0356446D02*
X0331195Y0356446D01*
X0331195Y0354847D02*
X0301222Y0354847D01*
X0299113Y0353249D02*
X0331195Y0353249D01*
X0331195Y0351650D02*
X0300590Y0351650D01*
X0301507Y0345256D02*
X0310595Y0345256D01*
X0312194Y0343658D02*
X0300032Y0343658D01*
X0300182Y0342059D02*
X0313792Y0342059D01*
X0315391Y0340461D02*
X0301568Y0340461D01*
X0302195Y0338862D02*
X0316989Y0338862D01*
X0318588Y0337264D02*
X0302195Y0337264D01*
X0301676Y0335665D02*
X0320186Y0335665D01*
X0321785Y0334067D02*
X0300441Y0334067D01*
X0293749Y0334067D02*
X0050895Y0334067D01*
X0050895Y0335665D02*
X0292514Y0335665D01*
X0291995Y0337264D02*
X0050895Y0337264D01*
X0050895Y0338862D02*
X0291995Y0338862D01*
X0292622Y0340461D02*
X0050895Y0340461D01*
X0050895Y0342059D02*
X0294009Y0342059D01*
X0294158Y0343658D02*
X0050895Y0343658D01*
X0050895Y0345256D02*
X0292684Y0345256D01*
X0313153Y0350052D02*
X0331497Y0350052D01*
X0341694Y0350052D02*
X0353131Y0350052D01*
X0353240Y0349972D02*
X0354054Y0349558D01*
X0354922Y0349276D01*
X0355801Y0349137D01*
X0355801Y0354453D01*
X0356760Y0354453D01*
X0356760Y0349137D01*
X0357638Y0349276D01*
X0358507Y0349558D01*
X0359320Y0349972D01*
X0360059Y0350509D01*
X0360704Y0351155D01*
X0361241Y0351893D01*
X0361655Y0352707D01*
X0361937Y0353575D01*
X0362077Y0354454D01*
X0356760Y0354454D01*
X0356760Y0355413D01*
X0355801Y0355413D01*
X0355801Y0360729D01*
X0354922Y0360590D01*
X0354054Y0360308D01*
X0353240Y0359894D01*
X0352502Y0359357D01*
X0351856Y0358712D01*
X0351320Y0357973D01*
X0350905Y0357159D01*
X0350623Y0356291D01*
X0350484Y0355413D01*
X0355801Y0355413D01*
X0355801Y0354454D01*
X0350484Y0354454D01*
X0350623Y0353575D01*
X0350905Y0352707D01*
X0351320Y0351893D01*
X0351856Y0351155D01*
X0352502Y0350509D01*
X0353240Y0349972D01*
X0351496Y0351650D02*
X0341995Y0351650D01*
X0341995Y0353249D02*
X0350729Y0353249D01*
X0350673Y0356446D02*
X0341995Y0356446D01*
X0341995Y0358044D02*
X0351371Y0358044D01*
X0352895Y0359643D02*
X0341865Y0359643D01*
X0341995Y0354847D02*
X0355801Y0354847D01*
X0356760Y0354847D02*
X0375295Y0354847D01*
X0375295Y0353249D02*
X0361831Y0353249D01*
X0361064Y0351650D02*
X0375295Y0351650D01*
X0375295Y0350052D02*
X0359429Y0350052D01*
X0356760Y0350052D02*
X0355801Y0350052D01*
X0355801Y0351650D02*
X0356760Y0351650D01*
X0356760Y0353249D02*
X0355801Y0353249D01*
X0356760Y0355413D02*
X0362077Y0355413D01*
X0361937Y0356291D01*
X0361655Y0357159D01*
X0361241Y0357973D01*
X0360704Y0358712D01*
X0360059Y0359357D01*
X0359320Y0359894D01*
X0358507Y0360308D01*
X0357638Y0360590D01*
X0356760Y0360729D01*
X0356760Y0355413D01*
X0356760Y0356446D02*
X0355801Y0356446D01*
X0355801Y0358044D02*
X0356760Y0358044D01*
X0356760Y0359643D02*
X0355801Y0359643D01*
X0359665Y0359643D02*
X0375295Y0359643D01*
X0375295Y0358044D02*
X0361189Y0358044D01*
X0361887Y0356446D02*
X0375295Y0356446D01*
X0375295Y0348453D02*
X0314752Y0348453D01*
X0313799Y0349406D02*
X0313799Y0349406D01*
X0316350Y0346855D02*
X0375295Y0346855D01*
X0375295Y0345256D02*
X0317949Y0345256D01*
X0319547Y0343658D02*
X0375295Y0343658D01*
X0375295Y0342059D02*
X0321146Y0342059D01*
X0322744Y0340461D02*
X0375295Y0340461D01*
X0375295Y0338862D02*
X0324343Y0338862D01*
X0325942Y0337264D02*
X0375295Y0337264D01*
X0375295Y0335665D02*
X0327540Y0335665D01*
X0327068Y0336137D02*
X0327068Y0336137D01*
X0328195Y0334067D02*
X0375295Y0334067D01*
X0375295Y0332468D02*
X0328195Y0332468D01*
X0328195Y0330870D02*
X0375295Y0330870D01*
X0375295Y0329271D02*
X0328195Y0329271D01*
X0328195Y0327673D02*
X0375295Y0327673D01*
X0375295Y0326074D02*
X0328195Y0326074D01*
X0328195Y0324476D02*
X0375295Y0324476D01*
X0375295Y0322877D02*
X0328195Y0322877D01*
X0328195Y0321279D02*
X0375295Y0321279D01*
X0375295Y0319680D02*
X0328195Y0319680D01*
X0328195Y0318081D02*
X0375295Y0318081D01*
X0375295Y0316483D02*
X0328195Y0316483D01*
X0328195Y0314884D02*
X0375295Y0314884D01*
X0375295Y0313286D02*
X0328195Y0313286D01*
X0328195Y0311687D02*
X0375295Y0311687D01*
X0375295Y0310089D02*
X0328195Y0310089D01*
X0328195Y0308490D02*
X0375295Y0308490D01*
X0375295Y0306892D02*
X0328195Y0306892D01*
X0328195Y0305293D02*
X0375295Y0305293D01*
X0375295Y0303695D02*
X0328195Y0303695D01*
X0328195Y0302096D02*
X0375295Y0302096D01*
X0375295Y0300498D02*
X0328195Y0300498D01*
X0328195Y0298899D02*
X0375295Y0298899D01*
X0375295Y0297301D02*
X0328195Y0297301D01*
X0328195Y0295702D02*
X0375295Y0295702D01*
X0375295Y0294104D02*
X0328195Y0294104D01*
X0328195Y0292505D02*
X0375295Y0292505D01*
X0375295Y0290907D02*
X0328195Y0290907D01*
X0328195Y0289308D02*
X0375295Y0289308D01*
X0375295Y0287710D02*
X0328195Y0287710D01*
X0328195Y0286111D02*
X0375295Y0286111D01*
X0375295Y0284513D02*
X0328195Y0284513D01*
X0328195Y0282914D02*
X0375295Y0282914D01*
X0375295Y0281316D02*
X0328195Y0281316D01*
X0328195Y0279717D02*
X0375295Y0279717D01*
X0375295Y0278119D02*
X0328195Y0278119D01*
X0328195Y0276520D02*
X0375295Y0276520D01*
X0375295Y0274922D02*
X0328195Y0274922D01*
X0328195Y0273323D02*
X0375295Y0273323D01*
X0375295Y0271725D02*
X0328195Y0271725D01*
X0328195Y0270126D02*
X0375295Y0270126D01*
X0375295Y0268528D02*
X0328195Y0268528D01*
X0328195Y0266929D02*
X0375295Y0266929D01*
X0375295Y0265331D02*
X0328195Y0265331D01*
X0328195Y0263732D02*
X0375295Y0263732D01*
X0375295Y0262134D02*
X0328195Y0262134D01*
X0328195Y0260535D02*
X0375295Y0260535D01*
X0375295Y0258937D02*
X0328195Y0258937D01*
X0328195Y0257338D02*
X0375295Y0257338D01*
X0375295Y0255740D02*
X0328195Y0255740D01*
X0328195Y0254141D02*
X0375295Y0254141D01*
X0375295Y0252543D02*
X0328195Y0252543D01*
X0328195Y0250944D02*
X0375295Y0250944D01*
X0375295Y0249345D02*
X0328195Y0249345D01*
X0328195Y0247747D02*
X0375295Y0247747D01*
X0375295Y0246148D02*
X0328195Y0246148D01*
X0328195Y0244550D02*
X0375295Y0244550D01*
X0375295Y0242951D02*
X0328195Y0242951D01*
X0328195Y0241353D02*
X0375295Y0241353D01*
X0375295Y0239754D02*
X0328195Y0239754D01*
X0328195Y0238156D02*
X0375295Y0238156D01*
X0375295Y0236557D02*
X0328195Y0236557D01*
X0328195Y0234959D02*
X0375295Y0234959D01*
X0375295Y0233360D02*
X0328195Y0233360D01*
X0328195Y0231762D02*
X0375295Y0231762D01*
X0375295Y0230163D02*
X0328195Y0230163D01*
X0328195Y0228565D02*
X0375295Y0228565D01*
X0375295Y0226966D02*
X0328195Y0226966D01*
X0328195Y0225368D02*
X0375295Y0225368D01*
X0375295Y0223769D02*
X0328195Y0223769D01*
X0328195Y0222171D02*
X0375295Y0222171D01*
X0375295Y0220572D02*
X0328195Y0220572D01*
X0328195Y0218974D02*
X0375295Y0218974D01*
X0375295Y0217375D02*
X0328195Y0217375D01*
X0328195Y0215777D02*
X0375295Y0215777D01*
X0375295Y0214178D02*
X0328195Y0214178D01*
X0328195Y0212580D02*
X0375295Y0212580D01*
X0375295Y0210981D02*
X0328195Y0210981D01*
X0328195Y0209383D02*
X0375295Y0209383D01*
X0375295Y0207784D02*
X0328195Y0207784D01*
X0328195Y0206186D02*
X0375295Y0206186D01*
X0375295Y0204587D02*
X0328343Y0204587D01*
X0328223Y0202989D02*
X0375295Y0202989D01*
X0375295Y0201390D02*
X0328099Y0201390D01*
X0328413Y0199792D02*
X0375295Y0199792D01*
X0375295Y0198193D02*
X0330092Y0198193D01*
X0330384Y0196595D02*
X0375295Y0196595D01*
X0375295Y0194996D02*
X0329602Y0194996D01*
X0325588Y0194996D02*
X0320595Y0194996D01*
X0320595Y0193398D02*
X0375295Y0193398D01*
X0375295Y0191799D02*
X0320595Y0191799D01*
X0320595Y0190201D02*
X0375295Y0190201D01*
X0375295Y0188602D02*
X0320595Y0188602D01*
X0320595Y0187004D02*
X0375295Y0187004D01*
X0375295Y0185405D02*
X0320595Y0185405D01*
X0320595Y0183807D02*
X0375295Y0183807D01*
X0375295Y0182208D02*
X0320595Y0182208D01*
X0320595Y0180610D02*
X0375295Y0180610D01*
X0375295Y0179011D02*
X0320595Y0179011D01*
X0320595Y0177412D02*
X0375295Y0177412D01*
X0375295Y0175814D02*
X0320595Y0175814D01*
X0320595Y0174215D02*
X0375295Y0174215D01*
X0375295Y0172617D02*
X0320595Y0172617D01*
X0320595Y0171018D02*
X0375295Y0171018D01*
X0375295Y0169420D02*
X0320595Y0169420D01*
X0320595Y0167821D02*
X0375295Y0167821D01*
X0375295Y0166223D02*
X0320595Y0166223D01*
X0320595Y0164624D02*
X0375295Y0164624D01*
X0375295Y0163026D02*
X0320595Y0163026D01*
X0320595Y0161427D02*
X0375295Y0161427D01*
X0375295Y0159829D02*
X0320595Y0159829D01*
X0320595Y0158230D02*
X0375295Y0158230D01*
X0375295Y0156632D02*
X0320595Y0156632D01*
X0320595Y0155033D02*
X0375295Y0155033D01*
X0375295Y0153435D02*
X0320595Y0153435D01*
X0320595Y0151836D02*
X0375295Y0151836D01*
X0375295Y0150238D02*
X0320595Y0150238D01*
X0320595Y0148639D02*
X0375295Y0148639D01*
X0375295Y0147041D02*
X0320595Y0147041D01*
X0320595Y0145442D02*
X0375295Y0145442D01*
X0375295Y0143844D02*
X0320595Y0143844D01*
X0320595Y0142245D02*
X0375295Y0142245D01*
X0375295Y0140647D02*
X0320595Y0140647D01*
X0320595Y0139048D02*
X0375295Y0139048D01*
X0375295Y0137450D02*
X0320595Y0137450D01*
X0320595Y0135851D02*
X0375295Y0135851D01*
X0375295Y0134253D02*
X0320595Y0134253D01*
X0320595Y0132654D02*
X0375295Y0132654D01*
X0375295Y0131056D02*
X0320595Y0131056D01*
X0320595Y0129605D02*
X0320595Y0234489D01*
X0320960Y0234853D01*
X0321384Y0235878D01*
X0321384Y0236988D01*
X0320960Y0238013D01*
X0320175Y0238797D01*
X0319150Y0239222D01*
X0318040Y0239222D01*
X0317015Y0238797D01*
X0316231Y0238013D01*
X0315806Y0236988D01*
X0315806Y0235878D01*
X0316231Y0234853D01*
X0316595Y0234489D01*
X0316595Y0131261D01*
X0312267Y0126933D01*
X0304287Y0126933D01*
X0303919Y0127822D01*
X0302484Y0129257D01*
X0301358Y0129723D01*
X0301706Y0129836D01*
X0302478Y0130229D01*
X0303178Y0130738D01*
X0303790Y0131350D01*
X0304299Y0132050D01*
X0304692Y0132822D01*
X0304960Y0133645D01*
X0305095Y0134500D01*
X0305095Y0134733D01*
X0299795Y0134733D01*
X0299795Y0135133D01*
X0305095Y0135133D01*
X0305095Y0135366D01*
X0304960Y0136221D01*
X0304692Y0137044D01*
X0304299Y0137816D01*
X0303790Y0138516D01*
X0303178Y0139128D01*
X0302478Y0139637D01*
X0301706Y0140030D01*
X0301358Y0140143D01*
X0302484Y0140609D01*
X0303919Y0142044D01*
X0304695Y0143919D01*
X0304695Y0145948D01*
X0303919Y0147822D01*
X0302484Y0149257D01*
X0301358Y0149723D01*
X0301706Y0149836D01*
X0302478Y0150229D01*
X0303178Y0150738D01*
X0303790Y0151350D01*
X0304299Y0152050D01*
X0304692Y0152822D01*
X0304960Y0153645D01*
X0305095Y0154500D01*
X0305095Y0154733D01*
X0299795Y0154733D01*
X0299795Y0155133D01*
X0305095Y0155133D01*
X0305095Y0155366D01*
X0304960Y0156221D01*
X0304692Y0157044D01*
X0304299Y0157816D01*
X0303790Y0158516D01*
X0303178Y0159128D01*
X0302478Y0159637D01*
X0301706Y0160030D01*
X0301358Y0160143D01*
X0302484Y0160609D01*
X0303919Y0162044D01*
X0304695Y0163919D01*
X0304695Y0165948D01*
X0303919Y0167822D01*
X0302484Y0169257D01*
X0301358Y0169723D01*
X0301706Y0169836D01*
X0302478Y0170229D01*
X0303178Y0170738D01*
X0303790Y0171350D01*
X0304299Y0172050D01*
X0304692Y0172822D01*
X0304960Y0173645D01*
X0305095Y0174500D01*
X0305095Y0174733D01*
X0299795Y0174733D01*
X0299795Y0175133D01*
X0305095Y0175133D01*
X0305095Y0175366D01*
X0304960Y0176221D01*
X0304692Y0177044D01*
X0304299Y0177816D01*
X0303790Y0178516D01*
X0303178Y0179128D01*
X0302478Y0179637D01*
X0301706Y0180030D01*
X0301358Y0180143D01*
X0302484Y0180609D01*
X0303919Y0182044D01*
X0304695Y0183919D01*
X0304695Y0185948D01*
X0303919Y0187822D01*
X0302484Y0189257D01*
X0301358Y0189723D01*
X0301706Y0189836D01*
X0302478Y0190229D01*
X0303178Y0190738D01*
X0303790Y0191350D01*
X0304299Y0192050D01*
X0304692Y0192822D01*
X0304960Y0193645D01*
X0305095Y0194500D01*
X0305095Y0194733D01*
X0299795Y0194733D01*
X0299795Y0195133D01*
X0305095Y0195133D01*
X0305095Y0195366D01*
X0304960Y0196221D01*
X0304692Y0197044D01*
X0304299Y0197816D01*
X0303790Y0198516D01*
X0303178Y0199128D01*
X0302478Y0199637D01*
X0301706Y0200030D01*
X0301358Y0200143D01*
X0302484Y0200609D01*
X0303919Y0202044D01*
X0304695Y0203919D01*
X0304695Y0205948D01*
X0303919Y0207822D01*
X0302484Y0209257D01*
X0301358Y0209723D01*
X0301706Y0209836D01*
X0302478Y0210229D01*
X0303178Y0210738D01*
X0303790Y0211350D01*
X0304299Y0212050D01*
X0304692Y0212822D01*
X0304960Y0213645D01*
X0305095Y0214500D01*
X0305095Y0214733D01*
X0299795Y0214733D01*
X0299795Y0215133D01*
X0305095Y0215133D01*
X0305095Y0215366D01*
X0304960Y0216221D01*
X0304692Y0217044D01*
X0304299Y0217816D01*
X0303790Y0218516D01*
X0303178Y0219128D01*
X0302478Y0219637D01*
X0301706Y0220030D01*
X0301358Y0220143D01*
X0302484Y0220609D01*
X0303919Y0222044D01*
X0304695Y0223919D01*
X0304695Y0225948D01*
X0303919Y0227822D01*
X0302484Y0229257D01*
X0301358Y0229723D01*
X0301706Y0229836D01*
X0302478Y0230229D01*
X0303178Y0230738D01*
X0303790Y0231350D01*
X0304299Y0232050D01*
X0304692Y0232822D01*
X0304960Y0233645D01*
X0305095Y0234500D01*
X0305095Y0234733D01*
X0299795Y0234733D01*
X0299795Y0235133D01*
X0305095Y0235133D01*
X0305095Y0235366D01*
X0304960Y0236221D01*
X0304692Y0237044D01*
X0304299Y0237816D01*
X0303790Y0238516D01*
X0303178Y0239128D01*
X0302478Y0239637D01*
X0301706Y0240030D01*
X0301358Y0240143D01*
X0302484Y0240609D01*
X0303919Y0242044D01*
X0304695Y0243919D01*
X0304695Y0245948D01*
X0303919Y0247822D01*
X0302484Y0249257D01*
X0301358Y0249723D01*
X0301706Y0249836D01*
X0302478Y0250229D01*
X0303178Y0250738D01*
X0303790Y0251350D01*
X0304299Y0252050D01*
X0304692Y0252822D01*
X0304960Y0253645D01*
X0305095Y0254500D01*
X0305095Y0254733D01*
X0299795Y0254733D01*
X0299795Y0255133D01*
X0305095Y0255133D01*
X0305095Y0255366D01*
X0304960Y0256221D01*
X0304692Y0257044D01*
X0304299Y0257816D01*
X0303790Y0258516D01*
X0303178Y0259128D01*
X0302478Y0259637D01*
X0301706Y0260030D01*
X0301358Y0260143D01*
X0302484Y0260609D01*
X0303919Y0262044D01*
X0304695Y0263919D01*
X0304695Y0265948D01*
X0303919Y0267822D01*
X0302484Y0269257D01*
X0301358Y0269723D01*
X0301706Y0269836D01*
X0302478Y0270229D01*
X0303178Y0270738D01*
X0303790Y0271350D01*
X0304299Y0272050D01*
X0304692Y0272822D01*
X0304960Y0273645D01*
X0305095Y0274500D01*
X0305095Y0274733D01*
X0299795Y0274733D01*
X0299795Y0275133D01*
X0305095Y0275133D01*
X0305095Y0275366D01*
X0304960Y0276221D01*
X0304692Y0277044D01*
X0304299Y0277816D01*
X0303790Y0278516D01*
X0303178Y0279128D01*
X0302478Y0279637D01*
X0301706Y0280030D01*
X0301358Y0280143D01*
X0302484Y0280609D01*
X0303919Y0282044D01*
X0304695Y0283919D01*
X0304695Y0285948D01*
X0303919Y0287822D01*
X0302484Y0289257D01*
X0300610Y0290033D01*
X0298581Y0290033D01*
X0296706Y0289257D01*
X0295272Y0287822D01*
X0294495Y0285948D01*
X0294495Y0283919D01*
X0295272Y0282044D01*
X0296706Y0280609D01*
X0297832Y0280143D01*
X0297484Y0280030D01*
X0296713Y0279637D01*
X0296012Y0279128D01*
X0295400Y0278516D01*
X0294891Y0277816D01*
X0294498Y0277044D01*
X0294231Y0276221D01*
X0294095Y0275366D01*
X0294095Y0275133D01*
X0299395Y0275133D01*
X0299395Y0274733D01*
X0294095Y0274733D01*
X0294095Y0274500D01*
X0294231Y0273645D01*
X0294498Y0272822D01*
X0294891Y0272050D01*
X0295400Y0271350D01*
X0296012Y0270738D01*
X0296713Y0270229D01*
X0297484Y0269836D01*
X0297832Y0269723D01*
X0296706Y0269257D01*
X0295272Y0267822D01*
X0294495Y0265948D01*
X0294495Y0263919D01*
X0295272Y0262044D01*
X0296706Y0260609D01*
X0297832Y0260143D01*
X0297484Y0260030D01*
X0296713Y0259637D01*
X0296012Y0259128D01*
X0295400Y0258516D01*
X0294891Y0257816D01*
X0294498Y0257044D01*
X0294231Y0256221D01*
X0294095Y0255366D01*
X0294095Y0255133D01*
X0299395Y0255133D01*
X0299395Y0254733D01*
X0294095Y0254733D01*
X0294095Y0254500D01*
X0294231Y0253645D01*
X0294498Y0252822D01*
X0294891Y0252050D01*
X0295400Y0251350D01*
X0296012Y0250738D01*
X0296713Y0250229D01*
X0297484Y0249836D01*
X0297832Y0249723D01*
X0296706Y0249257D01*
X0295272Y0247822D01*
X0294495Y0245948D01*
X0294495Y0243919D01*
X0295272Y0242044D01*
X0296706Y0240609D01*
X0297832Y0240143D01*
X0297484Y0240030D01*
X0296713Y0239637D01*
X0296012Y0239128D01*
X0295400Y0238516D01*
X0294891Y0237816D01*
X0294498Y0237044D01*
X0294231Y0236221D01*
X0294095Y0235366D01*
X0294095Y0235133D01*
X0299395Y0235133D01*
X0299395Y0234733D01*
X0294095Y0234733D01*
X0294095Y0234500D01*
X0294231Y0233645D01*
X0294498Y0232822D01*
X0294891Y0232050D01*
X0295400Y0231350D01*
X0296012Y0230738D01*
X0296713Y0230229D01*
X0297484Y0229836D01*
X0297832Y0229723D01*
X0296706Y0229257D01*
X0295272Y0227822D01*
X0294495Y0225948D01*
X0294495Y0223919D01*
X0295272Y0222044D01*
X0296706Y0220609D01*
X0297832Y0220143D01*
X0297484Y0220030D01*
X0296713Y0219637D01*
X0296012Y0219128D01*
X0295400Y0218516D01*
X0294891Y0217816D01*
X0294498Y0217044D01*
X0294231Y0216221D01*
X0294095Y0215366D01*
X0294095Y0215133D01*
X0299395Y0215133D01*
X0299395Y0214733D01*
X0294095Y0214733D01*
X0294095Y0214500D01*
X0294231Y0213645D01*
X0294498Y0212822D01*
X0294891Y0212050D01*
X0295400Y0211350D01*
X0296012Y0210738D01*
X0296713Y0210229D01*
X0297484Y0209836D01*
X0297832Y0209723D01*
X0296706Y0209257D01*
X0295272Y0207822D01*
X0294495Y0205948D01*
X0294495Y0203919D01*
X0295272Y0202044D01*
X0296706Y0200609D01*
X0297832Y0200143D01*
X0297484Y0200030D01*
X0296713Y0199637D01*
X0296012Y0199128D01*
X0295400Y0198516D01*
X0294891Y0197816D01*
X0294498Y0197044D01*
X0294231Y0196221D01*
X0294095Y0195366D01*
X0294095Y0195133D01*
X0299395Y0195133D01*
X0299395Y0194733D01*
X0294095Y0194733D01*
X0294095Y0194500D01*
X0294231Y0193645D01*
X0294498Y0192822D01*
X0294891Y0192050D01*
X0295400Y0191350D01*
X0296012Y0190738D01*
X0296713Y0190229D01*
X0297484Y0189836D01*
X0297832Y0189723D01*
X0296706Y0189257D01*
X0295272Y0187822D01*
X0294495Y0185948D01*
X0294495Y0183919D01*
X0295272Y0182044D01*
X0296706Y0180609D01*
X0297832Y0180143D01*
X0297484Y0180030D01*
X0296713Y0179637D01*
X0296012Y0179128D01*
X0295400Y0178516D01*
X0294891Y0177816D01*
X0294498Y0177044D01*
X0294231Y0176221D01*
X0294095Y0175366D01*
X0294095Y0175133D01*
X0299395Y0175133D01*
X0299395Y0174733D01*
X0294095Y0174733D01*
X0294095Y0174500D01*
X0294231Y0173645D01*
X0294498Y0172822D01*
X0294891Y0172050D01*
X0295400Y0171350D01*
X0296012Y0170738D01*
X0296713Y0170229D01*
X0297484Y0169836D01*
X0297832Y0169723D01*
X0296706Y0169257D01*
X0295272Y0167822D01*
X0294495Y0165948D01*
X0294495Y0163919D01*
X0295272Y0162044D01*
X0296706Y0160609D01*
X0297832Y0160143D01*
X0297484Y0160030D01*
X0296713Y0159637D01*
X0296012Y0159128D01*
X0295400Y0158516D01*
X0294891Y0157816D01*
X0294498Y0157044D01*
X0294231Y0156221D01*
X0294095Y0155366D01*
X0294095Y0155133D01*
X0299395Y0155133D01*
X0299395Y0154733D01*
X0294095Y0154733D01*
X0294095Y0154500D01*
X0294231Y0153645D01*
X0294498Y0152822D01*
X0294891Y0152050D01*
X0295400Y0151350D01*
X0296012Y0150738D01*
X0296713Y0150229D01*
X0297484Y0149836D01*
X0297832Y0149723D01*
X0296706Y0149257D01*
X0295272Y0147822D01*
X0294495Y0145948D01*
X0294495Y0143919D01*
X0295272Y0142044D01*
X0296706Y0140609D01*
X0297832Y0140143D01*
X0297484Y0140030D01*
X0296713Y0139637D01*
X0296012Y0139128D01*
X0295400Y0138516D01*
X0294891Y0137816D01*
X0294498Y0137044D01*
X0294231Y0136221D01*
X0294095Y0135366D01*
X0294095Y0135133D01*
X0299395Y0135133D01*
X0299395Y0134733D01*
X0294095Y0134733D01*
X0294095Y0134500D01*
X0294231Y0133645D01*
X0294498Y0132822D01*
X0294891Y0132050D01*
X0295400Y0131350D01*
X0296012Y0130738D01*
X0296713Y0130229D01*
X0297484Y0129836D01*
X0297832Y0129723D01*
X0296706Y0129257D01*
X0295272Y0127822D01*
X0294495Y0125948D01*
X0294495Y0123919D01*
X0295272Y0122044D01*
X0296706Y0120609D01*
X0297832Y0120143D01*
X0297484Y0120030D01*
X0296713Y0119637D01*
X0296012Y0119128D01*
X0295400Y0118516D01*
X0294891Y0117816D01*
X0294498Y0117044D01*
X0294231Y0116221D01*
X0294095Y0115366D01*
X0294095Y0115133D01*
X0299395Y0115133D01*
X0299395Y0114733D01*
X0294095Y0114733D01*
X0294095Y0114500D01*
X0294231Y0113645D01*
X0294498Y0112822D01*
X0294891Y0112050D01*
X0295400Y0111350D01*
X0296012Y0110738D01*
X0296713Y0110229D01*
X0297484Y0109836D01*
X0298307Y0109569D01*
X0299162Y0109433D01*
X0299395Y0109433D01*
X0299395Y0114733D01*
X0299795Y0114733D01*
X0299795Y0109433D01*
X0300028Y0109433D01*
X0300883Y0109569D01*
X0301706Y0109836D01*
X0302478Y0110229D01*
X0303178Y0110738D01*
X0303790Y0111350D01*
X0304299Y0112050D01*
X0304692Y0112822D01*
X0304960Y0113645D01*
X0305095Y0114500D01*
X0305095Y0114733D01*
X0299795Y0114733D01*
X0299795Y0115133D01*
X0305095Y0115133D01*
X0305095Y0115366D01*
X0304960Y0116221D01*
X0304692Y0117044D01*
X0304299Y0117816D01*
X0303790Y0118516D01*
X0303178Y0119128D01*
X0302478Y0119637D01*
X0301706Y0120030D01*
X0301358Y0120143D01*
X0302484Y0120609D01*
X0303919Y0122044D01*
X0304287Y0122933D01*
X0313924Y0122933D01*
X0315095Y0124105D01*
X0320595Y0129605D01*
X0320448Y0129457D02*
X0375295Y0129457D01*
X0375295Y0127859D02*
X0318849Y0127859D01*
X0317251Y0126260D02*
X0375295Y0126260D01*
X0375295Y0124662D02*
X0315652Y0124662D01*
X0314054Y0123063D02*
X0375295Y0123063D01*
X0375295Y0121465D02*
X0303339Y0121465D01*
X0302028Y0119866D02*
X0375295Y0119866D01*
X0375295Y0118268D02*
X0303971Y0118268D01*
X0304814Y0116669D02*
X0375295Y0116669D01*
X0375295Y0115071D02*
X0299795Y0115071D01*
X0299395Y0115071D02*
X0050895Y0115071D01*
X0050895Y0116669D02*
X0294376Y0116669D01*
X0295219Y0118268D02*
X0050895Y0118268D01*
X0050895Y0119866D02*
X0297162Y0119866D01*
X0295851Y0121465D02*
X0050895Y0121465D01*
X0050895Y0123063D02*
X0294849Y0123063D01*
X0294495Y0124662D02*
X0050895Y0124662D01*
X0050895Y0126260D02*
X0294625Y0126260D01*
X0295308Y0127859D02*
X0050895Y0127859D01*
X0050895Y0129457D02*
X0297190Y0129457D01*
X0295694Y0131056D02*
X0050895Y0131056D01*
X0050895Y0132654D02*
X0294584Y0132654D01*
X0294134Y0134253D02*
X0050895Y0134253D01*
X0050895Y0135851D02*
X0294172Y0135851D01*
X0294705Y0137450D02*
X0050895Y0137450D01*
X0050895Y0139048D02*
X0295932Y0139048D01*
X0296669Y0140647D02*
X0050895Y0140647D01*
X0050895Y0142245D02*
X0295188Y0142245D01*
X0294526Y0143844D02*
X0050895Y0143844D01*
X0050895Y0145442D02*
X0294495Y0145442D01*
X0294948Y0147041D02*
X0050895Y0147041D01*
X0050895Y0148639D02*
X0296089Y0148639D01*
X0296700Y0150238D02*
X0050895Y0150238D01*
X0050895Y0151836D02*
X0295047Y0151836D01*
X0294299Y0153435D02*
X0050895Y0153435D01*
X0050895Y0155033D02*
X0299395Y0155033D01*
X0299795Y0155033D02*
X0316595Y0155033D01*
X0316595Y0153435D02*
X0304891Y0153435D01*
X0304144Y0151836D02*
X0316595Y0151836D01*
X0316595Y0150238D02*
X0302490Y0150238D01*
X0303101Y0148639D02*
X0316595Y0148639D01*
X0316595Y0147041D02*
X0304242Y0147041D01*
X0304695Y0145442D02*
X0316595Y0145442D01*
X0316595Y0143844D02*
X0304664Y0143844D01*
X0304002Y0142245D02*
X0316595Y0142245D01*
X0316595Y0140647D02*
X0302521Y0140647D01*
X0303258Y0139048D02*
X0316595Y0139048D01*
X0316595Y0137450D02*
X0304486Y0137450D01*
X0305018Y0135851D02*
X0316595Y0135851D01*
X0316595Y0134253D02*
X0305056Y0134253D01*
X0304607Y0132654D02*
X0316595Y0132654D01*
X0316389Y0131056D02*
X0303496Y0131056D01*
X0302000Y0129457D02*
X0314791Y0129457D01*
X0313192Y0127859D02*
X0303882Y0127859D01*
X0304903Y0113472D02*
X0375295Y0113472D01*
X0375295Y0111874D02*
X0304171Y0111874D01*
X0302541Y0110275D02*
X0375295Y0110275D01*
X0375295Y0108677D02*
X0050895Y0108677D01*
X0050895Y0110275D02*
X0296649Y0110275D01*
X0295020Y0111874D02*
X0050895Y0111874D01*
X0050895Y0113472D02*
X0294287Y0113472D01*
X0299395Y0113472D02*
X0299795Y0113472D01*
X0299795Y0111874D02*
X0299395Y0111874D01*
X0299395Y0110275D02*
X0299795Y0110275D01*
X0375295Y0107078D02*
X0050895Y0107078D01*
X0050895Y0105479D02*
X0375295Y0105479D01*
X0375295Y0103881D02*
X0050895Y0103881D01*
X0050895Y0102282D02*
X0375295Y0102282D01*
X0375295Y0100684D02*
X0050895Y0100684D01*
X0050895Y0099085D02*
X0375295Y0099085D01*
X0375295Y0097487D02*
X0050895Y0097487D01*
X0050895Y0095888D02*
X0375295Y0095888D01*
X0375295Y0094290D02*
X0050895Y0094290D01*
X0050895Y0092691D02*
X0375295Y0092691D01*
X0375295Y0091093D02*
X0050895Y0091093D01*
X0050895Y0089494D02*
X0375295Y0089494D01*
X0375295Y0087896D02*
X0050895Y0087896D01*
X0050895Y0086297D02*
X0375295Y0086297D01*
X0375295Y0084699D02*
X0050895Y0084699D01*
X0050895Y0083100D02*
X0375295Y0083100D01*
X0375295Y0081502D02*
X0050895Y0081502D01*
X0050895Y0079903D02*
X0375295Y0079903D01*
X0375295Y0078305D02*
X0050895Y0078305D01*
X0050895Y0076706D02*
X0375295Y0076706D01*
X0375295Y0075108D02*
X0050895Y0075108D01*
X0050895Y0073509D02*
X0375295Y0073509D01*
X0375295Y0071911D02*
X0243763Y0071911D01*
X0243226Y0072133D02*
X0239964Y0072133D01*
X0236950Y0070885D01*
X0234644Y0068578D01*
X0233395Y0065564D01*
X0233395Y0062302D01*
X0234644Y0059288D01*
X0236950Y0056981D01*
X0239964Y0055733D01*
X0243226Y0055733D01*
X0246240Y0056981D01*
X0248547Y0059288D01*
X0249795Y0062302D01*
X0249795Y0065564D01*
X0248547Y0068578D01*
X0246240Y0070885D01*
X0243226Y0072133D01*
X0239427Y0071911D02*
X0078763Y0071911D01*
X0078226Y0072133D02*
X0074964Y0072133D01*
X0071950Y0070885D01*
X0069644Y0068578D01*
X0068395Y0065564D01*
X0068395Y0062302D01*
X0069644Y0059288D01*
X0071950Y0056981D01*
X0074964Y0055733D01*
X0078226Y0055733D01*
X0081240Y0056981D01*
X0083547Y0059288D01*
X0084795Y0062302D01*
X0084795Y0065564D01*
X0083547Y0068578D01*
X0081240Y0070885D01*
X0078226Y0072133D01*
X0074427Y0071911D02*
X0050895Y0071911D01*
X0050895Y0070312D02*
X0071378Y0070312D01*
X0069779Y0068714D02*
X0050895Y0068714D01*
X0050895Y0067115D02*
X0069038Y0067115D01*
X0068395Y0065517D02*
X0050895Y0065517D01*
X0050895Y0063918D02*
X0068395Y0063918D01*
X0068395Y0062320D02*
X0050895Y0062320D01*
X0050895Y0060721D02*
X0069050Y0060721D01*
X0069809Y0059123D02*
X0050895Y0059123D01*
X0050895Y0057524D02*
X0071408Y0057524D01*
X0074499Y0055926D02*
X0050895Y0055926D01*
X0050895Y0054327D02*
X0375295Y0054327D01*
X0375295Y0052729D02*
X0050895Y0052729D01*
X0050895Y0051130D02*
X0375295Y0051130D01*
X0375295Y0055926D02*
X0243691Y0055926D01*
X0246783Y0057524D02*
X0375295Y0057524D01*
X0375295Y0059123D02*
X0248381Y0059123D01*
X0249140Y0060721D02*
X0375295Y0060721D01*
X0375295Y0062320D02*
X0249795Y0062320D01*
X0249795Y0063918D02*
X0375295Y0063918D01*
X0375295Y0065517D02*
X0249795Y0065517D01*
X0249153Y0067115D02*
X0375295Y0067115D01*
X0375295Y0068714D02*
X0248411Y0068714D01*
X0246813Y0070312D02*
X0375295Y0070312D01*
X0239499Y0055926D02*
X0078691Y0055926D01*
X0081783Y0057524D02*
X0236408Y0057524D01*
X0234809Y0059123D02*
X0083381Y0059123D01*
X0084140Y0060721D02*
X0234050Y0060721D01*
X0233395Y0062320D02*
X0084795Y0062320D01*
X0084795Y0063918D02*
X0233395Y0063918D01*
X0233395Y0065517D02*
X0084795Y0065517D01*
X0084153Y0067115D02*
X0234038Y0067115D01*
X0234779Y0068714D02*
X0083411Y0068714D01*
X0081813Y0070312D02*
X0236378Y0070312D01*
X0294364Y0156632D02*
X0050895Y0156632D01*
X0050895Y0158230D02*
X0295192Y0158230D01*
X0297089Y0159829D02*
X0050895Y0159829D01*
X0050895Y0161427D02*
X0295888Y0161427D01*
X0294865Y0163026D02*
X0050895Y0163026D01*
X0050895Y0164624D02*
X0294495Y0164624D01*
X0294609Y0166223D02*
X0050895Y0166223D01*
X0050895Y0167821D02*
X0295271Y0167821D01*
X0297100Y0169420D02*
X0050895Y0169420D01*
X0050895Y0171018D02*
X0295732Y0171018D01*
X0294602Y0172617D02*
X0050895Y0172617D01*
X0050895Y0174215D02*
X0294140Y0174215D01*
X0294166Y0175814D02*
X0050895Y0175814D01*
X0050895Y0177412D02*
X0294686Y0177412D01*
X0295895Y0179011D02*
X0050895Y0179011D01*
X0050895Y0180610D02*
X0296706Y0180610D01*
X0295204Y0182208D02*
X0050895Y0182208D01*
X0050895Y0183807D02*
X0294542Y0183807D01*
X0294495Y0185405D02*
X0050895Y0185405D01*
X0050895Y0187004D02*
X0294933Y0187004D01*
X0296052Y0188602D02*
X0050895Y0188602D01*
X0050895Y0190201D02*
X0296768Y0190201D01*
X0295074Y0191799D02*
X0050895Y0191799D01*
X0050895Y0193398D02*
X0294311Y0193398D01*
X0294352Y0196595D02*
X0050895Y0196595D01*
X0050895Y0198193D02*
X0295165Y0198193D01*
X0297016Y0199792D02*
X0050895Y0199792D01*
X0050895Y0201390D02*
X0295926Y0201390D01*
X0294880Y0202989D02*
X0050895Y0202989D01*
X0050895Y0204587D02*
X0294495Y0204587D01*
X0294594Y0206186D02*
X0050895Y0206186D01*
X0050895Y0207784D02*
X0295256Y0207784D01*
X0297011Y0209383D02*
X0050895Y0209383D01*
X0050895Y0210981D02*
X0295769Y0210981D01*
X0294621Y0212580D02*
X0050895Y0212580D01*
X0050895Y0214178D02*
X0294146Y0214178D01*
X0294160Y0215777D02*
X0050895Y0215777D01*
X0050895Y0217375D02*
X0294667Y0217375D01*
X0295858Y0218974D02*
X0050895Y0218974D01*
X0050895Y0220572D02*
X0296796Y0220572D01*
X0295219Y0222171D02*
X0050895Y0222171D01*
X0050895Y0223769D02*
X0294557Y0223769D01*
X0294495Y0225368D02*
X0050895Y0225368D01*
X0050895Y0226966D02*
X0294917Y0226966D01*
X0296014Y0228565D02*
X0050895Y0228565D01*
X0050895Y0230163D02*
X0296841Y0230163D01*
X0295101Y0231762D02*
X0050895Y0231762D01*
X0050895Y0233360D02*
X0294323Y0233360D01*
X0294340Y0236557D02*
X0050895Y0236557D01*
X0050895Y0234959D02*
X0299395Y0234959D01*
X0299795Y0234959D02*
X0316187Y0234959D01*
X0315806Y0236557D02*
X0304850Y0236557D01*
X0304052Y0238156D02*
X0316374Y0238156D01*
X0320816Y0238156D02*
X0322995Y0238156D01*
X0322995Y0239754D02*
X0302247Y0239754D01*
X0303227Y0241353D02*
X0322995Y0241353D01*
X0322995Y0242951D02*
X0304295Y0242951D01*
X0304695Y0244550D02*
X0322995Y0244550D01*
X0322995Y0246148D02*
X0304612Y0246148D01*
X0303950Y0247747D02*
X0322995Y0247747D01*
X0322995Y0249345D02*
X0302270Y0249345D01*
X0303384Y0250944D02*
X0322995Y0250944D01*
X0322995Y0252543D02*
X0304550Y0252543D01*
X0305038Y0254141D02*
X0322995Y0254141D01*
X0322995Y0255740D02*
X0305036Y0255740D01*
X0304543Y0257338D02*
X0322995Y0257338D01*
X0322995Y0258937D02*
X0303370Y0258937D01*
X0302304Y0260535D02*
X0322995Y0260535D01*
X0322995Y0262134D02*
X0303956Y0262134D01*
X0304618Y0263732D02*
X0322995Y0263732D01*
X0322995Y0265331D02*
X0304695Y0265331D01*
X0304289Y0266929D02*
X0322995Y0266929D01*
X0322995Y0268528D02*
X0303213Y0268528D01*
X0302276Y0270126D02*
X0322995Y0270126D01*
X0322995Y0271725D02*
X0304062Y0271725D01*
X0304855Y0273323D02*
X0322995Y0273323D01*
X0322995Y0274922D02*
X0299795Y0274922D01*
X0299395Y0274922D02*
X0050895Y0274922D01*
X0050895Y0276520D02*
X0294328Y0276520D01*
X0295111Y0278119D02*
X0050895Y0278119D01*
X0050895Y0279717D02*
X0296870Y0279717D01*
X0296000Y0281316D02*
X0050895Y0281316D01*
X0050895Y0282914D02*
X0294911Y0282914D01*
X0294495Y0284513D02*
X0050895Y0284513D01*
X0050895Y0286111D02*
X0294563Y0286111D01*
X0295225Y0287710D02*
X0050895Y0287710D01*
X0050895Y0289308D02*
X0296831Y0289308D01*
X0302359Y0289308D02*
X0322995Y0289308D01*
X0322995Y0287710D02*
X0303965Y0287710D01*
X0304627Y0286111D02*
X0322995Y0286111D01*
X0322995Y0284513D02*
X0304695Y0284513D01*
X0304279Y0282914D02*
X0322995Y0282914D01*
X0322995Y0281316D02*
X0303190Y0281316D01*
X0302321Y0279717D02*
X0322995Y0279717D01*
X0322995Y0278119D02*
X0304079Y0278119D01*
X0304862Y0276520D02*
X0322995Y0276520D01*
X0296914Y0270126D02*
X0050895Y0270126D01*
X0050895Y0268528D02*
X0295977Y0268528D01*
X0294902Y0266929D02*
X0050895Y0266929D01*
X0050895Y0265331D02*
X0294495Y0265331D01*
X0294572Y0263732D02*
X0050895Y0263732D01*
X0050895Y0262134D02*
X0295235Y0262134D01*
X0296886Y0260535D02*
X0050895Y0260535D01*
X0050895Y0258937D02*
X0295820Y0258937D01*
X0294648Y0257338D02*
X0050895Y0257338D01*
X0050895Y0255740D02*
X0294154Y0255740D01*
X0294152Y0254141D02*
X0050895Y0254141D01*
X0050895Y0252543D02*
X0294640Y0252543D01*
X0295806Y0250944D02*
X0050895Y0250944D01*
X0050895Y0249345D02*
X0296921Y0249345D01*
X0295241Y0247747D02*
X0050895Y0247747D01*
X0050895Y0246148D02*
X0294578Y0246148D01*
X0294495Y0244550D02*
X0050895Y0244550D01*
X0050895Y0242951D02*
X0294896Y0242951D01*
X0295963Y0241353D02*
X0050895Y0241353D01*
X0050895Y0239754D02*
X0296943Y0239754D01*
X0295138Y0238156D02*
X0050895Y0238156D01*
X0050895Y0271725D02*
X0295128Y0271725D01*
X0294335Y0273323D02*
X0050895Y0273323D01*
X0050895Y0290907D02*
X0322995Y0290907D01*
X0322995Y0292505D02*
X0050895Y0292505D01*
X0050895Y0294104D02*
X0322995Y0294104D01*
X0322995Y0295702D02*
X0050895Y0295702D01*
X0050895Y0297301D02*
X0322995Y0297301D01*
X0322995Y0298899D02*
X0050895Y0298899D01*
X0050895Y0300498D02*
X0322995Y0300498D01*
X0322995Y0302096D02*
X0050895Y0302096D01*
X0050895Y0303695D02*
X0322995Y0303695D01*
X0322995Y0305293D02*
X0050895Y0305293D01*
X0050895Y0306892D02*
X0322995Y0306892D01*
X0322995Y0308490D02*
X0050895Y0308490D01*
X0050895Y0310089D02*
X0322995Y0310089D01*
X0322995Y0311687D02*
X0050895Y0311687D01*
X0050895Y0313286D02*
X0322995Y0313286D01*
X0322995Y0314884D02*
X0050895Y0314884D01*
X0050895Y0316483D02*
X0322995Y0316483D01*
X0322995Y0318081D02*
X0050895Y0318081D01*
X0050895Y0319680D02*
X0322995Y0319680D01*
X0322995Y0321279D02*
X0050895Y0321279D01*
X0050895Y0322877D02*
X0322995Y0322877D01*
X0322995Y0324476D02*
X0050895Y0324476D01*
X0050895Y0326074D02*
X0322995Y0326074D01*
X0322995Y0327673D02*
X0050895Y0327673D01*
X0050895Y0329271D02*
X0322995Y0329271D01*
X0322995Y0330870D02*
X0050895Y0330870D01*
X0050895Y0332468D02*
X0322995Y0332468D01*
X0238226Y0348453D02*
X0079965Y0348453D01*
X0082310Y0350052D02*
X0235880Y0350052D01*
X0234494Y0351650D02*
X0083697Y0351650D01*
X0084359Y0353249D02*
X0233831Y0353249D01*
X0233395Y0354847D02*
X0084795Y0354847D01*
X0084795Y0356446D02*
X0233395Y0356446D01*
X0233594Y0358044D02*
X0084596Y0358044D01*
X0083934Y0359643D02*
X0234256Y0359643D01*
X0235307Y0361241D02*
X0082883Y0361241D01*
X0081285Y0362840D02*
X0236905Y0362840D01*
X0304867Y0233360D02*
X0316595Y0233360D01*
X0316595Y0231762D02*
X0304089Y0231762D01*
X0302349Y0230163D02*
X0316595Y0230163D01*
X0316595Y0228565D02*
X0303176Y0228565D01*
X0304273Y0226966D02*
X0316595Y0226966D01*
X0316595Y0225368D02*
X0304695Y0225368D01*
X0304633Y0223769D02*
X0316595Y0223769D01*
X0316595Y0222171D02*
X0303971Y0222171D01*
X0302394Y0220572D02*
X0316595Y0220572D01*
X0316595Y0218974D02*
X0303333Y0218974D01*
X0304524Y0217375D02*
X0316595Y0217375D01*
X0316595Y0215777D02*
X0305030Y0215777D01*
X0305044Y0214178D02*
X0316595Y0214178D01*
X0316595Y0212580D02*
X0304569Y0212580D01*
X0303421Y0210981D02*
X0316595Y0210981D01*
X0316595Y0209383D02*
X0302180Y0209383D01*
X0303934Y0207784D02*
X0316595Y0207784D01*
X0316595Y0206186D02*
X0304596Y0206186D01*
X0304695Y0204587D02*
X0316595Y0204587D01*
X0316595Y0202989D02*
X0304310Y0202989D01*
X0303265Y0201390D02*
X0316595Y0201390D01*
X0316595Y0199792D02*
X0302174Y0199792D01*
X0304025Y0198193D02*
X0316595Y0198193D01*
X0316595Y0196595D02*
X0304838Y0196595D01*
X0304879Y0193398D02*
X0316595Y0193398D01*
X0316595Y0194996D02*
X0299795Y0194996D01*
X0299395Y0194996D02*
X0050895Y0194996D01*
X0302422Y0190201D02*
X0316595Y0190201D01*
X0316595Y0191799D02*
X0304117Y0191799D01*
X0303139Y0188602D02*
X0316595Y0188602D01*
X0316595Y0187004D02*
X0304258Y0187004D01*
X0304695Y0185405D02*
X0316595Y0185405D01*
X0316595Y0183807D02*
X0304649Y0183807D01*
X0303987Y0182208D02*
X0316595Y0182208D01*
X0316595Y0180610D02*
X0302484Y0180610D01*
X0303295Y0179011D02*
X0316595Y0179011D01*
X0316595Y0177412D02*
X0304505Y0177412D01*
X0305024Y0175814D02*
X0316595Y0175814D01*
X0316595Y0174215D02*
X0305050Y0174215D01*
X0304588Y0172617D02*
X0316595Y0172617D01*
X0316595Y0171018D02*
X0303459Y0171018D01*
X0302090Y0169420D02*
X0316595Y0169420D01*
X0316595Y0167821D02*
X0303919Y0167821D01*
X0304581Y0166223D02*
X0316595Y0166223D01*
X0316595Y0164624D02*
X0304695Y0164624D01*
X0304325Y0163026D02*
X0316595Y0163026D01*
X0316595Y0161427D02*
X0303302Y0161427D01*
X0302101Y0159829D02*
X0316595Y0159829D01*
X0316595Y0158230D02*
X0303998Y0158230D01*
X0304826Y0156632D02*
X0316595Y0156632D01*
X0320595Y0196595D02*
X0324257Y0196595D01*
X0323087Y0198193D02*
X0320595Y0198193D01*
X0320595Y0199792D02*
X0322806Y0199792D01*
X0323091Y0201390D02*
X0320595Y0201390D01*
X0320595Y0202989D02*
X0322968Y0202989D01*
X0322847Y0204587D02*
X0320595Y0204587D01*
X0320595Y0206186D02*
X0322995Y0206186D01*
X0322995Y0207784D02*
X0320595Y0207784D01*
X0320595Y0209383D02*
X0322995Y0209383D01*
X0322995Y0210981D02*
X0320595Y0210981D01*
X0320595Y0212580D02*
X0322995Y0212580D01*
X0322995Y0214178D02*
X0320595Y0214178D01*
X0320595Y0215777D02*
X0322995Y0215777D01*
X0322995Y0217375D02*
X0320595Y0217375D01*
X0320595Y0218974D02*
X0322995Y0218974D01*
X0322995Y0220572D02*
X0320595Y0220572D01*
X0320595Y0222171D02*
X0322995Y0222171D01*
X0322995Y0223769D02*
X0320595Y0223769D01*
X0320595Y0225368D02*
X0322995Y0225368D01*
X0322995Y0226966D02*
X0320595Y0226966D01*
X0320595Y0228565D02*
X0322995Y0228565D01*
X0322995Y0230163D02*
X0320595Y0230163D01*
X0320595Y0231762D02*
X0322995Y0231762D01*
X0322995Y0233360D02*
X0320595Y0233360D01*
X0321003Y0234959D02*
X0322995Y0234959D01*
X0322995Y0236557D02*
X0321384Y0236557D01*
D14*
X0329995Y0212833D03*
X0330195Y0205033D03*
X0373695Y0212833D03*
D15*
X0371195Y0213033D01*
X0372095Y0213933D01*
X0330995Y0205033D02*
X0329595Y0206433D01*
X0330195Y0205033D02*
X0330995Y0205033D01*
X0325595Y0203933D02*
X0325595Y0333933D01*
X0311595Y0347933D01*
X0297095Y0347933D01*
X0329895Y0212833D02*
X0329995Y0212833D01*
X0325595Y0200147D02*
X0325595Y0198933D01*
X0327595Y0196933D01*
D16*
X0327595Y0196933D03*
X0325595Y0200147D03*
X0325595Y0203933D03*
X0318595Y0236433D03*
X0215395Y0275533D03*
X0265395Y0280733D03*
X0054195Y0243133D03*
X0054195Y0233333D03*
X0054195Y0223533D03*
X0053795Y0167133D03*
X0053795Y0116733D03*
X0100795Y0116133D03*
X0216795Y0122933D03*
X0216795Y0143333D03*
D17*
X0299595Y0124933D02*
X0313095Y0124933D01*
X0318595Y0130433D01*
X0318595Y0236433D01*
M02*
