%
M48
M72
T01C0.01378
T02C0.01600
T03C0.04000
T04C0.05118
T05C0.11800
%
T01
X53795Y116733
X100795Y116133
X216795Y122933
X216795Y143333
X327595Y196933
X325595Y200147
X325595Y203933
X318595Y236433
X215395Y275533
X265395Y280733
X54195Y243133
X54195Y233333
X54195Y223533
X53795Y167133
T02
X330195Y205033
X329995Y212833
X373695Y212833
T03
X299595Y214933
X299595Y224933
X299595Y234933
X299595Y244933
X299595Y254933
X299595Y264933
X299595Y274933
X299595Y284933
X297095Y337933
X297095Y347933
X297095Y357933
X299595Y204933
X299595Y194933
X299595Y184933
X299595Y174933
X299595Y164933
X299595Y154933
X299595Y144933
X299595Y134933
X299595Y124933
X299595Y114933
T04
X336595Y354933
X356280Y354933
T05
X76595Y63933
X241595Y63933
X241595Y355933
X76595Y355933
M30
