G75*
%MOIN*%
%OFA0B0*%
%FSLAX25Y25*%
%IPPOS*%
%LPD*%
%AMOC8*
5,1,8,0,0,1.08239X$1,22.5*
%
%ADD10R,0.14500X0.05000*%
%ADD11R,0.10433X0.03937*%
%ADD12C,0.07400*%
%ADD13R,0.08000X0.08000*%
%ADD14C,0.08000*%
%ADD15R,0.03937X0.04331*%
%ADD16C,0.02400*%
%ADD17C,0.03000*%
%ADD18C,0.02778*%
%ADD19C,0.01200*%
D10*
X0067345Y0114933D03*
X0067345Y0124933D03*
X0086845Y0124933D03*
X0086845Y0114933D03*
X0086845Y0134933D03*
X0086845Y0144933D03*
X0067345Y0144933D03*
X0067345Y0134933D03*
X0067345Y0154933D03*
X0067345Y0164933D03*
X0086845Y0164933D03*
X0086845Y0154933D03*
X0086845Y0174933D03*
X0086845Y0184933D03*
X0067345Y0184933D03*
X0067345Y0174933D03*
X0067345Y0194933D03*
X0067345Y0204933D03*
X0086845Y0204933D03*
X0086845Y0194933D03*
X0086845Y0214933D03*
X0086845Y0224933D03*
X0067345Y0224933D03*
X0067345Y0214933D03*
X0067345Y0234933D03*
X0067345Y0244933D03*
X0086845Y0244933D03*
X0086845Y0234933D03*
X0086845Y0254933D03*
X0067345Y0254933D03*
X0067345Y0264933D03*
X0067345Y0274933D03*
X0086845Y0274933D03*
X0086845Y0264933D03*
X0086845Y0284933D03*
X0086845Y0294933D03*
X0067345Y0294933D03*
X0067345Y0284933D03*
X0067345Y0304933D03*
X0086845Y0304933D03*
X0231345Y0304933D03*
X0250845Y0304933D03*
X0250845Y0294933D03*
X0250845Y0284933D03*
X0231345Y0284933D03*
X0231345Y0294933D03*
X0231345Y0274933D03*
X0231345Y0264933D03*
X0250845Y0264933D03*
X0250845Y0274933D03*
X0250845Y0254933D03*
X0231345Y0254933D03*
X0231345Y0244933D03*
X0231345Y0234933D03*
X0250845Y0234933D03*
X0250845Y0244933D03*
X0250845Y0224933D03*
X0250845Y0214933D03*
X0231345Y0214933D03*
X0231345Y0224933D03*
X0231345Y0204933D03*
X0231345Y0194933D03*
X0250845Y0194933D03*
X0250845Y0204933D03*
X0250845Y0184933D03*
X0250845Y0174933D03*
X0231345Y0174933D03*
X0231345Y0184933D03*
X0231345Y0164933D03*
X0231345Y0154933D03*
X0250845Y0154933D03*
X0250845Y0164933D03*
X0250845Y0144933D03*
X0250845Y0134933D03*
X0231345Y0134933D03*
X0231345Y0144933D03*
X0231345Y0124933D03*
X0231345Y0114933D03*
X0250845Y0114933D03*
X0250845Y0124933D03*
D11*
X0343335Y0181374D03*
X0343335Y0189248D03*
X0343335Y0197122D03*
X0343335Y0204996D03*
X0343335Y0212870D03*
X0343335Y0220744D03*
X0343335Y0228618D03*
X0343335Y0236492D03*
X0360461Y0236492D03*
X0360461Y0228618D03*
X0360461Y0220744D03*
X0360461Y0212870D03*
X0360461Y0204996D03*
X0360461Y0197122D03*
X0360461Y0189248D03*
X0360461Y0181374D03*
D12*
X0299595Y0184933D03*
X0299595Y0174933D03*
X0299595Y0164933D03*
X0299595Y0154933D03*
X0299595Y0144933D03*
X0299595Y0134933D03*
X0299595Y0124933D03*
X0299595Y0114933D03*
X0299595Y0194933D03*
X0299595Y0204933D03*
X0299595Y0214933D03*
X0299595Y0224933D03*
X0299595Y0234933D03*
X0299595Y0244933D03*
X0299595Y0254933D03*
X0299595Y0264933D03*
X0299595Y0274933D03*
X0299595Y0284933D03*
X0297095Y0337933D03*
X0297095Y0347933D03*
X0297095Y0357933D03*
D13*
X0336595Y0354933D03*
D14*
X0356280Y0354933D03*
D15*
X0116942Y0219933D03*
X0110249Y0219933D03*
X0110249Y0209933D03*
X0116942Y0209933D03*
X0116942Y0199933D03*
X0110249Y0199933D03*
X0110249Y0189933D03*
X0116942Y0189933D03*
D16*
X0053795Y0116733D02*
X0055595Y0114933D01*
X0067345Y0114933D01*
X0086845Y0114933D02*
X0099595Y0114933D01*
X0100795Y0116133D01*
X0216795Y0122933D02*
X0218795Y0124933D01*
X0231345Y0124933D01*
X0231345Y0144933D02*
X0218395Y0144933D01*
X0216795Y0143333D01*
X0076795Y0168133D02*
X0073995Y0165333D01*
X0067745Y0165333D01*
X0067345Y0164933D01*
X0055995Y0164933D01*
X0053795Y0167133D01*
X0076795Y0168133D02*
X0076795Y0178933D01*
X0070795Y0184933D01*
X0067345Y0184933D01*
X0067345Y0224933D02*
X0055595Y0224933D01*
X0054195Y0223533D01*
X0054195Y0233333D02*
X0055795Y0234933D01*
X0067345Y0234933D01*
X0067345Y0244933D02*
X0055995Y0244933D01*
X0054195Y0243133D01*
X0215395Y0275533D02*
X0224795Y0284933D01*
X0231345Y0284933D01*
X0250845Y0284933D02*
X0260995Y0284933D01*
X0265195Y0280733D01*
X0265395Y0280733D01*
X0231345Y0304933D02*
X0264345Y0337933D01*
X0297095Y0337933D01*
X0315595Y0354933D02*
X0312595Y0357933D01*
X0297095Y0357933D01*
X0315595Y0354933D02*
X0336595Y0354933D01*
X0231345Y0304933D02*
X0222345Y0313933D01*
X0076345Y0313933D01*
X0067345Y0304933D01*
X0329995Y0212833D02*
X0332532Y0212870D01*
X0343335Y0212870D01*
X0343335Y0204996D02*
X0332732Y0204996D01*
X0330195Y0205033D01*
X0325595Y0203933D02*
X0325595Y0200147D01*
X0325595Y0198933D01*
X0327406Y0197122D01*
X0330595Y0197122D01*
X0327784Y0197122D02*
X0327595Y0196933D01*
X0327784Y0197122D02*
X0343335Y0197122D01*
X0360461Y0197122D01*
X0360461Y0204996D01*
X0360461Y0212870D02*
X0371158Y0212870D01*
X0373695Y0212833D01*
D17*
X0373695Y0212833D03*
X0329995Y0212833D03*
X0330195Y0205033D03*
D18*
X0325595Y0203933D03*
X0325595Y0200147D03*
X0327595Y0196933D03*
X0318595Y0236433D03*
X0215395Y0275533D03*
X0265395Y0280733D03*
X0054195Y0243133D03*
X0054195Y0233333D03*
X0054195Y0223533D03*
X0053795Y0167133D03*
X0053795Y0116733D03*
X0100795Y0116133D03*
X0216795Y0122933D03*
X0216795Y0143333D03*
D19*
X0250845Y0144933D02*
X0270595Y0144933D01*
X0290595Y0164933D01*
X0299595Y0164933D01*
X0303595Y0164933D01*
X0307595Y0168933D01*
X0307595Y0177933D01*
X0311036Y0181374D01*
X0343335Y0181374D01*
X0349595Y0177933D02*
X0312595Y0177933D01*
X0310595Y0175933D01*
X0310595Y0149933D01*
X0305595Y0144933D01*
X0299595Y0144933D01*
X0285595Y0144933D01*
X0275595Y0134933D01*
X0250845Y0134933D01*
X0250845Y0124933D02*
X0299595Y0124933D01*
X0265195Y0154933D02*
X0250845Y0154933D01*
X0265195Y0154933D02*
X0295195Y0184933D01*
X0299595Y0184933D01*
X0300095Y0185433D01*
X0349595Y0185433D01*
X0353410Y0189248D01*
X0360461Y0189248D01*
X0360461Y0181374D02*
X0353036Y0181374D01*
X0349595Y0177933D01*
X0343335Y0189248D02*
X0310280Y0189248D01*
X0307595Y0191933D01*
X0307595Y0201933D01*
X0304595Y0204933D01*
X0299595Y0204933D01*
X0299395Y0204933D01*
X0259395Y0164933D01*
X0250845Y0164933D01*
X0221981Y0229933D02*
X0181981Y0189933D01*
X0116942Y0189933D01*
X0110249Y0189933D02*
X0072595Y0189933D01*
X0070595Y0191933D01*
X0070595Y0193933D01*
X0068345Y0193933D01*
X0067345Y0194933D01*
X0058595Y0199933D02*
X0056595Y0197933D01*
X0056595Y0176933D01*
X0058595Y0174933D01*
X0067345Y0174933D01*
X0069595Y0174933D01*
X0067345Y0174933D01*
X0058595Y0199933D02*
X0110249Y0199933D01*
X0116942Y0199933D02*
X0171980Y0199933D01*
X0221980Y0249933D01*
X0294595Y0249933D01*
X0299595Y0244933D01*
X0312095Y0232433D01*
X0359095Y0232433D01*
X0360461Y0233799D01*
X0360461Y0236492D01*
X0366595Y0240933D02*
X0312595Y0240933D01*
X0309595Y0243933D01*
X0309595Y0256433D01*
X0301095Y0264933D01*
X0299595Y0264933D01*
X0294595Y0269933D01*
X0222221Y0269933D01*
X0162221Y0209933D01*
X0116942Y0209933D01*
X0110249Y0209933D02*
X0072595Y0209933D01*
X0070595Y0207933D01*
X0070595Y0205933D01*
X0068345Y0205933D01*
X0067345Y0204933D01*
X0067345Y0214933D02*
X0068345Y0215933D01*
X0071595Y0215933D01*
X0070595Y0216933D01*
X0070595Y0217933D01*
X0072595Y0219933D01*
X0110249Y0219933D01*
X0116942Y0219933D02*
X0152097Y0219933D01*
X0222097Y0289933D01*
X0294595Y0289933D01*
X0299595Y0284933D01*
X0313595Y0270933D01*
X0313595Y0249933D01*
X0316595Y0246933D01*
X0368595Y0246933D01*
X0372595Y0242933D01*
X0372595Y0223933D01*
X0369406Y0220744D01*
X0360461Y0220744D01*
X0360461Y0228618D02*
X0367280Y0228618D01*
X0368595Y0229933D01*
X0368595Y0238933D01*
X0366595Y0240933D01*
X0343335Y0236492D02*
X0343276Y0236433D01*
X0318595Y0236433D01*
X0313280Y0228618D02*
X0309595Y0224933D01*
X0299595Y0224933D01*
X0294595Y0229933D01*
X0221981Y0229933D01*
X0313280Y0228618D02*
X0343335Y0228618D01*
M02*
