G75*
%MOIN*%
%OFA0B0*%
%FSLAX25Y25*%
%IPPOS*%
%LPD*%
%AMOC8*
5,1,8,0,0,1.08239X$1,22.5*
%
%ADD10C,0.00000*%
%ADD11C,0.00800*%
%ADD12C,0.00300*%
%ADD13C,0.02500*%
%ADD14C,0.00600*%
%ADD15C,0.02400*%
%ADD16C,0.00500*%
%ADD17R,0.01000X0.00200*%
%ADD18R,0.00800X0.00200*%
%ADD19R,0.03400X0.00200*%
%ADD20R,0.01200X0.00200*%
%ADD21R,0.02800X0.00200*%
%ADD22R,0.02200X0.00200*%
%ADD23R,0.01800X0.00200*%
%ADD24R,0.02000X0.00200*%
%ADD25R,0.03000X0.00200*%
%ADD26R,0.03200X0.00200*%
%ADD27R,0.02600X0.00200*%
%ADD28R,0.03600X0.00200*%
%ADD29R,0.01400X0.00200*%
%ADD30R,0.03800X0.00200*%
%ADD31R,0.01600X0.00200*%
%ADD32R,0.04000X0.00200*%
%ADD33R,0.00400X0.00200*%
%ADD34R,0.00600X0.00200*%
%ADD35R,0.00200X0.00200*%
%ADD36R,0.02400X0.00200*%
%ADD37R,0.26600X0.00200*%
%ADD38R,0.05600X0.00200*%
%ADD39R,0.09000X0.00200*%
%ADD40R,0.08800X0.00200*%
%ADD41R,0.04600X0.00200*%
%ADD42R,0.06600X0.00200*%
%ADD43R,0.05200X0.00200*%
%ADD44R,0.05400X0.00200*%
%ADD45R,0.07200X0.00200*%
%ADD46R,0.05800X0.00200*%
%ADD47R,0.06200X0.00200*%
%ADD48R,0.07600X0.00200*%
%ADD49R,0.06400X0.00200*%
%ADD50R,0.07000X0.00200*%
%ADD51R,0.08000X0.00200*%
%ADD52R,0.07400X0.00200*%
%ADD53R,0.08200X0.00200*%
%ADD54R,0.07800X0.00200*%
%ADD55R,0.08400X0.00200*%
%ADD56R,0.08600X0.00200*%
%ADD57R,0.04400X0.00200*%
%ADD58R,0.04800X0.00200*%
%ADD59R,0.20800X0.00200*%
%ADD60R,0.20400X0.00200*%
%ADD61R,0.20000X0.00200*%
%ADD62R,0.19800X0.00200*%
%ADD63R,0.19400X0.00200*%
%ADD64R,0.19000X0.00200*%
%ADD65R,0.18800X0.00200*%
%ADD66R,0.18400X0.00200*%
%ADD67R,0.18000X0.00200*%
%ADD68R,0.17600X0.00200*%
%ADD69R,0.17400X0.00200*%
%ADD70R,0.17000X0.00200*%
%ADD71R,0.16600X0.00200*%
%ADD72R,0.16400X0.00200*%
%ADD73R,0.16000X0.00200*%
%ADD74R,0.15600X0.00200*%
%ADD75R,0.15400X0.00200*%
%ADD76R,0.15000X0.00200*%
%ADD77R,0.14600X0.00200*%
%ADD78R,0.14200X0.00200*%
%ADD79R,0.14000X0.00200*%
%ADD80R,0.13600X0.00200*%
%ADD81R,0.13200X0.00200*%
%ADD82R,0.13000X0.00200*%
%ADD83R,0.12600X0.00200*%
%ADD84R,0.12200X0.00200*%
%ADD85R,0.12000X0.00200*%
%ADD86R,0.11600X0.00200*%
%ADD87R,0.11200X0.00200*%
%ADD88R,0.10800X0.00200*%
%ADD89R,0.10600X0.00200*%
%ADD90R,0.10200X0.00200*%
%ADD91R,0.09800X0.00200*%
%ADD92R,0.09600X0.00200*%
%ADD93R,0.09200X0.00200*%
%ADD94R,0.06800X0.00200*%
%ADD95R,0.05000X0.00200*%
%ADD96R,0.06000X0.00200*%
%ADD97R,0.04200X0.00200*%
%ADD98R,0.10000X0.00200*%
%ADD99R,0.10400X0.00200*%
%ADD100R,0.09400X0.00200*%
%ADD101R,0.11000X0.00200*%
%ADD102R,0.11400X0.00200*%
%ADD103R,0.11800X0.00200*%
%ADD104R,0.12400X0.00200*%
%ADD105R,0.12800X0.00200*%
%ADD106R,0.16800X0.00200*%
%ADD107R,0.17200X0.00200*%
%ADD108R,0.17800X0.00200*%
%ADD109R,0.18200X0.00200*%
%ADD110R,0.18600X0.00200*%
%ADD111R,0.19200X0.00200*%
%ADD112R,0.19600X0.00200*%
%ADD113R,0.20600X0.00200*%
%ADD114C,0.00400*%
%ADD115C,0.00200*%
D10*
X0048595Y0047933D02*
X0048595Y0371933D01*
X0377595Y0371933D01*
X0377595Y0047933D01*
X0048595Y0047933D01*
X0070695Y0063933D02*
X0070697Y0064086D01*
X0070703Y0064239D01*
X0070713Y0064392D01*
X0070727Y0064545D01*
X0070745Y0064697D01*
X0070766Y0064848D01*
X0070792Y0064999D01*
X0070822Y0065150D01*
X0070855Y0065299D01*
X0070893Y0065448D01*
X0070934Y0065595D01*
X0070979Y0065742D01*
X0071028Y0065887D01*
X0071080Y0066031D01*
X0071137Y0066173D01*
X0071197Y0066314D01*
X0071260Y0066453D01*
X0071328Y0066591D01*
X0071398Y0066727D01*
X0071473Y0066861D01*
X0071550Y0066993D01*
X0071632Y0067123D01*
X0071716Y0067251D01*
X0071804Y0067376D01*
X0071895Y0067499D01*
X0071989Y0067620D01*
X0072086Y0067738D01*
X0072187Y0067854D01*
X0072290Y0067967D01*
X0072396Y0068078D01*
X0072505Y0068185D01*
X0072617Y0068290D01*
X0072731Y0068392D01*
X0072848Y0068491D01*
X0072968Y0068586D01*
X0073090Y0068679D01*
X0073214Y0068768D01*
X0073341Y0068855D01*
X0073470Y0068937D01*
X0073601Y0069017D01*
X0073734Y0069093D01*
X0073869Y0069165D01*
X0074006Y0069234D01*
X0074144Y0069300D01*
X0074284Y0069362D01*
X0074426Y0069420D01*
X0074569Y0069474D01*
X0074714Y0069525D01*
X0074859Y0069572D01*
X0075006Y0069615D01*
X0075154Y0069654D01*
X0075303Y0069690D01*
X0075453Y0069721D01*
X0075604Y0069749D01*
X0075755Y0069773D01*
X0075907Y0069793D01*
X0076060Y0069809D01*
X0076212Y0069821D01*
X0076365Y0069829D01*
X0076518Y0069833D01*
X0076672Y0069833D01*
X0076825Y0069829D01*
X0076978Y0069821D01*
X0077130Y0069809D01*
X0077283Y0069793D01*
X0077435Y0069773D01*
X0077586Y0069749D01*
X0077737Y0069721D01*
X0077887Y0069690D01*
X0078036Y0069654D01*
X0078184Y0069615D01*
X0078331Y0069572D01*
X0078476Y0069525D01*
X0078621Y0069474D01*
X0078764Y0069420D01*
X0078906Y0069362D01*
X0079046Y0069300D01*
X0079184Y0069234D01*
X0079321Y0069165D01*
X0079456Y0069093D01*
X0079589Y0069017D01*
X0079720Y0068937D01*
X0079849Y0068855D01*
X0079976Y0068768D01*
X0080100Y0068679D01*
X0080222Y0068586D01*
X0080342Y0068491D01*
X0080459Y0068392D01*
X0080573Y0068290D01*
X0080685Y0068185D01*
X0080794Y0068078D01*
X0080900Y0067967D01*
X0081003Y0067854D01*
X0081104Y0067738D01*
X0081201Y0067620D01*
X0081295Y0067499D01*
X0081386Y0067376D01*
X0081474Y0067251D01*
X0081558Y0067123D01*
X0081640Y0066993D01*
X0081717Y0066861D01*
X0081792Y0066727D01*
X0081862Y0066591D01*
X0081930Y0066453D01*
X0081993Y0066314D01*
X0082053Y0066173D01*
X0082110Y0066031D01*
X0082162Y0065887D01*
X0082211Y0065742D01*
X0082256Y0065595D01*
X0082297Y0065448D01*
X0082335Y0065299D01*
X0082368Y0065150D01*
X0082398Y0064999D01*
X0082424Y0064848D01*
X0082445Y0064697D01*
X0082463Y0064545D01*
X0082477Y0064392D01*
X0082487Y0064239D01*
X0082493Y0064086D01*
X0082495Y0063933D01*
X0082493Y0063780D01*
X0082487Y0063627D01*
X0082477Y0063474D01*
X0082463Y0063321D01*
X0082445Y0063169D01*
X0082424Y0063018D01*
X0082398Y0062867D01*
X0082368Y0062716D01*
X0082335Y0062567D01*
X0082297Y0062418D01*
X0082256Y0062271D01*
X0082211Y0062124D01*
X0082162Y0061979D01*
X0082110Y0061835D01*
X0082053Y0061693D01*
X0081993Y0061552D01*
X0081930Y0061413D01*
X0081862Y0061275D01*
X0081792Y0061139D01*
X0081717Y0061005D01*
X0081640Y0060873D01*
X0081558Y0060743D01*
X0081474Y0060615D01*
X0081386Y0060490D01*
X0081295Y0060367D01*
X0081201Y0060246D01*
X0081104Y0060128D01*
X0081003Y0060012D01*
X0080900Y0059899D01*
X0080794Y0059788D01*
X0080685Y0059681D01*
X0080573Y0059576D01*
X0080459Y0059474D01*
X0080342Y0059375D01*
X0080222Y0059280D01*
X0080100Y0059187D01*
X0079976Y0059098D01*
X0079849Y0059011D01*
X0079720Y0058929D01*
X0079589Y0058849D01*
X0079456Y0058773D01*
X0079321Y0058701D01*
X0079184Y0058632D01*
X0079046Y0058566D01*
X0078906Y0058504D01*
X0078764Y0058446D01*
X0078621Y0058392D01*
X0078476Y0058341D01*
X0078331Y0058294D01*
X0078184Y0058251D01*
X0078036Y0058212D01*
X0077887Y0058176D01*
X0077737Y0058145D01*
X0077586Y0058117D01*
X0077435Y0058093D01*
X0077283Y0058073D01*
X0077130Y0058057D01*
X0076978Y0058045D01*
X0076825Y0058037D01*
X0076672Y0058033D01*
X0076518Y0058033D01*
X0076365Y0058037D01*
X0076212Y0058045D01*
X0076060Y0058057D01*
X0075907Y0058073D01*
X0075755Y0058093D01*
X0075604Y0058117D01*
X0075453Y0058145D01*
X0075303Y0058176D01*
X0075154Y0058212D01*
X0075006Y0058251D01*
X0074859Y0058294D01*
X0074714Y0058341D01*
X0074569Y0058392D01*
X0074426Y0058446D01*
X0074284Y0058504D01*
X0074144Y0058566D01*
X0074006Y0058632D01*
X0073869Y0058701D01*
X0073734Y0058773D01*
X0073601Y0058849D01*
X0073470Y0058929D01*
X0073341Y0059011D01*
X0073214Y0059098D01*
X0073090Y0059187D01*
X0072968Y0059280D01*
X0072848Y0059375D01*
X0072731Y0059474D01*
X0072617Y0059576D01*
X0072505Y0059681D01*
X0072396Y0059788D01*
X0072290Y0059899D01*
X0072187Y0060012D01*
X0072086Y0060128D01*
X0071989Y0060246D01*
X0071895Y0060367D01*
X0071804Y0060490D01*
X0071716Y0060615D01*
X0071632Y0060743D01*
X0071550Y0060873D01*
X0071473Y0061005D01*
X0071398Y0061139D01*
X0071328Y0061275D01*
X0071260Y0061413D01*
X0071197Y0061552D01*
X0071137Y0061693D01*
X0071080Y0061835D01*
X0071028Y0061979D01*
X0070979Y0062124D01*
X0070934Y0062271D01*
X0070893Y0062418D01*
X0070855Y0062567D01*
X0070822Y0062716D01*
X0070792Y0062867D01*
X0070766Y0063018D01*
X0070745Y0063169D01*
X0070727Y0063321D01*
X0070713Y0063474D01*
X0070703Y0063627D01*
X0070697Y0063780D01*
X0070695Y0063933D01*
X0235695Y0063933D02*
X0235697Y0064086D01*
X0235703Y0064239D01*
X0235713Y0064392D01*
X0235727Y0064545D01*
X0235745Y0064697D01*
X0235766Y0064848D01*
X0235792Y0064999D01*
X0235822Y0065150D01*
X0235855Y0065299D01*
X0235893Y0065448D01*
X0235934Y0065595D01*
X0235979Y0065742D01*
X0236028Y0065887D01*
X0236080Y0066031D01*
X0236137Y0066173D01*
X0236197Y0066314D01*
X0236260Y0066453D01*
X0236328Y0066591D01*
X0236398Y0066727D01*
X0236473Y0066861D01*
X0236550Y0066993D01*
X0236632Y0067123D01*
X0236716Y0067251D01*
X0236804Y0067376D01*
X0236895Y0067499D01*
X0236989Y0067620D01*
X0237086Y0067738D01*
X0237187Y0067854D01*
X0237290Y0067967D01*
X0237396Y0068078D01*
X0237505Y0068185D01*
X0237617Y0068290D01*
X0237731Y0068392D01*
X0237848Y0068491D01*
X0237968Y0068586D01*
X0238090Y0068679D01*
X0238214Y0068768D01*
X0238341Y0068855D01*
X0238470Y0068937D01*
X0238601Y0069017D01*
X0238734Y0069093D01*
X0238869Y0069165D01*
X0239006Y0069234D01*
X0239144Y0069300D01*
X0239284Y0069362D01*
X0239426Y0069420D01*
X0239569Y0069474D01*
X0239714Y0069525D01*
X0239859Y0069572D01*
X0240006Y0069615D01*
X0240154Y0069654D01*
X0240303Y0069690D01*
X0240453Y0069721D01*
X0240604Y0069749D01*
X0240755Y0069773D01*
X0240907Y0069793D01*
X0241060Y0069809D01*
X0241212Y0069821D01*
X0241365Y0069829D01*
X0241518Y0069833D01*
X0241672Y0069833D01*
X0241825Y0069829D01*
X0241978Y0069821D01*
X0242130Y0069809D01*
X0242283Y0069793D01*
X0242435Y0069773D01*
X0242586Y0069749D01*
X0242737Y0069721D01*
X0242887Y0069690D01*
X0243036Y0069654D01*
X0243184Y0069615D01*
X0243331Y0069572D01*
X0243476Y0069525D01*
X0243621Y0069474D01*
X0243764Y0069420D01*
X0243906Y0069362D01*
X0244046Y0069300D01*
X0244184Y0069234D01*
X0244321Y0069165D01*
X0244456Y0069093D01*
X0244589Y0069017D01*
X0244720Y0068937D01*
X0244849Y0068855D01*
X0244976Y0068768D01*
X0245100Y0068679D01*
X0245222Y0068586D01*
X0245342Y0068491D01*
X0245459Y0068392D01*
X0245573Y0068290D01*
X0245685Y0068185D01*
X0245794Y0068078D01*
X0245900Y0067967D01*
X0246003Y0067854D01*
X0246104Y0067738D01*
X0246201Y0067620D01*
X0246295Y0067499D01*
X0246386Y0067376D01*
X0246474Y0067251D01*
X0246558Y0067123D01*
X0246640Y0066993D01*
X0246717Y0066861D01*
X0246792Y0066727D01*
X0246862Y0066591D01*
X0246930Y0066453D01*
X0246993Y0066314D01*
X0247053Y0066173D01*
X0247110Y0066031D01*
X0247162Y0065887D01*
X0247211Y0065742D01*
X0247256Y0065595D01*
X0247297Y0065448D01*
X0247335Y0065299D01*
X0247368Y0065150D01*
X0247398Y0064999D01*
X0247424Y0064848D01*
X0247445Y0064697D01*
X0247463Y0064545D01*
X0247477Y0064392D01*
X0247487Y0064239D01*
X0247493Y0064086D01*
X0247495Y0063933D01*
X0247493Y0063780D01*
X0247487Y0063627D01*
X0247477Y0063474D01*
X0247463Y0063321D01*
X0247445Y0063169D01*
X0247424Y0063018D01*
X0247398Y0062867D01*
X0247368Y0062716D01*
X0247335Y0062567D01*
X0247297Y0062418D01*
X0247256Y0062271D01*
X0247211Y0062124D01*
X0247162Y0061979D01*
X0247110Y0061835D01*
X0247053Y0061693D01*
X0246993Y0061552D01*
X0246930Y0061413D01*
X0246862Y0061275D01*
X0246792Y0061139D01*
X0246717Y0061005D01*
X0246640Y0060873D01*
X0246558Y0060743D01*
X0246474Y0060615D01*
X0246386Y0060490D01*
X0246295Y0060367D01*
X0246201Y0060246D01*
X0246104Y0060128D01*
X0246003Y0060012D01*
X0245900Y0059899D01*
X0245794Y0059788D01*
X0245685Y0059681D01*
X0245573Y0059576D01*
X0245459Y0059474D01*
X0245342Y0059375D01*
X0245222Y0059280D01*
X0245100Y0059187D01*
X0244976Y0059098D01*
X0244849Y0059011D01*
X0244720Y0058929D01*
X0244589Y0058849D01*
X0244456Y0058773D01*
X0244321Y0058701D01*
X0244184Y0058632D01*
X0244046Y0058566D01*
X0243906Y0058504D01*
X0243764Y0058446D01*
X0243621Y0058392D01*
X0243476Y0058341D01*
X0243331Y0058294D01*
X0243184Y0058251D01*
X0243036Y0058212D01*
X0242887Y0058176D01*
X0242737Y0058145D01*
X0242586Y0058117D01*
X0242435Y0058093D01*
X0242283Y0058073D01*
X0242130Y0058057D01*
X0241978Y0058045D01*
X0241825Y0058037D01*
X0241672Y0058033D01*
X0241518Y0058033D01*
X0241365Y0058037D01*
X0241212Y0058045D01*
X0241060Y0058057D01*
X0240907Y0058073D01*
X0240755Y0058093D01*
X0240604Y0058117D01*
X0240453Y0058145D01*
X0240303Y0058176D01*
X0240154Y0058212D01*
X0240006Y0058251D01*
X0239859Y0058294D01*
X0239714Y0058341D01*
X0239569Y0058392D01*
X0239426Y0058446D01*
X0239284Y0058504D01*
X0239144Y0058566D01*
X0239006Y0058632D01*
X0238869Y0058701D01*
X0238734Y0058773D01*
X0238601Y0058849D01*
X0238470Y0058929D01*
X0238341Y0059011D01*
X0238214Y0059098D01*
X0238090Y0059187D01*
X0237968Y0059280D01*
X0237848Y0059375D01*
X0237731Y0059474D01*
X0237617Y0059576D01*
X0237505Y0059681D01*
X0237396Y0059788D01*
X0237290Y0059899D01*
X0237187Y0060012D01*
X0237086Y0060128D01*
X0236989Y0060246D01*
X0236895Y0060367D01*
X0236804Y0060490D01*
X0236716Y0060615D01*
X0236632Y0060743D01*
X0236550Y0060873D01*
X0236473Y0061005D01*
X0236398Y0061139D01*
X0236328Y0061275D01*
X0236260Y0061413D01*
X0236197Y0061552D01*
X0236137Y0061693D01*
X0236080Y0061835D01*
X0236028Y0061979D01*
X0235979Y0062124D01*
X0235934Y0062271D01*
X0235893Y0062418D01*
X0235855Y0062567D01*
X0235822Y0062716D01*
X0235792Y0062867D01*
X0235766Y0063018D01*
X0235745Y0063169D01*
X0235727Y0063321D01*
X0235713Y0063474D01*
X0235703Y0063627D01*
X0235697Y0063780D01*
X0235695Y0063933D01*
X0235695Y0355933D02*
X0235697Y0356086D01*
X0235703Y0356239D01*
X0235713Y0356392D01*
X0235727Y0356545D01*
X0235745Y0356697D01*
X0235766Y0356848D01*
X0235792Y0356999D01*
X0235822Y0357150D01*
X0235855Y0357299D01*
X0235893Y0357448D01*
X0235934Y0357595D01*
X0235979Y0357742D01*
X0236028Y0357887D01*
X0236080Y0358031D01*
X0236137Y0358173D01*
X0236197Y0358314D01*
X0236260Y0358453D01*
X0236328Y0358591D01*
X0236398Y0358727D01*
X0236473Y0358861D01*
X0236550Y0358993D01*
X0236632Y0359123D01*
X0236716Y0359251D01*
X0236804Y0359376D01*
X0236895Y0359499D01*
X0236989Y0359620D01*
X0237086Y0359738D01*
X0237187Y0359854D01*
X0237290Y0359967D01*
X0237396Y0360078D01*
X0237505Y0360185D01*
X0237617Y0360290D01*
X0237731Y0360392D01*
X0237848Y0360491D01*
X0237968Y0360586D01*
X0238090Y0360679D01*
X0238214Y0360768D01*
X0238341Y0360855D01*
X0238470Y0360937D01*
X0238601Y0361017D01*
X0238734Y0361093D01*
X0238869Y0361165D01*
X0239006Y0361234D01*
X0239144Y0361300D01*
X0239284Y0361362D01*
X0239426Y0361420D01*
X0239569Y0361474D01*
X0239714Y0361525D01*
X0239859Y0361572D01*
X0240006Y0361615D01*
X0240154Y0361654D01*
X0240303Y0361690D01*
X0240453Y0361721D01*
X0240604Y0361749D01*
X0240755Y0361773D01*
X0240907Y0361793D01*
X0241060Y0361809D01*
X0241212Y0361821D01*
X0241365Y0361829D01*
X0241518Y0361833D01*
X0241672Y0361833D01*
X0241825Y0361829D01*
X0241978Y0361821D01*
X0242130Y0361809D01*
X0242283Y0361793D01*
X0242435Y0361773D01*
X0242586Y0361749D01*
X0242737Y0361721D01*
X0242887Y0361690D01*
X0243036Y0361654D01*
X0243184Y0361615D01*
X0243331Y0361572D01*
X0243476Y0361525D01*
X0243621Y0361474D01*
X0243764Y0361420D01*
X0243906Y0361362D01*
X0244046Y0361300D01*
X0244184Y0361234D01*
X0244321Y0361165D01*
X0244456Y0361093D01*
X0244589Y0361017D01*
X0244720Y0360937D01*
X0244849Y0360855D01*
X0244976Y0360768D01*
X0245100Y0360679D01*
X0245222Y0360586D01*
X0245342Y0360491D01*
X0245459Y0360392D01*
X0245573Y0360290D01*
X0245685Y0360185D01*
X0245794Y0360078D01*
X0245900Y0359967D01*
X0246003Y0359854D01*
X0246104Y0359738D01*
X0246201Y0359620D01*
X0246295Y0359499D01*
X0246386Y0359376D01*
X0246474Y0359251D01*
X0246558Y0359123D01*
X0246640Y0358993D01*
X0246717Y0358861D01*
X0246792Y0358727D01*
X0246862Y0358591D01*
X0246930Y0358453D01*
X0246993Y0358314D01*
X0247053Y0358173D01*
X0247110Y0358031D01*
X0247162Y0357887D01*
X0247211Y0357742D01*
X0247256Y0357595D01*
X0247297Y0357448D01*
X0247335Y0357299D01*
X0247368Y0357150D01*
X0247398Y0356999D01*
X0247424Y0356848D01*
X0247445Y0356697D01*
X0247463Y0356545D01*
X0247477Y0356392D01*
X0247487Y0356239D01*
X0247493Y0356086D01*
X0247495Y0355933D01*
X0247493Y0355780D01*
X0247487Y0355627D01*
X0247477Y0355474D01*
X0247463Y0355321D01*
X0247445Y0355169D01*
X0247424Y0355018D01*
X0247398Y0354867D01*
X0247368Y0354716D01*
X0247335Y0354567D01*
X0247297Y0354418D01*
X0247256Y0354271D01*
X0247211Y0354124D01*
X0247162Y0353979D01*
X0247110Y0353835D01*
X0247053Y0353693D01*
X0246993Y0353552D01*
X0246930Y0353413D01*
X0246862Y0353275D01*
X0246792Y0353139D01*
X0246717Y0353005D01*
X0246640Y0352873D01*
X0246558Y0352743D01*
X0246474Y0352615D01*
X0246386Y0352490D01*
X0246295Y0352367D01*
X0246201Y0352246D01*
X0246104Y0352128D01*
X0246003Y0352012D01*
X0245900Y0351899D01*
X0245794Y0351788D01*
X0245685Y0351681D01*
X0245573Y0351576D01*
X0245459Y0351474D01*
X0245342Y0351375D01*
X0245222Y0351280D01*
X0245100Y0351187D01*
X0244976Y0351098D01*
X0244849Y0351011D01*
X0244720Y0350929D01*
X0244589Y0350849D01*
X0244456Y0350773D01*
X0244321Y0350701D01*
X0244184Y0350632D01*
X0244046Y0350566D01*
X0243906Y0350504D01*
X0243764Y0350446D01*
X0243621Y0350392D01*
X0243476Y0350341D01*
X0243331Y0350294D01*
X0243184Y0350251D01*
X0243036Y0350212D01*
X0242887Y0350176D01*
X0242737Y0350145D01*
X0242586Y0350117D01*
X0242435Y0350093D01*
X0242283Y0350073D01*
X0242130Y0350057D01*
X0241978Y0350045D01*
X0241825Y0350037D01*
X0241672Y0350033D01*
X0241518Y0350033D01*
X0241365Y0350037D01*
X0241212Y0350045D01*
X0241060Y0350057D01*
X0240907Y0350073D01*
X0240755Y0350093D01*
X0240604Y0350117D01*
X0240453Y0350145D01*
X0240303Y0350176D01*
X0240154Y0350212D01*
X0240006Y0350251D01*
X0239859Y0350294D01*
X0239714Y0350341D01*
X0239569Y0350392D01*
X0239426Y0350446D01*
X0239284Y0350504D01*
X0239144Y0350566D01*
X0239006Y0350632D01*
X0238869Y0350701D01*
X0238734Y0350773D01*
X0238601Y0350849D01*
X0238470Y0350929D01*
X0238341Y0351011D01*
X0238214Y0351098D01*
X0238090Y0351187D01*
X0237968Y0351280D01*
X0237848Y0351375D01*
X0237731Y0351474D01*
X0237617Y0351576D01*
X0237505Y0351681D01*
X0237396Y0351788D01*
X0237290Y0351899D01*
X0237187Y0352012D01*
X0237086Y0352128D01*
X0236989Y0352246D01*
X0236895Y0352367D01*
X0236804Y0352490D01*
X0236716Y0352615D01*
X0236632Y0352743D01*
X0236550Y0352873D01*
X0236473Y0353005D01*
X0236398Y0353139D01*
X0236328Y0353275D01*
X0236260Y0353413D01*
X0236197Y0353552D01*
X0236137Y0353693D01*
X0236080Y0353835D01*
X0236028Y0353979D01*
X0235979Y0354124D01*
X0235934Y0354271D01*
X0235893Y0354418D01*
X0235855Y0354567D01*
X0235822Y0354716D01*
X0235792Y0354867D01*
X0235766Y0355018D01*
X0235745Y0355169D01*
X0235727Y0355321D01*
X0235713Y0355474D01*
X0235703Y0355627D01*
X0235697Y0355780D01*
X0235695Y0355933D01*
X0070695Y0355933D02*
X0070697Y0356086D01*
X0070703Y0356239D01*
X0070713Y0356392D01*
X0070727Y0356545D01*
X0070745Y0356697D01*
X0070766Y0356848D01*
X0070792Y0356999D01*
X0070822Y0357150D01*
X0070855Y0357299D01*
X0070893Y0357448D01*
X0070934Y0357595D01*
X0070979Y0357742D01*
X0071028Y0357887D01*
X0071080Y0358031D01*
X0071137Y0358173D01*
X0071197Y0358314D01*
X0071260Y0358453D01*
X0071328Y0358591D01*
X0071398Y0358727D01*
X0071473Y0358861D01*
X0071550Y0358993D01*
X0071632Y0359123D01*
X0071716Y0359251D01*
X0071804Y0359376D01*
X0071895Y0359499D01*
X0071989Y0359620D01*
X0072086Y0359738D01*
X0072187Y0359854D01*
X0072290Y0359967D01*
X0072396Y0360078D01*
X0072505Y0360185D01*
X0072617Y0360290D01*
X0072731Y0360392D01*
X0072848Y0360491D01*
X0072968Y0360586D01*
X0073090Y0360679D01*
X0073214Y0360768D01*
X0073341Y0360855D01*
X0073470Y0360937D01*
X0073601Y0361017D01*
X0073734Y0361093D01*
X0073869Y0361165D01*
X0074006Y0361234D01*
X0074144Y0361300D01*
X0074284Y0361362D01*
X0074426Y0361420D01*
X0074569Y0361474D01*
X0074714Y0361525D01*
X0074859Y0361572D01*
X0075006Y0361615D01*
X0075154Y0361654D01*
X0075303Y0361690D01*
X0075453Y0361721D01*
X0075604Y0361749D01*
X0075755Y0361773D01*
X0075907Y0361793D01*
X0076060Y0361809D01*
X0076212Y0361821D01*
X0076365Y0361829D01*
X0076518Y0361833D01*
X0076672Y0361833D01*
X0076825Y0361829D01*
X0076978Y0361821D01*
X0077130Y0361809D01*
X0077283Y0361793D01*
X0077435Y0361773D01*
X0077586Y0361749D01*
X0077737Y0361721D01*
X0077887Y0361690D01*
X0078036Y0361654D01*
X0078184Y0361615D01*
X0078331Y0361572D01*
X0078476Y0361525D01*
X0078621Y0361474D01*
X0078764Y0361420D01*
X0078906Y0361362D01*
X0079046Y0361300D01*
X0079184Y0361234D01*
X0079321Y0361165D01*
X0079456Y0361093D01*
X0079589Y0361017D01*
X0079720Y0360937D01*
X0079849Y0360855D01*
X0079976Y0360768D01*
X0080100Y0360679D01*
X0080222Y0360586D01*
X0080342Y0360491D01*
X0080459Y0360392D01*
X0080573Y0360290D01*
X0080685Y0360185D01*
X0080794Y0360078D01*
X0080900Y0359967D01*
X0081003Y0359854D01*
X0081104Y0359738D01*
X0081201Y0359620D01*
X0081295Y0359499D01*
X0081386Y0359376D01*
X0081474Y0359251D01*
X0081558Y0359123D01*
X0081640Y0358993D01*
X0081717Y0358861D01*
X0081792Y0358727D01*
X0081862Y0358591D01*
X0081930Y0358453D01*
X0081993Y0358314D01*
X0082053Y0358173D01*
X0082110Y0358031D01*
X0082162Y0357887D01*
X0082211Y0357742D01*
X0082256Y0357595D01*
X0082297Y0357448D01*
X0082335Y0357299D01*
X0082368Y0357150D01*
X0082398Y0356999D01*
X0082424Y0356848D01*
X0082445Y0356697D01*
X0082463Y0356545D01*
X0082477Y0356392D01*
X0082487Y0356239D01*
X0082493Y0356086D01*
X0082495Y0355933D01*
X0082493Y0355780D01*
X0082487Y0355627D01*
X0082477Y0355474D01*
X0082463Y0355321D01*
X0082445Y0355169D01*
X0082424Y0355018D01*
X0082398Y0354867D01*
X0082368Y0354716D01*
X0082335Y0354567D01*
X0082297Y0354418D01*
X0082256Y0354271D01*
X0082211Y0354124D01*
X0082162Y0353979D01*
X0082110Y0353835D01*
X0082053Y0353693D01*
X0081993Y0353552D01*
X0081930Y0353413D01*
X0081862Y0353275D01*
X0081792Y0353139D01*
X0081717Y0353005D01*
X0081640Y0352873D01*
X0081558Y0352743D01*
X0081474Y0352615D01*
X0081386Y0352490D01*
X0081295Y0352367D01*
X0081201Y0352246D01*
X0081104Y0352128D01*
X0081003Y0352012D01*
X0080900Y0351899D01*
X0080794Y0351788D01*
X0080685Y0351681D01*
X0080573Y0351576D01*
X0080459Y0351474D01*
X0080342Y0351375D01*
X0080222Y0351280D01*
X0080100Y0351187D01*
X0079976Y0351098D01*
X0079849Y0351011D01*
X0079720Y0350929D01*
X0079589Y0350849D01*
X0079456Y0350773D01*
X0079321Y0350701D01*
X0079184Y0350632D01*
X0079046Y0350566D01*
X0078906Y0350504D01*
X0078764Y0350446D01*
X0078621Y0350392D01*
X0078476Y0350341D01*
X0078331Y0350294D01*
X0078184Y0350251D01*
X0078036Y0350212D01*
X0077887Y0350176D01*
X0077737Y0350145D01*
X0077586Y0350117D01*
X0077435Y0350093D01*
X0077283Y0350073D01*
X0077130Y0350057D01*
X0076978Y0350045D01*
X0076825Y0350037D01*
X0076672Y0350033D01*
X0076518Y0350033D01*
X0076365Y0350037D01*
X0076212Y0350045D01*
X0076060Y0350057D01*
X0075907Y0350073D01*
X0075755Y0350093D01*
X0075604Y0350117D01*
X0075453Y0350145D01*
X0075303Y0350176D01*
X0075154Y0350212D01*
X0075006Y0350251D01*
X0074859Y0350294D01*
X0074714Y0350341D01*
X0074569Y0350392D01*
X0074426Y0350446D01*
X0074284Y0350504D01*
X0074144Y0350566D01*
X0074006Y0350632D01*
X0073869Y0350701D01*
X0073734Y0350773D01*
X0073601Y0350849D01*
X0073470Y0350929D01*
X0073341Y0351011D01*
X0073214Y0351098D01*
X0073090Y0351187D01*
X0072968Y0351280D01*
X0072848Y0351375D01*
X0072731Y0351474D01*
X0072617Y0351576D01*
X0072505Y0351681D01*
X0072396Y0351788D01*
X0072290Y0351899D01*
X0072187Y0352012D01*
X0072086Y0352128D01*
X0071989Y0352246D01*
X0071895Y0352367D01*
X0071804Y0352490D01*
X0071716Y0352615D01*
X0071632Y0352743D01*
X0071550Y0352873D01*
X0071473Y0353005D01*
X0071398Y0353139D01*
X0071328Y0353275D01*
X0071260Y0353413D01*
X0071197Y0353552D01*
X0071137Y0353693D01*
X0071080Y0353835D01*
X0071028Y0353979D01*
X0070979Y0354124D01*
X0070934Y0354271D01*
X0070893Y0354418D01*
X0070855Y0354567D01*
X0070822Y0354716D01*
X0070792Y0354867D01*
X0070766Y0355018D01*
X0070745Y0355169D01*
X0070727Y0355321D01*
X0070713Y0355474D01*
X0070703Y0355627D01*
X0070697Y0355780D01*
X0070695Y0355933D01*
D11*
X0276695Y0316638D02*
X0276695Y0310433D01*
X0276695Y0313536D02*
X0278764Y0313536D01*
X0276695Y0316638D02*
X0280832Y0316638D01*
X0283141Y0316638D02*
X0287277Y0310433D01*
X0289586Y0311467D02*
X0290620Y0310433D01*
X0292689Y0310433D01*
X0293723Y0311467D01*
X0293723Y0312502D01*
X0292689Y0313536D01*
X0291655Y0313536D01*
X0292689Y0313536D02*
X0293723Y0314570D01*
X0293723Y0315604D01*
X0292689Y0316638D01*
X0290620Y0316638D01*
X0289586Y0315604D01*
X0287277Y0316638D02*
X0283141Y0310433D01*
X0279798Y0306138D02*
X0280832Y0305104D01*
X0280832Y0304070D01*
X0279798Y0303036D01*
X0276695Y0303036D01*
X0276695Y0306138D02*
X0276695Y0299933D01*
X0279798Y0299933D01*
X0280832Y0300967D01*
X0280832Y0302002D01*
X0279798Y0303036D01*
X0279798Y0306138D02*
X0276695Y0306138D01*
X0283141Y0304070D02*
X0283141Y0299933D01*
X0283141Y0302002D02*
X0285209Y0304070D01*
X0286243Y0304070D01*
X0288512Y0303036D02*
X0289546Y0304070D01*
X0291615Y0304070D01*
X0292649Y0303036D01*
X0292649Y0302002D01*
X0288512Y0302002D01*
X0288512Y0303036D02*
X0288512Y0300967D01*
X0289546Y0299933D01*
X0291615Y0299933D01*
X0294957Y0300967D02*
X0295992Y0302002D01*
X0299094Y0302002D01*
X0299094Y0303036D02*
X0299094Y0299933D01*
X0295992Y0299933D01*
X0294957Y0300967D01*
X0295992Y0304070D02*
X0298060Y0304070D01*
X0299094Y0303036D01*
X0301403Y0302002D02*
X0304506Y0304070D01*
X0306774Y0303036D02*
X0306774Y0300967D01*
X0307808Y0299933D01*
X0309877Y0299933D01*
X0310911Y0300967D01*
X0310911Y0303036D01*
X0309877Y0304070D01*
X0307808Y0304070D01*
X0306774Y0303036D01*
X0304506Y0299933D02*
X0301403Y0302002D01*
X0301403Y0299933D02*
X0301403Y0306138D01*
X0302477Y0310433D02*
X0306614Y0310433D01*
X0304546Y0313536D02*
X0302477Y0313536D01*
X0302477Y0316638D02*
X0302477Y0310433D01*
X0308923Y0314570D02*
X0310991Y0310433D01*
X0313059Y0314570D01*
X0316402Y0314570D02*
X0318471Y0314570D01*
X0319505Y0313536D01*
X0319505Y0310433D01*
X0316402Y0310433D01*
X0315368Y0311467D01*
X0316402Y0312502D01*
X0319505Y0312502D01*
X0321814Y0310433D02*
X0323882Y0310433D01*
X0322848Y0310433D02*
X0322848Y0316638D01*
X0321814Y0316638D01*
X0332556Y0314570D02*
X0333590Y0314570D01*
X0333590Y0310433D01*
X0332556Y0310433D02*
X0334625Y0310433D01*
X0336853Y0311467D02*
X0337887Y0310433D01*
X0339956Y0310433D01*
X0340990Y0311467D01*
X0340990Y0312502D01*
X0339956Y0313536D01*
X0337887Y0313536D01*
X0336853Y0314570D01*
X0336853Y0315604D01*
X0337887Y0316638D01*
X0339956Y0316638D01*
X0340990Y0315604D01*
X0343299Y0313536D02*
X0344333Y0314570D01*
X0346401Y0314570D01*
X0347435Y0313536D01*
X0347435Y0312502D01*
X0343299Y0312502D01*
X0343299Y0313536D02*
X0343299Y0311467D01*
X0344333Y0310433D01*
X0346401Y0310433D01*
X0349744Y0310433D02*
X0349744Y0314570D01*
X0352847Y0314570D01*
X0353881Y0313536D01*
X0353881Y0310433D01*
X0356190Y0310433D02*
X0359292Y0310433D01*
X0360326Y0311467D01*
X0359292Y0312502D01*
X0357224Y0312502D01*
X0356190Y0313536D01*
X0357224Y0314570D01*
X0360326Y0314570D01*
X0362635Y0313536D02*
X0362635Y0311467D01*
X0363669Y0310433D01*
X0365738Y0310433D01*
X0366772Y0311467D01*
X0366772Y0313536D01*
X0365738Y0314570D01*
X0363669Y0314570D01*
X0362635Y0313536D01*
X0369081Y0314570D02*
X0369081Y0310433D01*
X0369081Y0312502D02*
X0371149Y0314570D01*
X0372183Y0314570D01*
X0333590Y0316638D02*
X0333590Y0317673D01*
X0306614Y0316638D02*
X0302477Y0316638D01*
X0320699Y0305104D02*
X0320699Y0300967D01*
X0321734Y0299933D01*
X0321734Y0304070D02*
X0319665Y0304070D01*
X0317356Y0304070D02*
X0317356Y0299933D01*
X0314254Y0299933D01*
X0313220Y0300967D01*
X0313220Y0304070D01*
X0302095Y0289933D02*
X0304595Y0287433D01*
X0304595Y0282433D01*
X0302095Y0279933D01*
X0304595Y0277433D01*
X0304595Y0272433D01*
X0302095Y0269933D01*
X0304595Y0267433D01*
X0304595Y0262433D01*
X0302095Y0259933D01*
X0304595Y0257433D01*
X0304595Y0252433D01*
X0302095Y0249933D01*
X0304595Y0247433D01*
X0304595Y0242433D01*
X0302095Y0239933D01*
X0304595Y0237433D01*
X0304595Y0232433D01*
X0302095Y0229933D01*
X0304595Y0227433D01*
X0304595Y0222433D01*
X0302095Y0219933D01*
X0304595Y0217433D01*
X0304595Y0212433D01*
X0302095Y0209933D01*
X0304595Y0207433D01*
X0304595Y0202433D01*
X0302095Y0199933D01*
X0304595Y0197433D01*
X0304595Y0192433D01*
X0302095Y0189933D01*
X0304595Y0187433D01*
X0304595Y0182433D01*
X0302095Y0179933D01*
X0304595Y0177433D01*
X0304595Y0172433D01*
X0302095Y0169933D01*
X0304595Y0167433D01*
X0304595Y0162433D01*
X0302095Y0159933D01*
X0304595Y0157433D01*
X0304595Y0152433D01*
X0302095Y0149933D01*
X0304595Y0147433D01*
X0304595Y0142433D01*
X0302095Y0139933D01*
X0304595Y0137433D01*
X0304595Y0132433D01*
X0302095Y0129933D01*
X0304595Y0127433D01*
X0304595Y0122433D01*
X0302095Y0119933D01*
X0304595Y0117433D01*
X0304595Y0112433D01*
X0302095Y0109933D01*
X0297095Y0109933D01*
X0294595Y0112433D01*
X0294595Y0117433D01*
X0297095Y0119933D01*
X0294595Y0122433D01*
X0294595Y0127433D01*
X0297095Y0129933D01*
X0294595Y0132433D01*
X0294595Y0137433D01*
X0297095Y0139933D01*
X0294595Y0142433D01*
X0294595Y0147433D01*
X0297095Y0149933D01*
X0294595Y0152433D01*
X0294595Y0157433D01*
X0297095Y0159933D01*
X0294595Y0162433D01*
X0294595Y0167433D01*
X0297095Y0169933D01*
X0294595Y0172433D01*
X0294595Y0177433D01*
X0297095Y0179933D01*
X0294595Y0182433D01*
X0294595Y0187433D01*
X0297095Y0189933D01*
X0294595Y0192433D01*
X0294595Y0197433D01*
X0297095Y0199933D01*
X0294595Y0202433D01*
X0294595Y0207433D01*
X0297095Y0209933D01*
X0294595Y0212433D01*
X0294595Y0217433D01*
X0297095Y0219933D01*
X0294595Y0222433D01*
X0294595Y0227433D01*
X0297095Y0229933D01*
X0294595Y0232433D01*
X0294595Y0237433D01*
X0297095Y0239933D01*
X0294595Y0242433D01*
X0294595Y0247433D01*
X0297095Y0249933D01*
X0294595Y0252433D01*
X0294595Y0257433D01*
X0297095Y0259933D01*
X0294595Y0262433D01*
X0294595Y0267433D01*
X0297095Y0269933D01*
X0294595Y0272433D01*
X0294595Y0277433D01*
X0297095Y0279933D01*
X0294595Y0282433D01*
X0294595Y0287433D01*
X0297095Y0289933D01*
X0302095Y0289933D01*
X0299595Y0332933D02*
X0294595Y0332933D01*
X0292095Y0335433D01*
X0292095Y0340433D01*
X0294595Y0342933D01*
X0292095Y0345433D01*
X0292095Y0350433D01*
X0294595Y0352933D01*
X0292095Y0355433D01*
X0292095Y0360433D01*
X0294595Y0362933D01*
X0299595Y0362933D01*
X0302095Y0360433D01*
X0302095Y0355433D01*
X0299595Y0352933D01*
X0302095Y0350433D01*
X0302095Y0345433D01*
X0299595Y0342933D01*
X0302095Y0340433D01*
X0302095Y0335433D01*
X0299595Y0332933D01*
X0324390Y0341941D02*
X0324390Y0345878D01*
X0368485Y0345878D01*
X0368485Y0341941D01*
X0324390Y0341941D01*
X0324390Y0345878D02*
X0324390Y0371469D01*
X0368485Y0371469D01*
X0368485Y0345878D01*
D12*
X0309945Y0345400D02*
X0309945Y0347252D01*
X0309328Y0347869D01*
X0308711Y0347869D01*
X0308094Y0347252D01*
X0308094Y0345400D01*
X0308711Y0344186D02*
X0309328Y0344186D01*
X0309945Y0343568D01*
X0309945Y0342334D01*
X0309328Y0341717D01*
X0309328Y0340502D02*
X0306242Y0340502D01*
X0306859Y0341717D02*
X0307476Y0341717D01*
X0308094Y0342334D01*
X0308094Y0343568D01*
X0308711Y0344186D01*
X0309945Y0345400D02*
X0306242Y0345400D01*
X0306242Y0347252D01*
X0306859Y0347869D01*
X0307476Y0347869D01*
X0308094Y0347252D01*
X0306859Y0344186D02*
X0306242Y0343568D01*
X0306242Y0342334D01*
X0306859Y0341717D01*
X0309328Y0340502D02*
X0309945Y0339885D01*
X0309945Y0338651D01*
X0309328Y0338034D01*
X0306242Y0338034D01*
X0300414Y0331286D02*
X0298562Y0329435D01*
X0301031Y0329435D01*
X0300414Y0331286D02*
X0300414Y0327583D01*
X0296730Y0328200D02*
X0296113Y0327583D01*
X0295496Y0327583D01*
X0294879Y0328200D01*
X0296730Y0328200D02*
X0296730Y0331286D01*
X0296113Y0331286D02*
X0297348Y0331286D01*
X0287945Y0348583D02*
X0287945Y0351052D01*
X0287945Y0352266D02*
X0284242Y0354735D01*
X0284242Y0355949D02*
X0284242Y0358418D01*
X0284242Y0357184D02*
X0287945Y0357184D01*
X0287945Y0354735D02*
X0284242Y0352266D01*
X0284242Y0351052D02*
X0284242Y0348583D01*
X0287945Y0348583D01*
X0286094Y0348583D02*
X0286094Y0349817D01*
X0255945Y0308869D02*
X0255945Y0306400D01*
X0253476Y0308869D01*
X0252859Y0308869D01*
X0252242Y0308252D01*
X0252242Y0307017D01*
X0252859Y0306400D01*
X0252242Y0305186D02*
X0252242Y0303951D01*
X0252242Y0304568D02*
X0255328Y0304568D01*
X0255945Y0303951D01*
X0255945Y0303334D01*
X0255328Y0302717D01*
X0342909Y0250188D02*
X0344143Y0250188D01*
X0343526Y0250188D02*
X0343526Y0247102D01*
X0342909Y0246485D01*
X0342291Y0246485D01*
X0341674Y0247102D01*
X0345357Y0247102D02*
X0345975Y0246485D01*
X0347209Y0246485D01*
X0347826Y0247102D01*
X0347826Y0248336D01*
X0347209Y0248953D01*
X0346592Y0248953D01*
X0345357Y0248336D01*
X0345357Y0250188D01*
X0347826Y0250188D01*
X0123945Y0223369D02*
X0123945Y0220900D01*
X0123945Y0219686D02*
X0122711Y0218451D01*
X0122711Y0219068D02*
X0122711Y0217217D01*
X0123945Y0217217D02*
X0120242Y0217217D01*
X0120242Y0219068D01*
X0120859Y0219686D01*
X0122094Y0219686D01*
X0122711Y0219068D01*
X0121476Y0220900D02*
X0120242Y0222134D01*
X0123945Y0222134D01*
X0123945Y0213369D02*
X0123945Y0210900D01*
X0121476Y0213369D01*
X0120859Y0213369D01*
X0120242Y0212752D01*
X0120242Y0211517D01*
X0120859Y0210900D01*
X0120859Y0209686D02*
X0122094Y0209686D01*
X0122711Y0209068D01*
X0122711Y0207217D01*
X0123945Y0207217D02*
X0120242Y0207217D01*
X0120242Y0209068D01*
X0120859Y0209686D01*
X0122711Y0208451D02*
X0123945Y0209686D01*
X0122094Y0203369D02*
X0122094Y0200900D01*
X0120242Y0202752D01*
X0123945Y0202752D01*
X0123945Y0199686D02*
X0122711Y0198451D01*
X0122711Y0199068D02*
X0122711Y0197217D01*
X0123945Y0197217D02*
X0120242Y0197217D01*
X0120242Y0199068D01*
X0120859Y0199686D01*
X0122094Y0199686D01*
X0122711Y0199068D01*
X0122711Y0193369D02*
X0123328Y0193369D01*
X0123945Y0192752D01*
X0123945Y0191517D01*
X0123328Y0190900D01*
X0123945Y0189686D02*
X0122711Y0188451D01*
X0122711Y0189068D02*
X0122711Y0187217D01*
X0123945Y0187217D02*
X0120242Y0187217D01*
X0120242Y0189068D01*
X0120859Y0189686D01*
X0122094Y0189686D01*
X0122711Y0189068D01*
X0120859Y0190900D02*
X0120242Y0191517D01*
X0120242Y0192752D01*
X0120859Y0193369D01*
X0121476Y0193369D01*
X0122094Y0192752D01*
X0122711Y0193369D01*
X0122094Y0192752D02*
X0122094Y0192134D01*
X0091728Y0303117D02*
X0092345Y0303734D01*
X0092345Y0304351D01*
X0091728Y0304968D01*
X0088642Y0304968D01*
X0088642Y0304351D02*
X0088642Y0305586D01*
X0089876Y0306800D02*
X0088642Y0308034D01*
X0092345Y0308034D01*
X0092345Y0306800D02*
X0092345Y0309269D01*
D13*
X0290095Y0345433D02*
X0290095Y0360933D01*
X0304095Y0350433D02*
X0304095Y0334933D01*
D14*
X0048595Y0371933D02*
X0048595Y0047933D01*
X0269595Y0047933D01*
X0269595Y0371933D01*
X0048595Y0371933D01*
X0143395Y0350137D02*
X0143395Y0346467D01*
X0144129Y0345733D01*
X0145597Y0345733D01*
X0146331Y0346467D01*
X0146331Y0350137D01*
X0147999Y0349403D02*
X0147999Y0348669D01*
X0148733Y0347935D01*
X0150201Y0347935D01*
X0150935Y0347201D01*
X0150935Y0346467D01*
X0150201Y0345733D01*
X0148733Y0345733D01*
X0147999Y0346467D01*
X0147999Y0349403D02*
X0148733Y0350137D01*
X0150201Y0350137D01*
X0150935Y0349403D01*
X0152603Y0350137D02*
X0152603Y0345733D01*
X0154805Y0345733D01*
X0155539Y0346467D01*
X0155539Y0347201D01*
X0154805Y0347935D01*
X0152603Y0347935D01*
X0152603Y0350137D02*
X0154805Y0350137D01*
X0155539Y0349403D01*
X0155539Y0348669D01*
X0154805Y0347935D01*
X0161811Y0349403D02*
X0162545Y0350137D01*
X0164013Y0350137D01*
X0164747Y0349403D01*
X0164747Y0348669D01*
X0164013Y0347935D01*
X0164747Y0347201D01*
X0164747Y0346467D01*
X0164013Y0345733D01*
X0162545Y0345733D01*
X0161811Y0346467D01*
X0163279Y0347935D02*
X0164013Y0347935D01*
X0166415Y0346467D02*
X0167149Y0346467D01*
X0167149Y0345733D01*
X0166415Y0345733D01*
X0166415Y0346467D01*
X0168717Y0346467D02*
X0171653Y0349403D01*
X0171653Y0346467D01*
X0170919Y0345733D01*
X0169451Y0345733D01*
X0168717Y0346467D01*
X0168717Y0349403D01*
X0169451Y0350137D01*
X0170919Y0350137D01*
X0171653Y0349403D01*
X0334391Y0338831D02*
X0334391Y0337363D01*
X0335125Y0336629D01*
X0338061Y0336629D01*
X0338795Y0337363D01*
X0338795Y0338831D01*
X0338061Y0339565D01*
X0335125Y0339565D02*
X0334391Y0338831D01*
X0335125Y0334961D02*
X0334391Y0334227D01*
X0334391Y0332759D01*
X0335125Y0332025D01*
X0338061Y0332025D01*
X0338795Y0332759D01*
X0338795Y0334227D01*
X0338061Y0334961D01*
X0337327Y0330357D02*
X0334391Y0330357D01*
X0334391Y0327421D02*
X0337327Y0327421D01*
X0338795Y0328889D01*
X0337327Y0330357D01*
X0354391Y0329623D02*
X0354391Y0328155D01*
X0355125Y0327421D01*
X0358061Y0327421D01*
X0358795Y0328155D01*
X0358795Y0329623D01*
X0358061Y0330357D01*
X0356593Y0330357D01*
X0356593Y0328889D01*
X0355125Y0330357D02*
X0354391Y0329623D01*
X0354391Y0332025D02*
X0358795Y0334961D01*
X0354391Y0334961D01*
X0354391Y0336629D02*
X0354391Y0338831D01*
X0355125Y0339565D01*
X0358061Y0339565D01*
X0358795Y0338831D01*
X0358795Y0336629D01*
X0354391Y0336629D01*
X0354391Y0332025D02*
X0358795Y0332025D01*
X0197363Y0177571D02*
X0196295Y0178639D01*
X0194160Y0178639D01*
X0193093Y0177571D01*
X0190917Y0177571D02*
X0186647Y0173301D01*
X0187715Y0172233D01*
X0189850Y0172233D01*
X0190917Y0173301D01*
X0190917Y0177571D01*
X0189850Y0178639D01*
X0187715Y0178639D01*
X0186647Y0177571D01*
X0186647Y0173301D01*
X0184472Y0173301D02*
X0184472Y0177571D01*
X0180202Y0173301D01*
X0181269Y0172233D01*
X0183404Y0172233D01*
X0184472Y0173301D01*
X0184472Y0177571D02*
X0183404Y0178639D01*
X0181269Y0178639D01*
X0180202Y0177571D01*
X0180202Y0173301D01*
X0178026Y0175436D02*
X0173756Y0175436D01*
X0171581Y0178639D02*
X0167311Y0178639D01*
X0169446Y0178639D02*
X0169446Y0172233D01*
X0165149Y0172233D02*
X0163014Y0172233D01*
X0164081Y0172233D02*
X0164081Y0178639D01*
X0163014Y0178639D02*
X0165149Y0178639D01*
X0160838Y0178639D02*
X0156568Y0174368D01*
X0157636Y0175436D02*
X0160838Y0172233D01*
X0156568Y0172233D02*
X0156568Y0178639D01*
X0154393Y0177571D02*
X0153325Y0178639D01*
X0151190Y0178639D01*
X0150123Y0177571D01*
X0147947Y0177571D02*
X0147947Y0176503D01*
X0146880Y0175436D01*
X0143677Y0175436D01*
X0141502Y0174368D02*
X0141502Y0173301D01*
X0140434Y0172233D01*
X0138299Y0172233D01*
X0137232Y0173301D01*
X0135056Y0173301D02*
X0135056Y0178639D01*
X0137232Y0177571D02*
X0138299Y0178639D01*
X0140434Y0178639D01*
X0141502Y0177571D01*
X0140434Y0175436D02*
X0141502Y0174368D01*
X0140434Y0175436D02*
X0138299Y0175436D01*
X0137232Y0176503D01*
X0137232Y0177571D01*
X0135056Y0173301D02*
X0133989Y0172233D01*
X0131854Y0172233D01*
X0130786Y0173301D01*
X0130786Y0178639D01*
X0128611Y0178639D02*
X0128611Y0177571D01*
X0126476Y0175436D01*
X0126476Y0172233D01*
X0126476Y0175436D02*
X0124341Y0177571D01*
X0124341Y0178639D01*
X0122165Y0177571D02*
X0121098Y0178639D01*
X0118963Y0178639D01*
X0117895Y0177571D01*
X0117895Y0173301D01*
X0118963Y0172233D01*
X0121098Y0172233D01*
X0122165Y0173301D01*
X0143677Y0172233D02*
X0143677Y0178639D01*
X0146880Y0178639D01*
X0147947Y0177571D01*
X0146880Y0175436D02*
X0147947Y0174368D01*
X0147947Y0173301D01*
X0146880Y0172233D01*
X0143677Y0172233D01*
X0150123Y0173301D02*
X0151190Y0172233D01*
X0153325Y0172233D01*
X0154393Y0173301D01*
X0154393Y0174368D01*
X0153325Y0175436D01*
X0152258Y0175436D01*
X0153325Y0175436D02*
X0154393Y0176503D01*
X0154393Y0177571D01*
X0193093Y0173301D02*
X0194160Y0172233D01*
X0196295Y0172233D01*
X0197363Y0173301D01*
X0197363Y0174368D01*
X0196295Y0175436D01*
X0195228Y0175436D01*
X0196295Y0175436D02*
X0197363Y0176503D01*
X0197363Y0177571D01*
D15*
X0178095Y0330433D02*
X0135595Y0330433D01*
X0135595Y0360433D01*
X0178095Y0360433D02*
X0178095Y0330433D01*
D16*
X0222595Y0311933D02*
X0259595Y0311933D01*
X0259595Y0107933D01*
X0222595Y0107933D01*
X0222595Y0311933D01*
X0277464Y0286687D02*
X0278965Y0285186D01*
X0280467Y0286687D01*
X0280467Y0282183D01*
X0282068Y0282934D02*
X0282819Y0282183D01*
X0284320Y0282183D01*
X0285071Y0282934D01*
X0285071Y0285936D01*
X0284320Y0286687D01*
X0282819Y0286687D01*
X0282068Y0285936D01*
X0282068Y0282934D01*
X0286672Y0282934D02*
X0287423Y0282183D01*
X0288924Y0282183D01*
X0289674Y0282934D01*
X0289674Y0283684D01*
X0288924Y0284435D01*
X0287423Y0284435D01*
X0286672Y0285186D01*
X0286672Y0285936D01*
X0287423Y0286687D01*
X0288924Y0286687D01*
X0289674Y0285936D01*
X0291276Y0286687D02*
X0292777Y0286687D01*
X0292026Y0286687D02*
X0292026Y0282183D01*
X0291276Y0282183D02*
X0292777Y0282183D01*
X0277464Y0282183D02*
X0277464Y0286687D01*
X0306345Y0275936D02*
X0306345Y0272934D01*
X0307096Y0272183D01*
X0308597Y0272183D01*
X0309348Y0272934D01*
X0309348Y0274435D01*
X0307846Y0274435D01*
X0306345Y0275936D02*
X0307096Y0276687D01*
X0308597Y0276687D01*
X0309348Y0275936D01*
X0310949Y0276687D02*
X0313952Y0272183D01*
X0313952Y0276687D01*
X0315553Y0276687D02*
X0317805Y0276687D01*
X0318556Y0275936D01*
X0318556Y0272934D01*
X0317805Y0272183D01*
X0315553Y0272183D01*
X0315553Y0276687D01*
X0310949Y0276687D02*
X0310949Y0272183D01*
X0292744Y0265936D02*
X0292744Y0262934D01*
X0291993Y0262183D01*
X0290492Y0262183D01*
X0289741Y0262934D01*
X0289741Y0265936D01*
X0290492Y0266687D01*
X0291993Y0266687D01*
X0292744Y0265936D01*
X0288140Y0265936D02*
X0287389Y0266687D01*
X0285888Y0266687D01*
X0285137Y0265936D01*
X0285137Y0265186D01*
X0285888Y0264435D01*
X0287389Y0264435D01*
X0288140Y0263684D01*
X0288140Y0262934D01*
X0287389Y0262183D01*
X0285888Y0262183D01*
X0285137Y0262934D01*
X0283569Y0262183D02*
X0282068Y0262183D01*
X0282819Y0262183D02*
X0282819Y0266687D01*
X0283569Y0266687D02*
X0282068Y0266687D01*
X0280467Y0266687D02*
X0280467Y0262183D01*
X0277464Y0262183D02*
X0277464Y0266687D01*
X0278965Y0265186D01*
X0280467Y0266687D01*
X0306345Y0255936D02*
X0306345Y0252934D01*
X0307096Y0252183D01*
X0308597Y0252183D01*
X0309348Y0252934D01*
X0309348Y0254435D01*
X0307846Y0254435D01*
X0306345Y0255936D02*
X0307096Y0256687D01*
X0308597Y0256687D01*
X0309348Y0255936D01*
X0310949Y0256687D02*
X0313952Y0252183D01*
X0313952Y0256687D01*
X0315553Y0256687D02*
X0315553Y0252183D01*
X0317805Y0252183D01*
X0318556Y0252934D01*
X0318556Y0255936D01*
X0317805Y0256687D01*
X0315553Y0256687D01*
X0310949Y0256687D02*
X0310949Y0252183D01*
X0292744Y0246687D02*
X0289741Y0243684D01*
X0290492Y0244435D02*
X0292744Y0242183D01*
X0289741Y0242183D02*
X0289741Y0246687D01*
X0285137Y0246687D02*
X0285137Y0242183D01*
X0288140Y0242183D01*
X0283536Y0242934D02*
X0282785Y0242183D01*
X0281284Y0242183D01*
X0280533Y0242934D01*
X0280533Y0245936D01*
X0281284Y0246687D01*
X0282785Y0246687D01*
X0283536Y0245936D01*
X0278932Y0245936D02*
X0278181Y0246687D01*
X0276680Y0246687D01*
X0275929Y0245936D01*
X0275929Y0245186D01*
X0276680Y0244435D01*
X0278181Y0244435D01*
X0278932Y0243684D01*
X0278932Y0242934D01*
X0278181Y0242183D01*
X0276680Y0242183D01*
X0275929Y0242934D01*
X0306345Y0235936D02*
X0306345Y0232934D01*
X0307096Y0232183D01*
X0308597Y0232183D01*
X0309348Y0232934D01*
X0309348Y0234435D01*
X0307846Y0234435D01*
X0306345Y0235936D02*
X0307096Y0236687D01*
X0308597Y0236687D01*
X0309348Y0235936D01*
X0310949Y0236687D02*
X0313952Y0232183D01*
X0313952Y0236687D01*
X0315553Y0236687D02*
X0315553Y0232183D01*
X0317805Y0232183D01*
X0318556Y0232934D01*
X0318556Y0235936D01*
X0317805Y0236687D01*
X0315553Y0236687D01*
X0310949Y0236687D02*
X0310949Y0232183D01*
X0292744Y0225936D02*
X0289741Y0222934D01*
X0290492Y0222183D01*
X0291993Y0222183D01*
X0292744Y0222934D01*
X0292744Y0225936D01*
X0291993Y0226687D01*
X0290492Y0226687D01*
X0289741Y0225936D01*
X0289741Y0222934D01*
X0288140Y0222934D02*
X0287389Y0222183D01*
X0285888Y0222183D01*
X0285137Y0222934D01*
X0283536Y0222934D02*
X0282785Y0222183D01*
X0281284Y0222183D01*
X0280533Y0222934D01*
X0280533Y0225936D01*
X0281284Y0226687D01*
X0282785Y0226687D01*
X0283536Y0225936D01*
X0285137Y0225936D02*
X0285137Y0225186D01*
X0285888Y0224435D01*
X0287389Y0224435D01*
X0288140Y0223684D01*
X0288140Y0222934D01*
X0288140Y0225936D02*
X0287389Y0226687D01*
X0285888Y0226687D01*
X0285137Y0225936D01*
X0306345Y0215936D02*
X0306345Y0212934D01*
X0307096Y0212183D01*
X0308597Y0212183D01*
X0309348Y0212934D01*
X0309348Y0214435D01*
X0307846Y0214435D01*
X0306345Y0215936D02*
X0307096Y0216687D01*
X0308597Y0216687D01*
X0309348Y0215936D01*
X0310949Y0216687D02*
X0313952Y0212183D01*
X0313952Y0216687D01*
X0315553Y0216687D02*
X0315553Y0212183D01*
X0317805Y0212183D01*
X0318556Y0212934D01*
X0318556Y0215936D01*
X0317805Y0216687D01*
X0315553Y0216687D01*
X0310949Y0216687D02*
X0310949Y0212183D01*
X0291242Y0206687D02*
X0291242Y0202183D01*
X0289741Y0202183D02*
X0292744Y0202183D01*
X0289741Y0205186D02*
X0291242Y0206687D01*
X0288140Y0205936D02*
X0287389Y0206687D01*
X0285888Y0206687D01*
X0285137Y0205936D01*
X0285137Y0202934D01*
X0285888Y0202183D01*
X0287389Y0202183D01*
X0288140Y0202934D01*
X0288140Y0205936D01*
X0283569Y0206687D02*
X0282068Y0206687D01*
X0282819Y0206687D02*
X0282819Y0202183D01*
X0283569Y0202183D02*
X0282068Y0202183D01*
X0280467Y0202934D02*
X0280467Y0205936D01*
X0279716Y0206687D01*
X0277464Y0206687D01*
X0277464Y0202183D01*
X0279716Y0202183D01*
X0280467Y0202934D01*
X0306345Y0195936D02*
X0306345Y0192934D01*
X0307096Y0192183D01*
X0308597Y0192183D01*
X0309348Y0192934D01*
X0309348Y0194435D01*
X0307846Y0194435D01*
X0306345Y0195936D02*
X0307096Y0196687D01*
X0308597Y0196687D01*
X0309348Y0195936D01*
X0310949Y0196687D02*
X0313952Y0192183D01*
X0313952Y0196687D01*
X0315553Y0196687D02*
X0315553Y0192183D01*
X0317805Y0192183D01*
X0318556Y0192934D01*
X0318556Y0195936D01*
X0317805Y0196687D01*
X0315553Y0196687D01*
X0310949Y0196687D02*
X0310949Y0192183D01*
X0292744Y0185936D02*
X0292744Y0185186D01*
X0289741Y0182183D01*
X0292744Y0182183D01*
X0292744Y0185936D02*
X0291993Y0186687D01*
X0290492Y0186687D01*
X0289741Y0185936D01*
X0288140Y0185936D02*
X0287389Y0186687D01*
X0285888Y0186687D01*
X0285137Y0185936D01*
X0285137Y0182934D01*
X0285888Y0182183D01*
X0287389Y0182183D01*
X0288140Y0182934D01*
X0288140Y0185936D01*
X0283569Y0186687D02*
X0282068Y0186687D01*
X0282819Y0186687D02*
X0282819Y0182183D01*
X0283569Y0182183D02*
X0282068Y0182183D01*
X0280467Y0182934D02*
X0280467Y0185936D01*
X0279716Y0186687D01*
X0277464Y0186687D01*
X0277464Y0182183D01*
X0279716Y0182183D01*
X0280467Y0182934D01*
X0306345Y0175936D02*
X0306345Y0172934D01*
X0307096Y0172183D01*
X0308597Y0172183D01*
X0309348Y0172934D01*
X0309348Y0174435D01*
X0307846Y0174435D01*
X0306345Y0175936D02*
X0307096Y0176687D01*
X0308597Y0176687D01*
X0309348Y0175936D01*
X0310949Y0176687D02*
X0313952Y0172183D01*
X0313952Y0176687D01*
X0315553Y0176687D02*
X0315553Y0172183D01*
X0317805Y0172183D01*
X0318556Y0172934D01*
X0318556Y0175936D01*
X0317805Y0176687D01*
X0315553Y0176687D01*
X0310949Y0176687D02*
X0310949Y0172183D01*
X0292744Y0165936D02*
X0292744Y0165186D01*
X0291993Y0164435D01*
X0292744Y0163684D01*
X0292744Y0162934D01*
X0291993Y0162183D01*
X0290492Y0162183D01*
X0289741Y0162934D01*
X0288140Y0162934D02*
X0288140Y0165936D01*
X0287389Y0166687D01*
X0285888Y0166687D01*
X0285137Y0165936D01*
X0285137Y0162934D01*
X0285888Y0162183D01*
X0287389Y0162183D01*
X0288140Y0162934D01*
X0289741Y0165936D02*
X0290492Y0166687D01*
X0291993Y0166687D01*
X0292744Y0165936D01*
X0291993Y0164435D02*
X0291242Y0164435D01*
X0283569Y0162183D02*
X0282068Y0162183D01*
X0282819Y0162183D02*
X0282819Y0166687D01*
X0283569Y0166687D02*
X0282068Y0166687D01*
X0280467Y0165936D02*
X0279716Y0166687D01*
X0277464Y0166687D01*
X0277464Y0162183D01*
X0279716Y0162183D01*
X0280467Y0162934D01*
X0280467Y0165936D01*
X0306345Y0155936D02*
X0306345Y0152934D01*
X0307096Y0152183D01*
X0308597Y0152183D01*
X0309348Y0152934D01*
X0309348Y0154435D01*
X0307846Y0154435D01*
X0306345Y0155936D02*
X0307096Y0156687D01*
X0308597Y0156687D01*
X0309348Y0155936D01*
X0310949Y0156687D02*
X0313952Y0152183D01*
X0313952Y0156687D01*
X0315553Y0156687D02*
X0315553Y0152183D01*
X0317805Y0152183D01*
X0318556Y0152934D01*
X0318556Y0155936D01*
X0317805Y0156687D01*
X0315553Y0156687D01*
X0310949Y0156687D02*
X0310949Y0152183D01*
X0291993Y0146687D02*
X0289741Y0144435D01*
X0292744Y0144435D01*
X0291993Y0142183D02*
X0291993Y0146687D01*
X0288140Y0145936D02*
X0287389Y0146687D01*
X0285888Y0146687D01*
X0285137Y0145936D01*
X0285137Y0142934D01*
X0285888Y0142183D01*
X0287389Y0142183D01*
X0288140Y0142934D01*
X0288140Y0145936D01*
X0283569Y0146687D02*
X0282068Y0146687D01*
X0282819Y0146687D02*
X0282819Y0142183D01*
X0283569Y0142183D02*
X0282068Y0142183D01*
X0280467Y0142934D02*
X0279716Y0142183D01*
X0277464Y0142183D01*
X0277464Y0146687D01*
X0279716Y0146687D01*
X0280467Y0145936D01*
X0280467Y0142934D01*
X0306345Y0135936D02*
X0306345Y0132934D01*
X0307096Y0132183D01*
X0308597Y0132183D01*
X0309348Y0132934D01*
X0309348Y0134435D01*
X0307846Y0134435D01*
X0306345Y0135936D02*
X0307096Y0136687D01*
X0308597Y0136687D01*
X0309348Y0135936D01*
X0310949Y0136687D02*
X0313952Y0132183D01*
X0313952Y0136687D01*
X0315553Y0136687D02*
X0315553Y0132183D01*
X0317805Y0132183D01*
X0318556Y0132934D01*
X0318556Y0135936D01*
X0317805Y0136687D01*
X0315553Y0136687D01*
X0310949Y0136687D02*
X0310949Y0132183D01*
X0292744Y0126687D02*
X0289741Y0126687D01*
X0291242Y0126687D02*
X0291242Y0122183D01*
X0288140Y0122934D02*
X0287389Y0122183D01*
X0285888Y0122183D01*
X0285137Y0122934D01*
X0285888Y0124435D02*
X0287389Y0124435D01*
X0288140Y0123684D01*
X0288140Y0122934D01*
X0285888Y0124435D02*
X0285137Y0125186D01*
X0285137Y0125936D01*
X0285888Y0126687D01*
X0287389Y0126687D01*
X0288140Y0125936D01*
X0283536Y0125936D02*
X0283536Y0124435D01*
X0282785Y0123684D01*
X0280533Y0123684D01*
X0280533Y0122183D02*
X0280533Y0126687D01*
X0282785Y0126687D01*
X0283536Y0125936D01*
X0282035Y0123684D02*
X0283536Y0122183D01*
X0306345Y0115936D02*
X0306345Y0112934D01*
X0307096Y0112183D01*
X0308597Y0112183D01*
X0309348Y0112934D01*
X0309348Y0114435D01*
X0307846Y0114435D01*
X0306345Y0115936D02*
X0307096Y0116687D01*
X0308597Y0116687D01*
X0309348Y0115936D01*
X0310949Y0116687D02*
X0313952Y0112183D01*
X0313952Y0116687D01*
X0315553Y0116687D02*
X0315553Y0112183D01*
X0317805Y0112183D01*
X0318556Y0112934D01*
X0318556Y0115936D01*
X0317805Y0116687D01*
X0315553Y0116687D01*
X0310949Y0116687D02*
X0310949Y0112183D01*
X0332213Y0173500D02*
X0332213Y0236492D01*
X0340087Y0244366D01*
X0371583Y0244366D01*
X0371583Y0173500D01*
X0332213Y0173500D01*
X0095595Y0107933D02*
X0058595Y0107933D01*
X0058595Y0311933D01*
X0095595Y0311933D01*
X0095595Y0107933D01*
X0332162Y0365183D02*
X0332479Y0365183D01*
X0332796Y0365500D01*
X0332796Y0367085D01*
X0332479Y0367085D02*
X0333113Y0367085D01*
X0334055Y0366768D02*
X0334372Y0367085D01*
X0335006Y0367085D01*
X0335323Y0366768D01*
X0335323Y0366451D01*
X0335006Y0366134D01*
X0335323Y0365817D01*
X0335323Y0365500D01*
X0335006Y0365183D01*
X0334372Y0365183D01*
X0334055Y0365500D01*
X0334689Y0366134D02*
X0335006Y0366134D01*
X0332162Y0365183D02*
X0331845Y0365500D01*
D17*
X0329795Y0064933D03*
X0329795Y0064733D03*
X0329795Y0064533D03*
X0329795Y0064333D03*
X0329795Y0064133D03*
X0331195Y0063733D03*
X0331195Y0063533D03*
X0331195Y0063333D03*
X0331195Y0061133D03*
X0331195Y0060933D03*
X0331195Y0060733D03*
X0333995Y0060733D03*
X0334195Y0061133D03*
X0334195Y0061333D03*
X0333995Y0063533D03*
X0333995Y0063733D03*
X0340395Y0063733D03*
X0340395Y0063533D03*
X0340595Y0063133D03*
X0340395Y0062733D03*
X0341995Y0062733D03*
X0341995Y0062533D03*
X0341995Y0062333D03*
X0341995Y0062133D03*
X0341995Y0061933D03*
X0341995Y0061733D03*
X0341995Y0061533D03*
X0341995Y0061333D03*
X0342195Y0061133D03*
X0342195Y0060933D03*
X0342195Y0060733D03*
X0341995Y0062933D03*
X0341995Y0063133D03*
X0342195Y0063333D03*
X0342195Y0063533D03*
X0342195Y0063733D03*
X0345195Y0063733D03*
X0345195Y0063533D03*
X0345195Y0063333D03*
X0345195Y0063133D03*
X0345195Y0062933D03*
X0345395Y0062733D03*
X0345395Y0062533D03*
X0345395Y0062333D03*
X0345395Y0062133D03*
X0345395Y0061933D03*
X0345395Y0061733D03*
X0345195Y0061533D03*
X0345195Y0061333D03*
X0345195Y0061133D03*
X0345195Y0060933D03*
X0345195Y0060733D03*
X0346995Y0060733D03*
X0346995Y0060933D03*
X0346995Y0061133D03*
X0346995Y0063333D03*
X0346995Y0063533D03*
X0346995Y0063733D03*
X0349795Y0063733D03*
X0349795Y0063533D03*
X0351395Y0063533D03*
X0351395Y0063333D03*
X0351395Y0063733D03*
X0351595Y0063933D03*
X0354195Y0063933D03*
X0356195Y0063933D03*
X0356195Y0063733D03*
X0356195Y0063533D03*
X0356195Y0063333D03*
X0356195Y0063133D03*
X0356195Y0062933D03*
X0356195Y0062733D03*
X0356195Y0062533D03*
X0356195Y0062333D03*
X0356195Y0062133D03*
X0356195Y0061933D03*
X0356195Y0061733D03*
X0356195Y0061533D03*
X0356195Y0061333D03*
X0356195Y0061133D03*
X0356195Y0060933D03*
X0356195Y0060733D03*
X0356195Y0060533D03*
X0356195Y0060333D03*
X0356195Y0060133D03*
X0356195Y0059933D03*
X0356195Y0059733D03*
X0356195Y0059533D03*
X0357995Y0060333D03*
X0357995Y0060533D03*
X0357995Y0060733D03*
X0357995Y0060933D03*
X0357995Y0061133D03*
X0357995Y0061333D03*
X0357995Y0061533D03*
X0357995Y0061733D03*
X0357995Y0062733D03*
X0357995Y0062933D03*
X0357995Y0063133D03*
X0357995Y0063333D03*
X0357995Y0063533D03*
X0357995Y0063733D03*
X0357995Y0063933D03*
X0356195Y0064133D03*
X0356195Y0064333D03*
X0356195Y0064533D03*
X0356195Y0064733D03*
X0356195Y0064933D03*
X0354395Y0061533D03*
X0354395Y0061333D03*
X0354395Y0061133D03*
X0354395Y0060933D03*
X0351595Y0060533D03*
X0351395Y0060933D03*
X0351395Y0061133D03*
X0349995Y0061133D03*
X0349795Y0060733D03*
X0360995Y0060933D03*
X0360995Y0061133D03*
X0360995Y0061333D03*
X0362595Y0061333D03*
X0362595Y0061133D03*
X0362595Y0060933D03*
X0362595Y0060733D03*
X0362595Y0060533D03*
X0362595Y0060333D03*
X0362595Y0061533D03*
X0362595Y0061733D03*
X0362595Y0061933D03*
X0362595Y0062133D03*
X0362595Y0062333D03*
X0362595Y0062533D03*
X0362595Y0062733D03*
X0362595Y0062933D03*
X0362595Y0063133D03*
X0362595Y0063333D03*
X0362595Y0063533D03*
X0362595Y0063733D03*
X0362595Y0063933D03*
X0362595Y0064133D03*
X0362595Y0064333D03*
X0362595Y0064533D03*
X0362595Y0064733D03*
X0362595Y0064933D03*
X0360795Y0063733D03*
X0360795Y0063533D03*
X0360795Y0063333D03*
X0360795Y0063133D03*
X0360795Y0062933D03*
X0366195Y0062933D03*
X0366195Y0062733D03*
X0366195Y0063133D03*
X0366195Y0063333D03*
X0366195Y0063533D03*
X0366195Y0063733D03*
X0366195Y0063933D03*
X0366195Y0061733D03*
X0366195Y0061533D03*
X0366195Y0061333D03*
X0366195Y0061133D03*
X0366195Y0060933D03*
X0366195Y0060733D03*
X0366195Y0060533D03*
X0366195Y0060333D03*
X0372195Y0064133D03*
X0372195Y0064333D03*
X0372995Y0063533D03*
X0372995Y0063333D03*
X0373595Y0063733D03*
X0373595Y0063933D03*
X0327195Y0063933D03*
X0327195Y0063733D03*
X0327195Y0063533D03*
X0327195Y0063333D03*
X0327195Y0063133D03*
X0327195Y0062933D03*
X0327195Y0062733D03*
X0327195Y0062533D03*
X0327195Y0062333D03*
X0327195Y0062133D03*
X0327195Y0061933D03*
X0327195Y0061733D03*
X0327195Y0061533D03*
X0327195Y0061333D03*
X0327195Y0061133D03*
X0327195Y0060933D03*
X0327195Y0060733D03*
X0327195Y0060533D03*
X0327195Y0060333D03*
X0327195Y0060133D03*
X0327195Y0059933D03*
X0327195Y0059733D03*
X0327195Y0059533D03*
X0325195Y0059533D03*
X0325195Y0059733D03*
X0324995Y0060133D03*
X0324995Y0060333D03*
X0324795Y0060733D03*
X0324595Y0061733D03*
X0324395Y0061933D03*
X0324395Y0062133D03*
X0324395Y0062333D03*
X0324195Y0062533D03*
X0324195Y0062733D03*
X0324195Y0062933D03*
X0322795Y0062933D03*
X0322795Y0062733D03*
X0322595Y0062533D03*
X0322595Y0062333D03*
X0322595Y0062133D03*
X0322395Y0061933D03*
X0322395Y0061733D03*
X0321995Y0060533D03*
X0321995Y0060333D03*
X0321795Y0060133D03*
X0321795Y0059933D03*
X0320195Y0059933D03*
X0320195Y0059733D03*
X0320195Y0059533D03*
X0320195Y0060133D03*
X0320195Y0060333D03*
X0320195Y0060533D03*
X0320195Y0060733D03*
X0320195Y0060933D03*
X0320195Y0061133D03*
X0320195Y0061333D03*
X0320195Y0061533D03*
X0320195Y0061733D03*
X0320195Y0062733D03*
X0320195Y0062933D03*
X0320195Y0063133D03*
X0320195Y0063333D03*
X0320195Y0063533D03*
X0320195Y0063733D03*
X0320195Y0063933D03*
X0320195Y0064133D03*
X0320195Y0064333D03*
X0320195Y0064533D03*
X0320195Y0064733D03*
X0320195Y0064933D03*
X0317195Y0064933D03*
X0317195Y0064733D03*
X0317195Y0064533D03*
X0317195Y0064333D03*
X0317195Y0064133D03*
X0317195Y0063933D03*
X0317195Y0063733D03*
X0317195Y0063533D03*
X0317195Y0063333D03*
X0317195Y0063133D03*
X0317195Y0062933D03*
X0317195Y0062733D03*
X0317195Y0061733D03*
X0317195Y0061533D03*
X0317195Y0061333D03*
X0317195Y0061133D03*
X0317195Y0060933D03*
X0317195Y0060733D03*
X0317195Y0060533D03*
X0317195Y0060333D03*
X0317195Y0060133D03*
X0317195Y0059933D03*
X0317195Y0059733D03*
X0317195Y0059533D03*
X0314995Y0061733D03*
X0314995Y0061933D03*
X0314995Y0062133D03*
X0315195Y0062533D03*
X0315195Y0062733D03*
X0315195Y0062933D03*
X0315395Y0063133D03*
X0315395Y0063333D03*
X0315395Y0063533D03*
X0315395Y0063733D03*
X0315595Y0063933D03*
X0315595Y0064133D03*
X0315595Y0064333D03*
X0315795Y0064733D03*
X0315795Y0064933D03*
X0312995Y0063933D03*
X0312995Y0063733D03*
X0312395Y0062133D03*
X0312395Y0061933D03*
X0312195Y0061733D03*
X0312195Y0061533D03*
X0312195Y0061333D03*
X0310995Y0061333D03*
X0310995Y0061133D03*
X0310995Y0061533D03*
X0310795Y0061933D03*
X0310795Y0062133D03*
X0310795Y0062333D03*
X0310795Y0062533D03*
X0310595Y0062733D03*
X0310595Y0062933D03*
X0310595Y0063133D03*
X0310595Y0063333D03*
X0310395Y0063533D03*
X0310395Y0063733D03*
X0310395Y0063933D03*
X0310395Y0064133D03*
X0310195Y0064333D03*
X0310195Y0064533D03*
X0310195Y0064733D03*
X0310195Y0064933D03*
X0313595Y0061933D03*
X0313595Y0061733D03*
X0313595Y0061533D03*
X0322795Y0063133D03*
X0302795Y0063133D03*
X0302795Y0062933D03*
X0302795Y0062733D03*
X0302795Y0062533D03*
X0302795Y0062333D03*
X0302795Y0062133D03*
X0302795Y0061933D03*
X0302795Y0061733D03*
X0302795Y0061533D03*
X0302795Y0061333D03*
X0302795Y0061133D03*
X0302795Y0060933D03*
X0302795Y0060733D03*
X0302795Y0063333D03*
X0302795Y0063533D03*
X0302795Y0063733D03*
X0299795Y0063733D03*
X0299595Y0063333D03*
X0299595Y0063133D03*
X0299595Y0062933D03*
X0299595Y0062733D03*
X0299595Y0062533D03*
X0299595Y0062333D03*
X0299595Y0062133D03*
X0299595Y0061933D03*
X0299595Y0061733D03*
X0299595Y0061533D03*
X0299595Y0061333D03*
X0299595Y0061133D03*
X0299795Y0060733D03*
X0295995Y0060933D03*
X0295995Y0061133D03*
X0295995Y0061333D03*
X0295995Y0061533D03*
X0295995Y0061733D03*
X0295995Y0061933D03*
X0295995Y0062133D03*
X0295995Y0062333D03*
X0295995Y0062533D03*
X0295995Y0062733D03*
X0295995Y0062933D03*
X0295995Y0063133D03*
X0295995Y0063333D03*
X0295995Y0063533D03*
X0295795Y0063733D03*
X0295795Y0063933D03*
X0292995Y0063933D03*
X0292995Y0063733D03*
X0292995Y0063533D03*
X0292995Y0063333D03*
X0292995Y0063133D03*
X0292995Y0062933D03*
X0292995Y0062733D03*
X0292995Y0062533D03*
X0292995Y0062333D03*
X0292995Y0062133D03*
X0292995Y0061933D03*
X0292995Y0061733D03*
X0292995Y0061533D03*
X0292995Y0061333D03*
X0292995Y0061133D03*
X0292995Y0060933D03*
X0292995Y0060733D03*
X0292995Y0060533D03*
X0292995Y0060333D03*
X0291395Y0060133D03*
X0291395Y0059933D03*
X0291195Y0060533D03*
X0291195Y0060733D03*
X0290795Y0061733D03*
X0290795Y0061933D03*
X0290795Y0062133D03*
X0290595Y0062333D03*
X0290595Y0062533D03*
X0290595Y0062733D03*
X0290395Y0062933D03*
X0290395Y0063133D03*
X0290395Y0063333D03*
X0289195Y0063333D03*
X0289195Y0063133D03*
X0289195Y0062933D03*
X0288995Y0062733D03*
X0288995Y0062533D03*
X0288995Y0062333D03*
X0288795Y0062133D03*
X0288795Y0061933D03*
X0288395Y0060733D03*
X0288195Y0060333D03*
X0288195Y0060133D03*
X0287995Y0059733D03*
X0287995Y0059533D03*
X0284395Y0060333D03*
X0284395Y0060533D03*
X0284395Y0060733D03*
X0284395Y0060933D03*
X0284395Y0061133D03*
X0284395Y0061333D03*
X0284395Y0061533D03*
X0284395Y0061733D03*
X0284395Y0062733D03*
X0284395Y0062933D03*
X0284395Y0063133D03*
X0284395Y0063333D03*
X0284395Y0063533D03*
X0284395Y0063733D03*
X0284395Y0063933D03*
X0282595Y0063933D03*
X0282595Y0063733D03*
X0282595Y0063533D03*
X0282595Y0063333D03*
X0282595Y0063133D03*
X0282595Y0062933D03*
X0282595Y0062733D03*
X0282595Y0061733D03*
X0282595Y0061533D03*
X0282595Y0061333D03*
X0282595Y0061133D03*
X0282595Y0060933D03*
X0282595Y0060733D03*
X0282595Y0060533D03*
X0282595Y0060333D03*
X0282595Y0060133D03*
X0282595Y0059933D03*
X0282595Y0059733D03*
X0282595Y0059533D03*
X0277995Y0059533D03*
X0277995Y0059733D03*
X0277995Y0059933D03*
X0277795Y0060333D03*
X0277795Y0060533D03*
X0277395Y0061733D03*
X0277395Y0061933D03*
X0277195Y0062133D03*
X0277195Y0062333D03*
X0277195Y0062533D03*
X0276995Y0062933D03*
X0276995Y0063133D03*
X0276995Y0063333D03*
X0275795Y0063333D03*
X0275795Y0063133D03*
X0275595Y0062933D03*
X0275595Y0062733D03*
X0275595Y0062533D03*
X0275395Y0062333D03*
X0275395Y0062133D03*
X0275395Y0061933D03*
X0275195Y0061733D03*
X0274995Y0060733D03*
X0274795Y0060333D03*
X0274795Y0060133D03*
X0274595Y0059733D03*
X0274595Y0059533D03*
X0276395Y0064933D03*
X0282595Y0064933D03*
X0282595Y0064733D03*
X0282595Y0064533D03*
X0282595Y0064333D03*
X0282595Y0064133D03*
X0289795Y0064933D03*
X0295795Y0060733D03*
X0295795Y0060533D03*
D18*
X0304695Y0060533D03*
X0304695Y0060333D03*
X0304695Y0060133D03*
X0304695Y0059933D03*
X0304695Y0059733D03*
X0304695Y0059533D03*
X0304695Y0060733D03*
X0304695Y0060933D03*
X0304695Y0061133D03*
X0304695Y0061333D03*
X0304695Y0061533D03*
X0304695Y0061733D03*
X0304695Y0062733D03*
X0304695Y0062933D03*
X0304695Y0063133D03*
X0304695Y0063333D03*
X0304695Y0063533D03*
X0304695Y0063733D03*
X0304695Y0063933D03*
X0310895Y0061733D03*
X0312095Y0061133D03*
X0313495Y0062133D03*
X0314895Y0061533D03*
X0315095Y0062333D03*
X0329695Y0063333D03*
X0329695Y0063533D03*
X0337695Y0063533D03*
X0337695Y0063333D03*
X0337695Y0063133D03*
X0337695Y0062933D03*
X0337695Y0062733D03*
X0337695Y0062533D03*
X0337695Y0062333D03*
X0337695Y0061333D03*
X0337695Y0061133D03*
X0337695Y0060933D03*
X0337695Y0060733D03*
X0337695Y0060533D03*
X0337695Y0060333D03*
X0337695Y0060133D03*
X0337695Y0059933D03*
X0337695Y0059733D03*
X0337695Y0059533D03*
X0337695Y0063733D03*
X0337695Y0063933D03*
X0354295Y0063733D03*
X0354295Y0063533D03*
X0373095Y0063133D03*
X0373695Y0064133D03*
X0373695Y0064333D03*
X0279495Y0064333D03*
X0279495Y0064133D03*
X0279495Y0063933D03*
X0279495Y0063733D03*
X0279495Y0063533D03*
X0279495Y0063333D03*
X0279495Y0063133D03*
X0279495Y0062933D03*
X0279495Y0062733D03*
X0279495Y0061733D03*
X0279495Y0061533D03*
X0279495Y0061333D03*
X0279495Y0061133D03*
X0279495Y0060933D03*
X0279495Y0060733D03*
X0279495Y0060533D03*
X0279495Y0060333D03*
X0279495Y0060133D03*
X0279495Y0059933D03*
X0279495Y0059733D03*
X0279495Y0059533D03*
X0279495Y0064533D03*
X0279495Y0064733D03*
X0279495Y0064933D03*
D19*
X0276395Y0061333D03*
X0285595Y0060133D03*
X0285595Y0059933D03*
X0285595Y0059733D03*
X0285595Y0059533D03*
X0289795Y0061333D03*
X0289795Y0061533D03*
X0294195Y0059733D03*
X0294195Y0064533D03*
X0301195Y0059933D03*
X0305995Y0064133D03*
X0305995Y0064333D03*
X0305995Y0064533D03*
X0305995Y0064733D03*
X0305995Y0064933D03*
X0323395Y0061333D03*
X0332595Y0060133D03*
X0332595Y0064333D03*
X0338995Y0064333D03*
X0338995Y0062133D03*
X0338995Y0061933D03*
X0343595Y0059933D03*
X0348395Y0060133D03*
X0348395Y0064333D03*
X0352995Y0064333D03*
X0352995Y0060133D03*
X0359195Y0059733D03*
X0359195Y0062333D03*
X0367395Y0064133D03*
X0367395Y0064333D03*
X0367395Y0064533D03*
X0367395Y0064733D03*
X0367395Y0064933D03*
X0367395Y0060133D03*
X0367395Y0059933D03*
X0367395Y0059733D03*
X0367395Y0059533D03*
X0364195Y0072933D03*
X0366995Y0074933D03*
X0367395Y0077533D03*
X0347795Y0074933D03*
X0342395Y0075133D03*
X0341995Y0082733D03*
X0342195Y0082933D03*
X0347795Y0082933D03*
X0361595Y0083133D03*
X0366595Y0083133D03*
X0366795Y0090133D03*
X0348595Y0089733D03*
X0348595Y0097333D03*
X0351395Y0099533D03*
X0365795Y0097533D03*
X0332195Y0098133D03*
X0332195Y0098333D03*
X0332195Y0098533D03*
X0318195Y0098333D03*
X0324795Y0089133D03*
X0312795Y0082333D03*
X0312595Y0082533D03*
X0312595Y0075333D03*
X0330595Y0074533D03*
X0285595Y0064933D03*
X0285595Y0064733D03*
X0285595Y0064533D03*
X0285595Y0064333D03*
X0285595Y0064133D03*
D20*
X0288695Y0061733D03*
X0288295Y0060533D03*
X0288095Y0059933D03*
X0291295Y0060333D03*
X0291495Y0059733D03*
X0291495Y0059533D03*
X0289895Y0064733D03*
X0299695Y0063533D03*
X0299895Y0063933D03*
X0302695Y0063933D03*
X0302695Y0060533D03*
X0299895Y0060533D03*
X0299695Y0060933D03*
X0311495Y0059733D03*
X0311495Y0059533D03*
X0314295Y0059533D03*
X0314295Y0059733D03*
X0314295Y0059933D03*
X0312895Y0063533D03*
X0315695Y0064533D03*
X0322095Y0060733D03*
X0321695Y0059733D03*
X0321695Y0059533D03*
X0324895Y0060533D03*
X0325095Y0059933D03*
X0324095Y0063133D03*
X0323495Y0064533D03*
X0323495Y0064733D03*
X0323495Y0064933D03*
X0331295Y0063933D03*
X0331295Y0063133D03*
X0331295Y0060533D03*
X0331495Y0060333D03*
X0333895Y0060533D03*
X0334095Y0060933D03*
X0334095Y0061533D03*
X0333895Y0061733D03*
X0333895Y0063933D03*
X0340295Y0063933D03*
X0340495Y0063333D03*
X0340495Y0062933D03*
X0340295Y0062533D03*
X0342295Y0063933D03*
X0345095Y0063933D03*
X0347095Y0063933D03*
X0347095Y0063133D03*
X0347095Y0060533D03*
X0347295Y0060333D03*
X0345095Y0060533D03*
X0342295Y0060533D03*
X0349695Y0060533D03*
X0349895Y0060933D03*
X0349895Y0061333D03*
X0349895Y0061533D03*
X0349695Y0061733D03*
X0351495Y0060733D03*
X0351495Y0063133D03*
X0349695Y0063933D03*
X0354295Y0060733D03*
X0354295Y0060533D03*
X0360695Y0061733D03*
X0360895Y0061533D03*
X0360895Y0060733D03*
X0360895Y0060533D03*
X0360695Y0063933D03*
X0372295Y0063933D03*
X0372295Y0063733D03*
X0351495Y0099733D03*
X0276295Y0064733D03*
X0277095Y0062733D03*
X0277695Y0060733D03*
X0277895Y0060133D03*
X0274895Y0060533D03*
X0274695Y0059933D03*
D21*
X0285295Y0061933D03*
X0285295Y0062133D03*
X0285295Y0062333D03*
X0285295Y0062533D03*
X0293895Y0059533D03*
X0301295Y0064733D03*
X0313295Y0076133D03*
X0313495Y0076333D03*
X0313495Y0076533D03*
X0313695Y0076933D03*
X0313695Y0077133D03*
X0313895Y0078333D03*
X0313895Y0078533D03*
X0313895Y0078733D03*
X0313895Y0078933D03*
X0313895Y0079133D03*
X0313895Y0079333D03*
X0313695Y0080333D03*
X0313695Y0080533D03*
X0313695Y0080733D03*
X0313495Y0080933D03*
X0313495Y0081133D03*
X0313295Y0081533D03*
X0314695Y0088333D03*
X0321695Y0093333D03*
X0321895Y0093133D03*
X0322095Y0092733D03*
X0321495Y0093733D03*
X0321095Y0094333D03*
X0320895Y0094733D03*
X0320695Y0094933D03*
X0317895Y0099333D03*
X0310495Y0099333D03*
X0310495Y0099133D03*
X0325095Y0088333D03*
X0325095Y0088133D03*
X0326895Y0084133D03*
X0326895Y0083933D03*
X0326895Y0083733D03*
X0327095Y0083333D03*
X0327295Y0082733D03*
X0327495Y0082133D03*
X0327695Y0081533D03*
X0333895Y0083533D03*
X0334095Y0083933D03*
X0334095Y0084133D03*
X0341095Y0081133D03*
X0341095Y0080933D03*
X0341095Y0080733D03*
X0341295Y0081333D03*
X0341295Y0081533D03*
X0341495Y0081933D03*
X0340895Y0079733D03*
X0340895Y0079533D03*
X0341295Y0076733D03*
X0341495Y0076333D03*
X0341695Y0076133D03*
X0341695Y0075933D03*
X0345095Y0072933D03*
X0348495Y0075733D03*
X0348695Y0075933D03*
X0348695Y0076133D03*
X0348695Y0081533D03*
X0348695Y0081733D03*
X0348495Y0081933D03*
X0360895Y0081133D03*
X0360895Y0075333D03*
X0361095Y0075133D03*
X0367495Y0075333D03*
X0367695Y0076933D03*
X0367695Y0077133D03*
X0367095Y0082733D03*
X0366895Y0082933D03*
X0367095Y0090733D03*
X0359695Y0090333D03*
X0359495Y0090533D03*
X0359295Y0090933D03*
X0355295Y0090933D03*
X0355295Y0091133D03*
X0355095Y0090733D03*
X0351495Y0087533D03*
X0347695Y0090733D03*
X0347495Y0091133D03*
X0347495Y0095933D03*
X0347695Y0096333D03*
X0347895Y0096533D03*
X0354895Y0096733D03*
X0355095Y0096533D03*
X0355095Y0096333D03*
X0355295Y0096133D03*
X0359695Y0096733D03*
X0359895Y0096933D03*
X0363295Y0099533D03*
X0366295Y0097133D03*
X0366495Y0096933D03*
X0330495Y0073733D03*
X0330495Y0073533D03*
X0343695Y0064733D03*
X0343695Y0059733D03*
X0338695Y0061533D03*
X0352495Y0062733D03*
X0358895Y0064933D03*
X0367095Y0062533D03*
X0367095Y0062333D03*
X0367095Y0062133D03*
X0367095Y0061933D03*
X0371095Y0064533D03*
X0371095Y0064733D03*
D22*
X0353795Y0061933D03*
X0301195Y0059533D03*
X0344995Y0085133D03*
X0329595Y0092333D03*
X0329595Y0092533D03*
X0329795Y0092933D03*
X0329795Y0093133D03*
X0329995Y0093533D03*
X0329995Y0093733D03*
X0330195Y0094133D03*
X0330195Y0094333D03*
X0330395Y0094733D03*
X0330395Y0094933D03*
X0330595Y0095333D03*
X0330595Y0095533D03*
X0330795Y0095933D03*
X0330795Y0096133D03*
X0330995Y0096533D03*
X0330995Y0096733D03*
X0333395Y0096733D03*
X0333395Y0096533D03*
X0333595Y0096133D03*
X0333795Y0095533D03*
X0333995Y0094933D03*
X0311795Y0096333D03*
X0309195Y0096333D03*
X0309195Y0096133D03*
X0308995Y0095533D03*
X0308795Y0094933D03*
X0308595Y0094333D03*
X0308395Y0093733D03*
X0366995Y0095933D03*
X0367395Y0091933D03*
X0367395Y0091733D03*
X0367395Y0091533D03*
D23*
X0301195Y0064933D03*
X0311595Y0060933D03*
X0311595Y0060733D03*
X0312995Y0062533D03*
X0312995Y0062733D03*
X0331595Y0062933D03*
X0332595Y0059533D03*
X0347395Y0062933D03*
X0348395Y0059533D03*
X0352995Y0059533D03*
X0351795Y0062933D03*
X0289795Y0063533D03*
X0289795Y0063733D03*
X0289795Y0063933D03*
X0276395Y0063933D03*
X0276395Y0063733D03*
D24*
X0276295Y0063533D03*
X0312895Y0062333D03*
X0314295Y0061333D03*
X0314295Y0061133D03*
X0314295Y0060933D03*
X0323495Y0063333D03*
X0323495Y0063533D03*
X0323495Y0063733D03*
X0333495Y0061933D03*
X0343695Y0059533D03*
X0349295Y0061933D03*
X0367495Y0087933D03*
X0367495Y0088133D03*
X0367495Y0088333D03*
X0367495Y0088533D03*
X0367495Y0088733D03*
X0367095Y0095733D03*
D25*
X0359995Y0097133D03*
X0354795Y0096933D03*
X0348195Y0096933D03*
X0347995Y0096733D03*
X0347795Y0090533D03*
X0347995Y0090333D03*
X0354795Y0090333D03*
X0354995Y0090533D03*
X0359795Y0090133D03*
X0366995Y0090533D03*
X0361195Y0082933D03*
X0360995Y0080933D03*
X0367595Y0077333D03*
X0367195Y0075133D03*
X0348395Y0075533D03*
X0348195Y0075333D03*
X0342195Y0075333D03*
X0341995Y0075533D03*
X0341795Y0075733D03*
X0341395Y0081733D03*
X0341595Y0082133D03*
X0348195Y0082333D03*
X0348395Y0082133D03*
X0330595Y0073933D03*
X0332595Y0064533D03*
X0332195Y0062733D03*
X0332995Y0062133D03*
X0332595Y0059933D03*
X0338795Y0064733D03*
X0347995Y0062733D03*
X0348795Y0062133D03*
X0348395Y0059933D03*
X0348395Y0064533D03*
X0353195Y0062133D03*
X0358995Y0059533D03*
X0313195Y0075933D03*
X0312995Y0075733D03*
X0313395Y0081333D03*
X0313195Y0081733D03*
X0324995Y0088533D03*
X0332195Y0098733D03*
X0332195Y0098933D03*
X0332195Y0099133D03*
X0317995Y0099133D03*
X0317995Y0098933D03*
X0301195Y0059733D03*
D26*
X0301295Y0064533D03*
X0294095Y0064733D03*
X0276295Y0061533D03*
X0312895Y0075533D03*
X0313095Y0081933D03*
X0312895Y0082133D03*
X0324895Y0088733D03*
X0324895Y0088933D03*
X0318095Y0098533D03*
X0318095Y0098733D03*
X0310495Y0098733D03*
X0310495Y0098533D03*
X0310495Y0098933D03*
X0348295Y0097133D03*
X0354495Y0097133D03*
X0360295Y0097333D03*
X0366095Y0097333D03*
X0366895Y0090333D03*
X0360295Y0089733D03*
X0360095Y0089933D03*
X0354695Y0090133D03*
X0354495Y0089933D03*
X0348295Y0089933D03*
X0348095Y0090133D03*
X0347895Y0082733D03*
X0348095Y0082533D03*
X0341895Y0082533D03*
X0341695Y0082333D03*
X0348095Y0075133D03*
X0361295Y0074933D03*
X0361095Y0080733D03*
X0330495Y0074333D03*
X0330495Y0074133D03*
X0338895Y0064533D03*
X0338895Y0061733D03*
X0343695Y0064533D03*
X0348295Y0062533D03*
X0348495Y0062333D03*
X0352695Y0062533D03*
X0352895Y0062333D03*
X0352895Y0064533D03*
X0352895Y0059933D03*
X0359095Y0064733D03*
X0363695Y0060133D03*
X0363695Y0059933D03*
X0363695Y0059733D03*
X0363695Y0059533D03*
X0332695Y0062333D03*
X0332495Y0062533D03*
X0323495Y0061533D03*
D27*
X0332595Y0059733D03*
X0332595Y0064733D03*
X0337395Y0073133D03*
X0337395Y0073333D03*
X0337395Y0073533D03*
X0337395Y0073733D03*
X0337395Y0073933D03*
X0337395Y0074133D03*
X0337395Y0074333D03*
X0337395Y0074533D03*
X0337395Y0074733D03*
X0337395Y0074933D03*
X0337395Y0075133D03*
X0337395Y0075333D03*
X0337395Y0075533D03*
X0337395Y0075733D03*
X0337395Y0075933D03*
X0337395Y0076133D03*
X0337395Y0076333D03*
X0337395Y0076533D03*
X0337395Y0076733D03*
X0337395Y0076933D03*
X0337395Y0077133D03*
X0337395Y0077333D03*
X0337395Y0077533D03*
X0337395Y0077733D03*
X0337395Y0077933D03*
X0337395Y0078133D03*
X0337395Y0078333D03*
X0337395Y0078533D03*
X0337395Y0078733D03*
X0337395Y0078933D03*
X0337395Y0079133D03*
X0337395Y0079333D03*
X0337395Y0079533D03*
X0337395Y0079733D03*
X0337395Y0079933D03*
X0337395Y0080133D03*
X0337395Y0080333D03*
X0337395Y0080533D03*
X0337395Y0080733D03*
X0337395Y0080933D03*
X0337395Y0081133D03*
X0337395Y0081333D03*
X0337395Y0081533D03*
X0337395Y0081733D03*
X0337395Y0081933D03*
X0337395Y0082133D03*
X0337395Y0082333D03*
X0337395Y0082533D03*
X0337395Y0082733D03*
X0337395Y0082933D03*
X0337395Y0083133D03*
X0337395Y0083333D03*
X0337395Y0083533D03*
X0337395Y0083733D03*
X0337395Y0083933D03*
X0337395Y0084133D03*
X0337395Y0084333D03*
X0337395Y0084533D03*
X0337395Y0084733D03*
X0337395Y0084933D03*
X0336595Y0087733D03*
X0336595Y0087933D03*
X0336395Y0088133D03*
X0336395Y0088333D03*
X0336395Y0088533D03*
X0336195Y0088733D03*
X0336195Y0088933D03*
X0335995Y0089333D03*
X0335995Y0089533D03*
X0335795Y0089733D03*
X0335795Y0089933D03*
X0335795Y0090133D03*
X0334995Y0092133D03*
X0334795Y0092733D03*
X0334595Y0093333D03*
X0328795Y0089733D03*
X0328795Y0089533D03*
X0328595Y0089133D03*
X0328595Y0088933D03*
X0328395Y0088533D03*
X0328395Y0088333D03*
X0328195Y0087933D03*
X0328195Y0087733D03*
X0325195Y0087933D03*
X0326795Y0084733D03*
X0326795Y0084533D03*
X0326795Y0084333D03*
X0326995Y0083533D03*
X0327195Y0083133D03*
X0327195Y0082933D03*
X0327395Y0082533D03*
X0327395Y0082333D03*
X0327595Y0081933D03*
X0327595Y0081733D03*
X0327795Y0081333D03*
X0327795Y0081133D03*
X0327795Y0080933D03*
X0327995Y0080733D03*
X0327995Y0080533D03*
X0327995Y0080333D03*
X0328195Y0080133D03*
X0328195Y0079933D03*
X0328195Y0079733D03*
X0328395Y0079533D03*
X0328395Y0079333D03*
X0328395Y0079133D03*
X0328595Y0078933D03*
X0328595Y0078733D03*
X0328795Y0078133D03*
X0328995Y0077533D03*
X0329195Y0076933D03*
X0331995Y0077533D03*
X0332195Y0078133D03*
X0332395Y0078733D03*
X0332595Y0079333D03*
X0332595Y0079533D03*
X0332795Y0079933D03*
X0332795Y0080133D03*
X0332995Y0080533D03*
X0332995Y0080733D03*
X0333195Y0081133D03*
X0333195Y0081333D03*
X0333195Y0081533D03*
X0333395Y0081733D03*
X0333395Y0081933D03*
X0333395Y0082133D03*
X0333595Y0082333D03*
X0333595Y0082533D03*
X0333595Y0082733D03*
X0333795Y0082933D03*
X0333795Y0083133D03*
X0333795Y0083333D03*
X0333995Y0083733D03*
X0334195Y0084333D03*
X0334195Y0084533D03*
X0334195Y0084733D03*
X0340995Y0080533D03*
X0340995Y0080333D03*
X0340995Y0080133D03*
X0340995Y0079933D03*
X0340795Y0079333D03*
X0340795Y0079133D03*
X0340795Y0078933D03*
X0340995Y0078733D03*
X0340995Y0078533D03*
X0340995Y0078333D03*
X0340995Y0078133D03*
X0340995Y0077933D03*
X0340995Y0077733D03*
X0340995Y0077533D03*
X0341195Y0077333D03*
X0341195Y0077133D03*
X0341195Y0076933D03*
X0341395Y0076533D03*
X0348795Y0076533D03*
X0348795Y0076333D03*
X0348995Y0076733D03*
X0348995Y0076933D03*
X0348795Y0081333D03*
X0360795Y0081333D03*
X0360795Y0081533D03*
X0360795Y0082333D03*
X0360995Y0082733D03*
X0367195Y0082533D03*
X0367395Y0082133D03*
X0367795Y0076733D03*
X0367795Y0076533D03*
X0367795Y0076333D03*
X0367795Y0076133D03*
X0367795Y0075933D03*
X0367595Y0075533D03*
X0360795Y0075533D03*
X0360595Y0075933D03*
X0360595Y0076133D03*
X0362995Y0087533D03*
X0359395Y0090733D03*
X0359195Y0091133D03*
X0359195Y0091333D03*
X0358995Y0091733D03*
X0358795Y0094333D03*
X0358995Y0095133D03*
X0358995Y0095333D03*
X0359195Y0095733D03*
X0359195Y0095933D03*
X0359395Y0096133D03*
X0359395Y0096333D03*
X0359595Y0096533D03*
X0355595Y0095333D03*
X0355595Y0095133D03*
X0355395Y0095733D03*
X0355395Y0095933D03*
X0355795Y0094333D03*
X0355795Y0094133D03*
X0355795Y0093933D03*
X0355795Y0093733D03*
X0355795Y0093533D03*
X0355795Y0093333D03*
X0355795Y0093133D03*
X0355795Y0092933D03*
X0355795Y0092733D03*
X0355595Y0092133D03*
X0355595Y0091933D03*
X0355595Y0091733D03*
X0355395Y0091533D03*
X0355395Y0091333D03*
X0347595Y0090933D03*
X0347395Y0091333D03*
X0347395Y0091533D03*
X0347195Y0091733D03*
X0347195Y0091933D03*
X0347195Y0092133D03*
X0346995Y0093133D03*
X0346995Y0093333D03*
X0346995Y0093533D03*
X0346995Y0093733D03*
X0346995Y0093933D03*
X0347195Y0094733D03*
X0347195Y0094933D03*
X0347195Y0095133D03*
X0347395Y0095533D03*
X0347395Y0095733D03*
X0347595Y0096133D03*
X0366595Y0096733D03*
X0366795Y0096533D03*
X0367195Y0090933D03*
X0332195Y0099333D03*
X0332195Y0099533D03*
X0325195Y0099533D03*
X0325195Y0099333D03*
X0325195Y0099133D03*
X0325195Y0098933D03*
X0325195Y0098733D03*
X0325195Y0098533D03*
X0325195Y0098333D03*
X0325195Y0098133D03*
X0325195Y0097933D03*
X0325195Y0097733D03*
X0325195Y0097533D03*
X0325195Y0097333D03*
X0325195Y0097133D03*
X0325195Y0096933D03*
X0325195Y0096733D03*
X0325195Y0096533D03*
X0325195Y0096333D03*
X0325195Y0096133D03*
X0325195Y0095933D03*
X0325195Y0095733D03*
X0325195Y0095533D03*
X0325195Y0095333D03*
X0325195Y0095133D03*
X0325195Y0094933D03*
X0325195Y0094733D03*
X0325195Y0094533D03*
X0325195Y0094333D03*
X0325195Y0094133D03*
X0325195Y0093933D03*
X0325195Y0093733D03*
X0325195Y0093533D03*
X0325195Y0093333D03*
X0325195Y0093133D03*
X0325195Y0092933D03*
X0325195Y0092733D03*
X0325195Y0092533D03*
X0325195Y0092333D03*
X0322395Y0092333D03*
X0322195Y0092533D03*
X0321995Y0092933D03*
X0321595Y0093533D03*
X0321395Y0093933D03*
X0321195Y0094133D03*
X0320995Y0094533D03*
X0320595Y0095133D03*
X0317795Y0095133D03*
X0317795Y0094933D03*
X0317795Y0094733D03*
X0317795Y0094533D03*
X0317795Y0094333D03*
X0317795Y0094133D03*
X0317795Y0093933D03*
X0317795Y0093733D03*
X0317795Y0093533D03*
X0317795Y0093333D03*
X0317795Y0093133D03*
X0317795Y0092933D03*
X0317795Y0092733D03*
X0317795Y0092533D03*
X0317795Y0092333D03*
X0317795Y0092133D03*
X0317795Y0091933D03*
X0317795Y0091733D03*
X0317795Y0091533D03*
X0317795Y0091333D03*
X0317795Y0091133D03*
X0317795Y0090933D03*
X0317795Y0090733D03*
X0317795Y0090533D03*
X0317795Y0090333D03*
X0317795Y0090133D03*
X0317795Y0089933D03*
X0317795Y0089733D03*
X0317795Y0089533D03*
X0317795Y0089333D03*
X0317795Y0089133D03*
X0317795Y0088933D03*
X0317795Y0088733D03*
X0317795Y0088533D03*
X0317795Y0088333D03*
X0317795Y0088133D03*
X0317795Y0087933D03*
X0317795Y0087733D03*
X0314995Y0087733D03*
X0314795Y0087933D03*
X0314795Y0088133D03*
X0314595Y0088533D03*
X0314595Y0088733D03*
X0314395Y0088933D03*
X0314395Y0089133D03*
X0314395Y0089333D03*
X0314195Y0089533D03*
X0314195Y0089733D03*
X0314195Y0089933D03*
X0313995Y0090133D03*
X0313195Y0092133D03*
X0313195Y0092333D03*
X0313195Y0092533D03*
X0307995Y0092333D03*
X0307195Y0089933D03*
X0306995Y0089333D03*
X0306995Y0089133D03*
X0306795Y0088733D03*
X0306795Y0088533D03*
X0306595Y0088133D03*
X0306595Y0087933D03*
X0306395Y0082733D03*
X0306395Y0082533D03*
X0306395Y0082333D03*
X0306395Y0082133D03*
X0306395Y0081933D03*
X0306395Y0081733D03*
X0306395Y0081533D03*
X0306395Y0081333D03*
X0306395Y0081133D03*
X0306395Y0080933D03*
X0306395Y0080733D03*
X0306395Y0080533D03*
X0306395Y0080333D03*
X0306395Y0080133D03*
X0306395Y0079933D03*
X0306395Y0079733D03*
X0306395Y0079533D03*
X0306395Y0079333D03*
X0306395Y0079133D03*
X0306395Y0078933D03*
X0306395Y0078733D03*
X0306395Y0078533D03*
X0306395Y0078333D03*
X0306395Y0078133D03*
X0306395Y0077933D03*
X0306395Y0077733D03*
X0306395Y0077533D03*
X0306395Y0077333D03*
X0306395Y0077133D03*
X0306395Y0076933D03*
X0306395Y0076733D03*
X0306395Y0076533D03*
X0306395Y0076333D03*
X0306395Y0076133D03*
X0306395Y0075933D03*
X0306395Y0075733D03*
X0306395Y0075533D03*
X0306395Y0075333D03*
X0306395Y0075133D03*
X0313595Y0076733D03*
X0313795Y0077333D03*
X0313795Y0077533D03*
X0313795Y0077733D03*
X0313795Y0077933D03*
X0313795Y0078133D03*
X0313795Y0079533D03*
X0313795Y0079733D03*
X0313795Y0079933D03*
X0313795Y0080133D03*
X0317195Y0080733D03*
X0317195Y0080933D03*
X0317195Y0081133D03*
X0317195Y0081333D03*
X0317195Y0081533D03*
X0317195Y0081733D03*
X0317195Y0081933D03*
X0317195Y0082133D03*
X0317195Y0082333D03*
X0317195Y0082533D03*
X0317195Y0082733D03*
X0317195Y0078133D03*
X0317195Y0077933D03*
X0317195Y0077733D03*
X0317195Y0077533D03*
X0317195Y0077333D03*
X0317195Y0077133D03*
X0317195Y0076933D03*
X0317195Y0076733D03*
X0317195Y0076533D03*
X0317195Y0076333D03*
X0317195Y0076133D03*
X0317195Y0075933D03*
X0317195Y0075733D03*
X0317195Y0075533D03*
X0317195Y0075333D03*
X0293795Y0064933D03*
X0305595Y0062533D03*
X0305595Y0062333D03*
X0305595Y0062133D03*
X0305595Y0061933D03*
X0348395Y0059733D03*
X0352995Y0059733D03*
X0352995Y0064733D03*
X0348395Y0064733D03*
X0370995Y0064933D03*
X0317795Y0099533D03*
X0310395Y0099533D03*
D28*
X0310495Y0098333D03*
X0310495Y0098133D03*
X0310495Y0097933D03*
X0318295Y0097933D03*
X0318295Y0098133D03*
X0324695Y0089533D03*
X0324695Y0089333D03*
X0347495Y0083133D03*
X0354295Y0089733D03*
X0366695Y0089933D03*
X0360695Y0097533D03*
X0354295Y0097333D03*
X0342695Y0074933D03*
X0330495Y0074933D03*
X0330495Y0074733D03*
X0327095Y0064933D03*
X0327095Y0064733D03*
X0327095Y0064533D03*
X0327095Y0064333D03*
X0327095Y0064133D03*
X0323495Y0061133D03*
X0323495Y0060933D03*
X0339095Y0064133D03*
X0343695Y0064333D03*
X0343695Y0060133D03*
X0359295Y0059933D03*
X0359295Y0062133D03*
X0359295Y0062533D03*
X0359295Y0064333D03*
X0359295Y0064533D03*
X0301295Y0064333D03*
X0301295Y0060133D03*
X0294295Y0060133D03*
X0294295Y0059933D03*
X0294295Y0064333D03*
X0289695Y0061133D03*
X0276295Y0061133D03*
X0276295Y0060933D03*
D29*
X0276395Y0064333D03*
X0276395Y0064533D03*
X0289795Y0064533D03*
X0289795Y0064333D03*
X0295595Y0060333D03*
X0299995Y0060333D03*
X0302395Y0060333D03*
X0311595Y0060133D03*
X0311595Y0059933D03*
X0314195Y0060133D03*
X0312995Y0063133D03*
X0312995Y0063333D03*
X0331595Y0064133D03*
X0333795Y0060333D03*
X0340195Y0062333D03*
X0342395Y0060333D03*
X0344995Y0060333D03*
X0344795Y0064133D03*
X0347395Y0064133D03*
X0349595Y0060333D03*
X0351795Y0060333D03*
X0353995Y0060333D03*
X0354195Y0061733D03*
X0353995Y0064133D03*
X0360595Y0062733D03*
X0360595Y0060333D03*
D30*
X0359395Y0060133D03*
X0359395Y0061933D03*
X0359395Y0064133D03*
X0366995Y0077733D03*
X0361395Y0080533D03*
X0362995Y0087733D03*
X0360595Y0089533D03*
X0353995Y0097533D03*
X0332195Y0097733D03*
X0332195Y0097933D03*
X0318395Y0097733D03*
X0324595Y0089933D03*
X0324595Y0089733D03*
X0312195Y0082733D03*
X0342595Y0083133D03*
X0344995Y0084933D03*
X0294395Y0064133D03*
X0289795Y0060933D03*
D31*
X0289895Y0064133D03*
X0300095Y0064133D03*
X0302295Y0064133D03*
X0311495Y0060533D03*
X0311495Y0060333D03*
X0314295Y0060333D03*
X0314295Y0060533D03*
X0314295Y0060733D03*
X0312895Y0062933D03*
X0323495Y0063933D03*
X0323495Y0064133D03*
X0323495Y0064333D03*
X0332695Y0064933D03*
X0333695Y0064133D03*
X0342495Y0064133D03*
X0343695Y0064933D03*
X0348495Y0064933D03*
X0349495Y0064133D03*
X0351895Y0064133D03*
X0352895Y0064933D03*
X0276295Y0064133D03*
D32*
X0281095Y0062533D03*
X0281095Y0062333D03*
X0281095Y0062133D03*
X0281095Y0061933D03*
X0312295Y0075133D03*
X0330495Y0075133D03*
X0330495Y0075333D03*
X0330495Y0075533D03*
X0345095Y0073133D03*
X0361895Y0074733D03*
X0366495Y0074733D03*
X0364295Y0084933D03*
X0366495Y0089733D03*
X0348895Y0097533D03*
X0332295Y0097533D03*
X0318495Y0097533D03*
X0318495Y0097333D03*
X0310495Y0097533D03*
X0310495Y0097733D03*
X0324495Y0090133D03*
X0318695Y0062533D03*
X0318695Y0062333D03*
X0318695Y0062133D03*
X0318695Y0061933D03*
D33*
X0370695Y0062333D03*
X0370695Y0062533D03*
X0370695Y0062733D03*
X0370695Y0062933D03*
X0370695Y0063133D03*
X0370695Y0063333D03*
X0370695Y0063533D03*
X0370695Y0063733D03*
X0370695Y0063933D03*
X0370695Y0064133D03*
X0370695Y0064333D03*
X0373895Y0064933D03*
X0373895Y0063533D03*
X0373895Y0063333D03*
X0373895Y0063133D03*
X0373895Y0062933D03*
X0373895Y0062733D03*
X0373895Y0062533D03*
X0373895Y0062333D03*
D34*
X0372995Y0062933D03*
X0371995Y0062933D03*
X0371995Y0062733D03*
X0371995Y0062533D03*
X0371995Y0062333D03*
X0371995Y0063133D03*
X0371995Y0063333D03*
X0371995Y0063533D03*
X0373795Y0064533D03*
X0373795Y0064733D03*
X0329995Y0063933D03*
X0329995Y0063733D03*
D35*
X0329595Y0063133D03*
D36*
X0338495Y0064933D03*
X0330495Y0073133D03*
X0330495Y0073333D03*
X0331895Y0076933D03*
X0331895Y0077133D03*
X0331895Y0077333D03*
X0332095Y0077733D03*
X0332095Y0077933D03*
X0332295Y0078333D03*
X0332295Y0078533D03*
X0332495Y0078933D03*
X0332495Y0079133D03*
X0332695Y0079733D03*
X0332895Y0080333D03*
X0333095Y0080933D03*
X0334295Y0084933D03*
X0336095Y0089133D03*
X0334895Y0092333D03*
X0334895Y0092533D03*
X0334695Y0092933D03*
X0334695Y0093133D03*
X0334495Y0093533D03*
X0334495Y0093733D03*
X0334295Y0093933D03*
X0334295Y0094133D03*
X0334295Y0094333D03*
X0334095Y0094533D03*
X0334095Y0094733D03*
X0333895Y0095133D03*
X0333895Y0095333D03*
X0333695Y0095733D03*
X0333695Y0095933D03*
X0333495Y0096333D03*
X0330895Y0096333D03*
X0330695Y0095733D03*
X0330495Y0095133D03*
X0330295Y0094533D03*
X0330095Y0093933D03*
X0329895Y0093333D03*
X0329695Y0092733D03*
X0329495Y0092133D03*
X0328895Y0090133D03*
X0328895Y0089933D03*
X0328695Y0089333D03*
X0328495Y0088733D03*
X0328295Y0088133D03*
X0325295Y0087733D03*
X0326695Y0084933D03*
X0339495Y0089933D03*
X0339495Y0090133D03*
X0339495Y0090333D03*
X0339495Y0090533D03*
X0339495Y0090733D03*
X0339495Y0090933D03*
X0339495Y0091133D03*
X0339495Y0091333D03*
X0339495Y0091533D03*
X0339495Y0091733D03*
X0339495Y0091933D03*
X0339495Y0092133D03*
X0339495Y0092333D03*
X0339495Y0092533D03*
X0339495Y0092733D03*
X0339495Y0092933D03*
X0339495Y0093133D03*
X0339495Y0093333D03*
X0339495Y0093533D03*
X0339495Y0093733D03*
X0339495Y0093933D03*
X0339495Y0094133D03*
X0339495Y0094333D03*
X0339495Y0094533D03*
X0339495Y0094733D03*
X0339495Y0094933D03*
X0339495Y0095133D03*
X0339495Y0095333D03*
X0339495Y0095533D03*
X0339495Y0095733D03*
X0339495Y0095933D03*
X0339495Y0096133D03*
X0339495Y0096333D03*
X0339495Y0096533D03*
X0339495Y0096733D03*
X0339495Y0096933D03*
X0339495Y0097133D03*
X0339495Y0097333D03*
X0339495Y0097533D03*
X0339495Y0097733D03*
X0339495Y0097933D03*
X0339495Y0098133D03*
X0339495Y0098333D03*
X0339495Y0098533D03*
X0339495Y0098733D03*
X0339495Y0098933D03*
X0339495Y0099133D03*
X0339495Y0099333D03*
X0339495Y0099533D03*
X0347295Y0095333D03*
X0347095Y0094533D03*
X0347095Y0094333D03*
X0347095Y0094133D03*
X0347095Y0092933D03*
X0347095Y0092733D03*
X0347095Y0092533D03*
X0347095Y0092333D03*
X0355695Y0092333D03*
X0355695Y0092533D03*
X0355695Y0094533D03*
X0355695Y0094733D03*
X0355695Y0094933D03*
X0355495Y0095533D03*
X0358895Y0094933D03*
X0358895Y0094733D03*
X0358895Y0094533D03*
X0358695Y0094133D03*
X0358695Y0093933D03*
X0358695Y0093733D03*
X0358695Y0093533D03*
X0358695Y0093333D03*
X0358695Y0093133D03*
X0358695Y0092933D03*
X0358695Y0092733D03*
X0358895Y0092533D03*
X0358895Y0092333D03*
X0358895Y0092133D03*
X0358895Y0091933D03*
X0359095Y0091533D03*
X0359095Y0095533D03*
X0366895Y0096133D03*
X0366895Y0096333D03*
X0367295Y0091333D03*
X0367295Y0091133D03*
X0364295Y0085133D03*
X0367295Y0082333D03*
X0367495Y0081933D03*
X0367495Y0081733D03*
X0367695Y0075733D03*
X0360695Y0075733D03*
X0360495Y0076333D03*
X0360495Y0076533D03*
X0360495Y0076733D03*
X0360695Y0081733D03*
X0360695Y0081933D03*
X0360695Y0082133D03*
X0360895Y0082533D03*
X0351695Y0082533D03*
X0351695Y0082333D03*
X0351695Y0082133D03*
X0351695Y0081933D03*
X0351695Y0081733D03*
X0351695Y0081533D03*
X0351695Y0081333D03*
X0351695Y0081133D03*
X0351695Y0080933D03*
X0351695Y0080733D03*
X0351695Y0080533D03*
X0351695Y0082733D03*
X0348895Y0081133D03*
X0351695Y0078133D03*
X0351695Y0077933D03*
X0351695Y0077733D03*
X0351695Y0077533D03*
X0351695Y0077333D03*
X0351695Y0077133D03*
X0351695Y0076933D03*
X0351695Y0076733D03*
X0351695Y0076533D03*
X0351695Y0076333D03*
X0351695Y0076133D03*
X0351695Y0075933D03*
X0351695Y0075733D03*
X0351695Y0075533D03*
X0351695Y0075333D03*
X0329095Y0077133D03*
X0329095Y0077333D03*
X0328895Y0077733D03*
X0328895Y0077933D03*
X0328695Y0078333D03*
X0328695Y0078533D03*
X0306495Y0087733D03*
X0306695Y0088333D03*
X0306895Y0088933D03*
X0307095Y0089533D03*
X0307095Y0089733D03*
X0307295Y0090133D03*
X0307895Y0092133D03*
X0308095Y0092533D03*
X0308095Y0092733D03*
X0308095Y0092933D03*
X0308295Y0093133D03*
X0308295Y0093333D03*
X0308295Y0093533D03*
X0308495Y0093933D03*
X0308495Y0094133D03*
X0308695Y0094533D03*
X0308695Y0094733D03*
X0308895Y0095133D03*
X0308895Y0095333D03*
X0309095Y0095733D03*
X0309095Y0095933D03*
X0311895Y0095933D03*
X0311895Y0096133D03*
X0312095Y0095733D03*
X0312095Y0095533D03*
X0312095Y0095333D03*
X0312295Y0095133D03*
X0312295Y0094933D03*
X0312295Y0094733D03*
X0312495Y0094533D03*
X0312495Y0094333D03*
X0312695Y0094133D03*
X0312695Y0093933D03*
X0312695Y0093733D03*
X0312895Y0093533D03*
X0312895Y0093333D03*
X0312895Y0093133D03*
X0313095Y0092933D03*
X0313095Y0092733D03*
D37*
X0287595Y0095133D03*
X0287595Y0095333D03*
X0287595Y0095533D03*
X0287595Y0095733D03*
X0287595Y0095933D03*
X0287595Y0096133D03*
X0287595Y0096333D03*
X0287595Y0096533D03*
X0287595Y0096733D03*
X0287595Y0096933D03*
X0287595Y0097133D03*
X0287595Y0097333D03*
X0287595Y0097533D03*
X0287595Y0097733D03*
X0287595Y0097933D03*
X0287595Y0098133D03*
X0287595Y0098333D03*
X0287595Y0098533D03*
X0287595Y0098733D03*
X0287595Y0098933D03*
X0287595Y0099133D03*
X0287595Y0099333D03*
X0287595Y0076333D03*
X0287595Y0076133D03*
X0287595Y0075933D03*
X0287595Y0075733D03*
X0287595Y0075533D03*
X0287595Y0075333D03*
X0287595Y0075133D03*
X0287595Y0074933D03*
X0287595Y0074733D03*
X0287595Y0074533D03*
X0287595Y0074333D03*
X0287595Y0074133D03*
X0287595Y0073933D03*
X0287595Y0073733D03*
X0287595Y0073533D03*
X0287595Y0073333D03*
X0287595Y0073133D03*
X0287595Y0072933D03*
D38*
X0277095Y0076533D03*
X0277095Y0076733D03*
X0277095Y0076933D03*
X0277095Y0077133D03*
X0277095Y0077333D03*
X0277095Y0077533D03*
X0277095Y0077733D03*
X0277095Y0077933D03*
X0277095Y0078133D03*
X0277095Y0078333D03*
X0277095Y0078533D03*
X0277095Y0078733D03*
X0277095Y0078933D03*
X0277095Y0079133D03*
X0277095Y0079333D03*
X0277095Y0079533D03*
X0277095Y0079733D03*
X0277095Y0079933D03*
X0277095Y0080133D03*
X0277095Y0080333D03*
X0277095Y0080533D03*
X0277095Y0080733D03*
X0277095Y0080933D03*
X0277095Y0081133D03*
X0277095Y0081333D03*
X0277095Y0081533D03*
X0277095Y0081733D03*
X0277095Y0081933D03*
X0277095Y0082133D03*
X0277095Y0082333D03*
X0277095Y0082533D03*
X0277095Y0082733D03*
X0277095Y0082933D03*
X0277095Y0083133D03*
X0277095Y0083333D03*
X0277095Y0083533D03*
X0277095Y0083733D03*
X0277095Y0083933D03*
X0277095Y0084133D03*
X0277095Y0084333D03*
X0277095Y0084533D03*
X0277095Y0084733D03*
X0277095Y0084933D03*
X0277095Y0085133D03*
X0277095Y0085333D03*
X0277095Y0085533D03*
X0277095Y0085733D03*
X0277095Y0085933D03*
X0277095Y0086133D03*
X0277095Y0086333D03*
X0277095Y0086533D03*
X0277095Y0086733D03*
X0277095Y0086933D03*
X0277095Y0087133D03*
X0277095Y0087333D03*
X0277095Y0087533D03*
X0277095Y0087733D03*
X0277095Y0087933D03*
X0277095Y0088133D03*
X0277095Y0088333D03*
X0277095Y0088533D03*
X0277095Y0088733D03*
X0277095Y0088933D03*
X0277095Y0089133D03*
X0277095Y0089333D03*
X0277095Y0089533D03*
X0277095Y0089733D03*
X0277095Y0089933D03*
X0277095Y0090133D03*
X0277095Y0090333D03*
X0277095Y0090533D03*
X0277095Y0090733D03*
X0277095Y0090933D03*
X0277095Y0091133D03*
X0277095Y0091333D03*
X0277095Y0091533D03*
X0277095Y0091733D03*
X0277095Y0091933D03*
X0277095Y0092133D03*
X0277095Y0092333D03*
X0277095Y0092533D03*
X0277095Y0092733D03*
X0277095Y0092933D03*
X0277095Y0093133D03*
X0277095Y0093333D03*
X0277095Y0093533D03*
X0277095Y0093733D03*
X0277095Y0093933D03*
X0277095Y0094133D03*
X0277095Y0094333D03*
X0277095Y0094533D03*
X0277095Y0094733D03*
X0277095Y0094933D03*
X0307895Y0073133D03*
X0362495Y0080133D03*
X0366095Y0078133D03*
D39*
X0332395Y0090533D03*
X0310595Y0090533D03*
X0296395Y0088333D03*
X0309595Y0082933D03*
X0320395Y0075133D03*
X0320395Y0074933D03*
X0320395Y0074733D03*
X0320395Y0074533D03*
X0320395Y0074333D03*
X0320395Y0074133D03*
X0320395Y0073933D03*
X0320395Y0073733D03*
X0320395Y0073533D03*
X0320395Y0073333D03*
X0320395Y0073133D03*
X0309595Y0074933D03*
D40*
X0309495Y0074733D03*
X0320295Y0082933D03*
X0320295Y0083133D03*
X0320295Y0083333D03*
X0320295Y0083533D03*
X0320295Y0083733D03*
X0320295Y0083933D03*
X0320295Y0084133D03*
X0320295Y0084333D03*
X0320295Y0084533D03*
X0320295Y0084733D03*
X0320295Y0084933D03*
X0309495Y0083133D03*
X0310695Y0090733D03*
X0310695Y0090933D03*
X0296495Y0083533D03*
X0332295Y0090733D03*
X0332295Y0090933D03*
X0354895Y0075133D03*
X0354895Y0074933D03*
X0354895Y0074733D03*
X0354895Y0074533D03*
X0354895Y0074333D03*
X0354895Y0074133D03*
X0354895Y0073933D03*
X0354895Y0073733D03*
X0354895Y0073533D03*
X0354895Y0073333D03*
X0354895Y0073133D03*
D41*
X0364195Y0073133D03*
X0362995Y0087933D03*
X0332195Y0096933D03*
X0324195Y0091133D03*
X0324195Y0090933D03*
X0318795Y0096333D03*
X0318795Y0096533D03*
X0310595Y0096733D03*
D42*
X0308395Y0084733D03*
X0308395Y0073333D03*
X0351395Y0088333D03*
X0351395Y0098733D03*
X0365195Y0078533D03*
D43*
X0345095Y0073333D03*
X0351495Y0087933D03*
X0323895Y0091933D03*
X0319095Y0095533D03*
D44*
X0319195Y0095333D03*
X0323795Y0092133D03*
X0298195Y0086333D03*
X0298195Y0085533D03*
X0351395Y0099133D03*
X0362995Y0088133D03*
X0364195Y0073333D03*
D45*
X0364895Y0078733D03*
X0363695Y0079533D03*
X0308695Y0073533D03*
X0297295Y0084533D03*
X0297295Y0087333D03*
D46*
X0297995Y0086533D03*
X0297995Y0085333D03*
X0307995Y0084933D03*
X0344995Y0084533D03*
X0351395Y0088133D03*
X0364195Y0084533D03*
X0345195Y0073533D03*
X0363195Y0098933D03*
D47*
X0363195Y0098733D03*
X0344995Y0084333D03*
X0362995Y0079933D03*
X0365595Y0078333D03*
X0364195Y0073533D03*
X0297795Y0085133D03*
D48*
X0297095Y0087533D03*
X0308895Y0073733D03*
X0364095Y0083733D03*
X0351495Y0098333D03*
D49*
X0362895Y0088533D03*
X0364095Y0084333D03*
X0345095Y0073733D03*
X0297695Y0084933D03*
X0297695Y0086933D03*
D50*
X0308595Y0084533D03*
X0344995Y0084133D03*
X0351395Y0088533D03*
X0364195Y0084133D03*
X0363395Y0079733D03*
X0364195Y0073733D03*
X0345195Y0073933D03*
X0351395Y0098533D03*
X0363195Y0098533D03*
D51*
X0351495Y0098133D03*
X0332295Y0091933D03*
X0310695Y0091933D03*
X0309095Y0083933D03*
X0309095Y0073933D03*
X0364095Y0083533D03*
D52*
X0364195Y0083933D03*
X0363995Y0079333D03*
X0364395Y0079133D03*
X0364595Y0078933D03*
X0364195Y0073933D03*
X0345195Y0074133D03*
X0344995Y0083933D03*
X0351395Y0088733D03*
X0363195Y0098333D03*
X0308795Y0084333D03*
X0297195Y0084333D03*
D53*
X0296795Y0083933D03*
X0296795Y0087933D03*
X0309195Y0083733D03*
X0319995Y0080533D03*
X0319995Y0080333D03*
X0319995Y0080133D03*
X0319995Y0079933D03*
X0319995Y0079733D03*
X0319995Y0079533D03*
X0319995Y0079333D03*
X0319995Y0079133D03*
X0319995Y0078933D03*
X0319995Y0078733D03*
X0319995Y0078533D03*
X0319995Y0078333D03*
X0309195Y0074133D03*
X0345195Y0074533D03*
X0345195Y0074733D03*
X0364195Y0074333D03*
X0344995Y0083533D03*
X0351395Y0089133D03*
X0351395Y0097933D03*
X0363195Y0097933D03*
X0332395Y0091733D03*
X0310595Y0091733D03*
D54*
X0296995Y0087733D03*
X0296995Y0084133D03*
X0308995Y0084133D03*
X0342195Y0087733D03*
X0342195Y0087933D03*
X0342195Y0088133D03*
X0342195Y0088333D03*
X0342195Y0088533D03*
X0342195Y0088733D03*
X0342195Y0088933D03*
X0342195Y0089133D03*
X0342195Y0089333D03*
X0342195Y0089533D03*
X0342195Y0089733D03*
X0344995Y0083733D03*
X0351395Y0088933D03*
X0354395Y0080333D03*
X0354395Y0080133D03*
X0354395Y0079933D03*
X0354395Y0079733D03*
X0354395Y0079533D03*
X0354395Y0079333D03*
X0354395Y0079133D03*
X0354395Y0078933D03*
X0354395Y0078733D03*
X0354395Y0078533D03*
X0354395Y0078333D03*
X0345195Y0074333D03*
X0364195Y0074133D03*
X0363195Y0098133D03*
D55*
X0364095Y0083333D03*
X0344895Y0083333D03*
X0332295Y0091333D03*
X0332295Y0091533D03*
X0310695Y0091533D03*
X0310695Y0091333D03*
X0309295Y0083533D03*
X0309295Y0074333D03*
X0364295Y0074533D03*
D56*
X0354795Y0082933D03*
X0354795Y0083133D03*
X0354795Y0083333D03*
X0354795Y0083533D03*
X0354795Y0083733D03*
X0354795Y0083933D03*
X0354795Y0084133D03*
X0354795Y0084333D03*
X0354795Y0084533D03*
X0354795Y0084733D03*
X0354795Y0084933D03*
X0351395Y0089333D03*
X0351395Y0097733D03*
X0363195Y0097733D03*
X0332395Y0091133D03*
X0310595Y0091133D03*
X0296595Y0088133D03*
X0296595Y0083733D03*
X0309395Y0083333D03*
X0309395Y0074533D03*
D57*
X0330495Y0075733D03*
X0330495Y0075933D03*
X0330495Y0076133D03*
X0324295Y0090733D03*
X0318695Y0096733D03*
X0318695Y0096933D03*
X0310495Y0096933D03*
X0310495Y0097133D03*
X0351495Y0099333D03*
X0366295Y0089533D03*
X0361895Y0080333D03*
D58*
X0366495Y0077933D03*
X0330495Y0076733D03*
X0330495Y0076533D03*
X0330495Y0076333D03*
X0298495Y0085933D03*
X0324095Y0091333D03*
X0318895Y0096133D03*
X0310495Y0096533D03*
D59*
X0290495Y0076533D03*
D60*
X0290695Y0076733D03*
X0290695Y0094733D03*
D61*
X0290895Y0094533D03*
X0290895Y0076933D03*
D62*
X0290995Y0077133D03*
D63*
X0291195Y0077333D03*
D64*
X0291395Y0077533D03*
D65*
X0291495Y0077733D03*
X0291495Y0093933D03*
D66*
X0291695Y0077933D03*
D67*
X0291895Y0078133D03*
D68*
X0292095Y0078333D03*
D69*
X0292195Y0078533D03*
X0292195Y0093133D03*
D70*
X0292395Y0078733D03*
D71*
X0292595Y0078933D03*
D72*
X0292695Y0079133D03*
X0292695Y0092533D03*
D73*
X0292895Y0092333D03*
X0292895Y0079333D03*
D74*
X0293095Y0079533D03*
X0293095Y0092133D03*
D75*
X0293195Y0091933D03*
X0293195Y0079733D03*
D76*
X0293395Y0079933D03*
X0293395Y0091733D03*
D77*
X0293595Y0091533D03*
X0293595Y0080133D03*
D78*
X0293795Y0080333D03*
X0293795Y0091333D03*
D79*
X0293895Y0091133D03*
X0293895Y0080533D03*
D80*
X0294095Y0080733D03*
X0294095Y0090933D03*
D81*
X0294295Y0090733D03*
X0294295Y0080933D03*
D82*
X0294395Y0081133D03*
D83*
X0294595Y0081333D03*
D84*
X0294795Y0081533D03*
X0294795Y0090133D03*
D85*
X0294895Y0081733D03*
D86*
X0295095Y0081933D03*
D87*
X0295295Y0082133D03*
D88*
X0295495Y0082333D03*
X0295495Y0089333D03*
D89*
X0295595Y0082533D03*
D90*
X0295795Y0082733D03*
D91*
X0295995Y0082933D03*
D92*
X0296095Y0083133D03*
X0296095Y0088733D03*
X0363695Y0089333D03*
D93*
X0363895Y0088933D03*
X0332295Y0090333D03*
X0310695Y0090333D03*
X0296295Y0088533D03*
X0296295Y0083333D03*
D94*
X0297495Y0084733D03*
X0297495Y0087133D03*
X0362895Y0088733D03*
D95*
X0364195Y0084733D03*
X0365995Y0092133D03*
X0365995Y0092333D03*
X0365995Y0092533D03*
X0365995Y0092733D03*
X0365995Y0092933D03*
X0365995Y0093133D03*
X0365995Y0093333D03*
X0365995Y0093533D03*
X0365995Y0093733D03*
X0365995Y0093933D03*
X0363195Y0099133D03*
X0344995Y0084733D03*
X0323995Y0091533D03*
X0323995Y0091733D03*
X0318995Y0095733D03*
X0318995Y0095933D03*
X0298395Y0086133D03*
X0298395Y0085733D03*
D96*
X0297895Y0086733D03*
X0351495Y0098933D03*
X0362895Y0088333D03*
D97*
X0353795Y0089533D03*
X0351395Y0087733D03*
X0348995Y0089533D03*
X0332195Y0097133D03*
X0332195Y0097333D03*
X0318595Y0097133D03*
X0310595Y0097333D03*
X0324395Y0090533D03*
X0324395Y0090333D03*
X0363195Y0099333D03*
D98*
X0295895Y0088933D03*
D99*
X0295695Y0089133D03*
D100*
X0363795Y0089133D03*
D101*
X0295395Y0089533D03*
D102*
X0295195Y0089733D03*
D103*
X0294995Y0089933D03*
D104*
X0294695Y0090333D03*
D105*
X0294495Y0090533D03*
D106*
X0292495Y0092733D03*
D107*
X0292295Y0092933D03*
D108*
X0291995Y0093333D03*
D109*
X0291795Y0093533D03*
D110*
X0291595Y0093733D03*
D111*
X0291295Y0094133D03*
D112*
X0291095Y0094333D03*
D113*
X0290595Y0094933D03*
D114*
X0265895Y0302633D02*
X0262826Y0305702D01*
X0262059Y0305702D01*
X0261291Y0304935D01*
X0261291Y0303400D01*
X0262059Y0302633D01*
X0265895Y0302633D02*
X0265895Y0305702D01*
X0220895Y0305702D02*
X0220895Y0302633D01*
X0220895Y0304168D02*
X0216291Y0304168D01*
X0217826Y0302633D01*
X0101895Y0302633D02*
X0098826Y0305702D01*
X0098059Y0305702D01*
X0097291Y0304935D01*
X0097291Y0303400D01*
X0098059Y0302633D01*
X0101895Y0302633D02*
X0101895Y0305702D01*
X0056895Y0305702D02*
X0056895Y0302633D01*
X0056895Y0304168D02*
X0052291Y0304168D01*
X0053826Y0302633D01*
D115*
X0296695Y0291400D02*
X0297062Y0291033D01*
X0297429Y0291033D01*
X0297796Y0291400D01*
X0297796Y0293235D01*
X0297429Y0293235D02*
X0298163Y0293235D01*
X0298905Y0292134D02*
X0299639Y0292868D01*
X0300373Y0293235D01*
X0300006Y0292134D02*
X0298905Y0292134D01*
X0298905Y0291400D01*
X0299272Y0291033D01*
X0300006Y0291033D01*
X0300373Y0291400D01*
X0300373Y0291767D01*
X0300006Y0292134D01*
M02*
